<svg xmlns="http://www.w3.org/2000/svg" viewBox="0 0 371 105"><path d="M174.392 23.473h16.133l-24.73 57.704H149.72l-24.67-57.704h17.664l15.662 37.625 16.016-37.625zm51.344 13.013H241.4v44.69h-14.956v-4.77q-2.473 2.71-5.888 4.122-3.474 1.413-7.36 1.413-8.656 0-13.778-5.123-5.182-5.123-5.182-15.31V36.486h15.662V58.92q0 5.064 1.884 7.36 1.884 2.296 5.535 2.296 3.7 0 6.065-2.59 2.355-2.59 2.355-7.95v-21.55zm65.123 30.442v-15.84h14.426v23.906q-4.946 3.533-11.364 5.476-6.477 1.884-12.895 1.884-9.068 0-16.3-3.827-7.242-3.827-11.364-10.716-4.122-6.83-4.122-15.486 0-8.656 4.122-15.486 4.122-6.83 11.423-10.658 7.36-3.827 16.605-3.827 8.067 0 14.485 2.71 6.418 2.71 10.716 7.83l-10.363 9.362q-5.888-6.418-14.014-6.418-7.42 0-11.953 4.475-4.534 4.534-4.534 12.012 0 4.77 2.06 8.538 2.06 3.768 5.77 5.83 3.7 2.12 8.48 2.12 4.71 0 8.832-1.884zm63.474 0v-15.84h14.426v23.906q-4.946 3.533-11.364 5.476-6.477 1.884-12.895 1.884-9.068 0-16.3-3.827-7.242-3.827-11.364-10.716-4.122-6.83-4.122-15.486 0-8.656 4.122-15.486 4.122-6.83 11.423-10.658 7.36-3.827 16.605-3.827 8.067 0 14.485 2.71 6.418 2.71 10.716 7.83l-10.363 9.362q-5.888-6.418-14.014-6.418-7.42 0-11.953 4.475-4.534 4.534-4.534 12.012 0 4.77 2.06 8.538 2.06 3.768 5.77 5.83 3.7 2.12 8.48 2.12 4.7 0 8.832-1.884z" fill="#000"/><path d="M28.628 21.086l4.4 13.72s5.88 8.818 6.86 9.8l1.345.96a69.62 69.62 0 0 1 1.301-5.911c.87-2.535 3.23-5.577 5.677-6.317 1.572-.323 3.04-.1 4.252.6.637.322 2.02 2.03 2.122 2.34l.5.49 1.96.98 2.45.98c.5 0 .5.5 0 .5l-4.41.5-.98.49c-.49.5-.49 1.47 0 2.45l1.96 4.41 3.43-2.45c.98-.98 6.86-9.8 6.86-9.8l4.41-13.72 5.4-18.617c.49-1.96 1.47-1.96 2.45-.5l5.88 9.8 2.45 6.86c.5.98 1.47 1.47 2.45 1.47l2.94-.5h1.47c.98.5.98 1.47.98 2.45l-4.41 10.778c0 .98.5 1.96 1.47 2.45l5.4.98c.98.49 1.47.98.98 1.96L87.91 54.892c-.49.98 0 1.47.98 1.96l3.43.5c.98.49 1.47.98.49 1.96l-9.8 7.35c-1.47 1.47-1.47 2.94.5 3.43l.98.5c1.47.49 1.96 1.47.49 2.45l-2.94 1.47c-3.92 1.47-7.84 1.96-7.84 1.96l-7.84.98-6.86-.98 4.41 6.37c1.96 1.96 1.96 5.4-.49 6.86l-7.84 6.86c-2.94 1.96-7.348 1.96-10.288 0l-7.84-6.86c-2.45-1.47-2.94-4.41-.98-6.86s5.478-6.37 5.478-6.37l-8.907.98-7.84-.98-7.84-1.96-2.94-1.47c-1.47-.98-.98-1.96.5-2.45l.98-.5c1.96-.5 1.96-1.96.5-3.43l-9.8-7.35c-.98-.98-.5-1.47.5-1.96l3.43-.5c.98-.5 1.47-.98.98-1.96L1.192 38.234c-.5-.98 0-1.47.98-1.96l5.39-.98c.98-.49 1.47-1.47 1.47-2.45l-4.41-10.78c0-.98.5-1.96 1.47-2.45h.98l2.94.5c.98 0 1.96-.5 2.45-1.47l2.45-6.86 5.88-9.8c.98-1.47 1.96-1.47 2.45.5l5.388 18.618z" transform="matrix(1.078623 0 0 1.078623 -.603194 -.427401)" fill="#2e75d3"/></svg>
