<svg xmlns="http://www.w3.org/2000/svg" viewBox="0 0 171.2 81.5"><style><![CDATA[.H{transform-origin:50% 50%;animation:earmove 1.5s linear infinite alternate}.L{transform-origin:50% 50%;animation:move 1.5s linear infinite alternate}.G{transform-origin:50% 50%;animation:neck 1.5s linear infinite alternate}@keyframes earmove{0%{transform:translateX(-0.3px) translateY(0.6px)}30%{transform:translateX(-0.3px) translateY(0.6px)}60%{transform:translateX(-0.7px) translateY(0px)}70%{transform:translateX(-0.7px) translateY(-0.3px)}100%{transform:translateX(-0.7px) translateY(-0.3px)}} @keyframes move{0%{transform:translateX(-0.3px) translateY(0.6px)}30%{transform:translateX(-0.3px) translateY(0.6px)}60%{transform:translateX(2px) translateY(0px)}70%{transform:translateX(2px) translateY(-0.3px)}100%{transform:translateX(2px) translateY(-0.3px)}} @keyframes neck{0%{transform:translateY(0.7px)}50%{transform:translateY(0.7px)}100%{transform:translateY(0px)}}.U{fill:none}.V{stroke-width:.5}.W{stroke:#b0bec5}.X{stroke-linejoin:round}.Y{stroke-miterlimit:10}.Z{fill:#ffe1d9}.a{fill:#ffcfbf}.b{stroke:#d26f51}.c{fill:#edf0f2}.d{stroke-linecap:round}]]></style><path d="M46.62 52.5c5.78 4.9 21.14 8.4 39.2 8.4s33.4-3.5 39.2-8.4c-5.78-4.9-21.14-8.4-39.2-8.4s-33.4 3.5-39.2 8.4z" fill="#ed2800" opacity=".3"/><path d="M99.73 47.7H68.65a7.13 7.13 0 0 0-7.13 7.13V60a152.58 152.58 0 0 0 24.3 1.83 157.87 157.87 0 0 0 21.05-1.35v-5.64a7.13 7.13 0 0 0-7.14-7.13z" fill="#fff"/><g stroke="#5c7690" class="U V Y"><path d="M123.56 55.8C115 58.94 101.27 61 85.8 61c-26 0-47-5.7-47-12.76 0-3.45 5.05-6.58 13.25-8.88m3.32-.9a140 140 0 0 1 30.44-3c26 0 47 5.7 47 12.76 0 2.4-2.44 4.65-6.7 6.57"/><path d="M53.4 38.95l.94-.24"/></g><path d="M91.68 47.7l-.75-11.2-11.78 7.33-1.7 3.87H75.8c0 3.36 3.76 6.08 8.4 6.08s8.4-2.72 8.4-6.08z" class="Z"/><path class="G a" d="M78 46.53a27.19 27.19 0 0 0 6.41.82c3.1 0 7.1-2.2 7.1-2.2l-.42-6.2-11.95 4.88z"/><path class="H" d="M92.6 32.22V28.5l-15.82-.8v4.5H92.6z"/><circle class="H" cx="78.06" cy="34.04" r="2.47" fill="#fecbb6"/><path d="M81.74 57.06l-21.1-7.34a6.72 6.72 0 1 0-2.93 12.77h35.55c0-5.7-11.5-5.43-11.5-5.43zM77.46 25h13.46a0 0 0 0 1 0 0v14.38a6.73 6.73 0 0 1-6.73 6.73h0a6.73 6.73 0 0 1-6.73-6.73V25a0 0 0 0 1 0 0z" class="Z"/><g fill="#ed2800"><path d="M74.89 26.056l19.122.832-.106 2.448-19.122-.832z" opacity=".8"/><path d="M84.528 18.677l.5.022a7.8 7.8 0 0 1 7.454 8.132h0l-16.085-.7a7.8 7.8 0 0 1 8.132-7.454z" opacity=".8"/><path d="M82.44 23.9l10.15.45-.1 2.5-11.52-.5 1.48-2.44z"/></g><g transform="matrix(.043445 -.999056 .999056 .043445 51.58 101.34)" class="L"><circle cx="78.72" cy="23.73" r="3.73" fill="#fecb02"/><circle cx="78.72" cy="23.73" r="2.36" fill="#fff"/></g><g class="Z"><circle class="H" cx="90.92" cy="34.04" r="2.47"/><path d="M112.2 53l-9.87-21.92-3-5.48-11.86-.22 7.42 3.35h-3.34l5.82 4.58 2 22.26A6.72 6.72 0 1 0 112.2 53z"/></g><ellipse class="L" cx="80.09" cy="33.12" rx=".53" ry=".59"/><ellipse class="L" cx="86.34" cy="33.12" rx=".53" ry=".59"/><g class="U Y"><path d="M84.2 31.08L81.74 37h2.65m-1.33 3.36a4 4 0 0 1 2.75-1" stroke-width=".38" class="b L"/><path d="M81.07 30.33l-2.6.25m7.87-.13l1.8.63" stroke-width=".38" stroke="#000" class="L"/><path d="M106.86 47.82l4.13-1.7m-3.56 3.78l4.12-1.7M108 51.98l4.12-1.7" stroke-width=".19" class="b"/></g><g opacity=".45" class="V W X"><path d="M85.8 2.46h10.77v3.5H85.8z" class="U"/><path d="M96.58 2.46h10.77v3.5H96.58z" class="c"/><g class="U"><path d="M92.2 5.95h10.77v3.5H92.2z"/><path d="M107.36 5.95h2.27m1.05 0h.9" class="d"/></g></g><g opacity=".45" class="V W X"><path d="M125 23.12h10.77v3.5H125z" class="U"/><path d="M130.4 26.62h10.77v3.5H130.4z" class="c"/><g class="U"><path d="M119.62 26.62h10.77v3.5h-10.77z"/><path d="M141.16 26.62h4.57M125 23.12h-9.6m2.55 3.5h-2.55" class="d"/></g></g><g opacity=".45" class="V W X"><g class="U"><path d="M39.34 16.12H50.1v3.5H39.34zm0 6.98H50.1v3.5H39.34z"/><path d="M50.1 23.1h10.77v3.5H50.1zm0-6.98h10.77v3.5H50.1z"/></g><path d="M44 19.6h10.77v3.5H44z" class="c"/><g class="U"><path d="M33.23 19.6H44v3.5H33.23z"/><path d="M60.9 19.6h4.62m-26.18-3.48h-3.88m1 10.48h-3.22m29.97-3.5h2.3" class="d"/></g></g><g stroke="#5c7690" class="U V Y"><path d="M115.4 58.12V38.27l4.8-1.26m8.8 16.2V43.14l2.73-1"/><path d="M115.4 42.13a53.27 53.27 0 0 1 8 2A42 42 0 0 1 129 47m-13.6.34a53.27 53.27 0 0 1 8 2 42 42 0 0 1 5.6 2.88m-13.6.34a53.27 53.27 0 0 1 8 2l1 .42"/></g><path class="L" d="M78.84 26.1v-4.7l-10.8-3.06a.91.91 0 0 0-.45-.13c-1.17 0-2.1 2.46-2.1 5.5s.95 5.5 2.1 5.5a.9.9 0 0 0 .44-.12z" fill="#fffdbb" opacity=".5"/><path d="M57.7 62.5h35.55a3.67 3.67 0 0 0-.33-1.49h-39.5a6.69 6.69 0 0 0 4.27 1.49z" class="a"/><path d="M88.15,60.27s1.7.95,1.7,2.22" stroke-width=".19" class="U Y b"/><path d="M101.8 61a6.68 6.68 0 0 0 8.51 0zM90.92 30.25l-13.46-.56v-1.05l13.46.58v1.03z" class="a"/><defs ><style>@import url('https://fonts.googleapis.com/css?family=Merriweather'); </style></defs></svg>