<svg xmlns="http://www.w3.org/2000/svg" xmlns:xlink="http://www.w3.org/1999/xlink" viewBox="0 0 478 262"><style><![CDATA[.B{fill-rule:nonzero}.C{fill:#c3b8e3}]]></style><g fill-rule="evenodd"><g fill="#eee" class="B"><path d="M296 241.412c27.583 1.286 56.126 3.405 85 6.178v4.018c-28.877-2.778-57.423-4.902-85-6.192v-4.004zm-114 0v4.004c-33.506 1.568-68.442 4.365-103.666 8.073a2028.323 2028.323 0 0 0-54.93 6.525l-15.57 2.15a885.689 885.689 0 0 0-5.176.76c-1.447.22-2.468-.53-2.635-1.62a2 2 0 0 1 1.674-2.28 889.659 889.659 0 0 1 5.567-.82l15.613-2.154a2035.73 2035.73 0 0 1 55.039-6.538c35.362-3.722 70.437-6.53 104.084-8.1zm219 8.196a2033.711 2033.711 0 0 1 54.123 6.44l15.613 2.156a889.651 889.651 0 0 1 5.203.764c1.456.222 2.205 1.243 2.038 2.335a2 2 0 0 1-2.28 1.674l-1.41-.212a885.707 885.707 0 0 0-4.12-.602l-15.57-2.15A2028.787 2028.787 0 0 0 401 253.63v-4.022z"/><path d="M182 230h-1c-5.523 0-10-4.479-10-10.002v-6a5.998 5.998 0 015.997-5.998h124.006a5.998 5.998 0 015.997 5.997v6c0 5.525-4.486 10.003-10 10.003h-1v19.01a9.988 9.988 0 01-9.992 9.99h-94.016c-5.518 0-9.992-4.472-9.992-9.99V230zm4 0v19.01a5.99 5.99 0 005.992 5.99h94.016a5.988 5.988 0 005.992-5.99V230H186zm79 7h16a2 2 0 010 4h-16a2 2 0 110-4zm0 8h16a2 2 0 010 4h-16a2 2 0 110-4zm-90-31.003v6a6.002 6.002 0 006 6.003h116c3.308 0 6-2.69 6-6.002v-6a1.998 1.998 0 00-1.997-1.998H176.997a1.998 1.998 0 00-1.997 1.997z"/></g><use xlink:href="#B" class="C"/><path d="M296 67h1c5.523 0 10 4.48 10 10.002v6A5.998 5.998 0 0 1 301.003 89H176.997A5.998 5.998 0 0 1 171 83.003v-6A10.01 10.01 0 0 1 181 67h1V55c0-11.046 8.954-20 20-20h17.014a8.498 8.498 0 0 1 8.493-8h22.986c4.53 0 8.233 3.547 8.492 8H276c11.046 0 20 8.954 20 20v12zm-4 0V55c0-8.837-7.163-16-16-16h-74c-8.837 0-16 7.163-16 16v12h106zm-37.028-32a4.512 4.512 0 0 0-4.48-4h-22.985a4.498 4.498 0 0 0-4.48 4h31.945zM175 77.002v6A2 2 0 0 0 176.997 85h124.006A1.998 1.998 0 0 0 303 83.003v-6A6.002 6.002 0 0 0 297 71H181a6.01 6.01 0 0 0-6 6.002z" fill="#eee" class="B"/><rect fill="#fee1d3" x="233" y="19" width="12" height="4" rx="2"/><g fill="#fdc4a8"><rect x="230" y="10" width="18" height="4" rx="2"/><rect width="24" height="4" rx="2" x="227" y="1"/></g><use xlink:href="#B" y="-141" class="C"/><g fill="#fc6d26"><path opacity=".15" d="M179 89h8v119h-8z"/><path opacity=".1" d="M195 89h8v119h-8z"/><path opacity=".05" d="M211 89h8v119h-8zm16 0h8v119h-8zm16 0h8v119h-8zm16 0h8v119h-8z"/><path opacity=".1" d="M275 89h8v119h-8z"/><path opacity=".15" d="M291 89h8v119h-8z"/></g><path d="M213.508 149.148h3.844v11.93h-3.844v7.547h-12.633v-7.547H187v-10.58l14.623-22.865h11.885v21.515zm10.883-.984c0-6.582 1.073-11.655 3.35-15.238 2.486-3.9 6.34-5.926 11.204-5.926 4.876 0 8.74 2 11.226 5.91 2.28 3.577 3.352 8.655 3.352 15.253 0 6.583-1.073 11.653-3.352 15.23-2.487 3.9-6.35 5.9-11.226 5.9-4.863 0-8.718-2.015-11.203-5.925-2.278-3.583-3.35-8.65-3.35-15.215zm62.914.984h3.843v11.93h-3.843v7.547h-12.633v-7.547h-13.875v-10.58l14.623-22.865h11.885v21.515z" fill="#fff" class="B"/><path d="M199.194 137H203v-1h-3.167l.64-1H206v-1h-4.888l2.154-3.367h7.242V139H206v1h4.508v12.148h3.844v5.93h-3.844v7.547h-6.633v-7.547H190V157h4v-1h-4v-1h6v-1h-6v-2.625L199.194 137zm4.68 1.32l-8.836 13.828h8.836V138.32zM227.467 151a50.424 50.424 0 0 1-.076-2.836c0-3.125.255-5.846.766-8.164H232v-1h-3.6c.188-.71.404-1.375.646-2H233v-1h-3.527c.245-.523.512-1 .8-1.465 1.922-3.023 4.813-4.535 8.672-4.535 3.156 0 5.664 1 7.524 3H240v1h7.286l.355.523c1.922 3.016 2.882 7.563 2.882 13.64 0 .986-.025 1.93-.076 2.836H243.5c.04-.88.06-1.826.06-2.836 0-1.625-.054-3.078-.164-4.36L238.882 151h-3.937l7.563-12.07-.047-.14c-.734-1.954-1.906-2.93-3.516-2.93-1.593 0-2.757.976-3.492 2.93s-1.1 5.077-1.1 9.374c0 1.014.018 1.96.054 2.836h-6.94zm.068 1h10.72l-3.036 4.836c.078.25.156.476.234.68.735 1.953 1.9 2.93 3.492 2.93 1.6 0 2.782-.977 3.516-2.93.494-1.313.82-3.152.983-5.516h6.935l-.092 1H245v1h5.166a31 31 0 0 1-.152 1H244v1h5.827c-.48 2.32-1.2 4.248-2.186 5.78-1.922 3.016-4.82 4.524-8.696 4.524-3.294 0-5.883-1.102-7.765-3.305H237v-1h-6.576a11.633 11.633 0 0 1-.601-1H234v-1h-4.667c-.94-2.128-1.54-4.795-1.798-8zm56.77-6v6.148h3.843V154H281v1h7.148v3.078h-3.843V159H281v1h3.305v2H278v1h6.305v2.625h-6.633v-7.547h-13.875v-6.703l3.437-5.375h5.53l-3.928 6.148h8.836V146h6.633zm0-1h-6.633v-6.68l-4.268 6.68h-5.53l5.116-8h6v-1h-5.37l1.28-2h9.396v8H279v1h5.305v2zm0-12h-8.756l1.514-2.367h7.242V133z" fill="#333"/><path d="M428 194v-3.993a4.002 4.002 0 0 0-3.993-4.007h-66.014a3.999 3.999 0 0 0-3.993 4.007V200h8a2 2 0 1 1 0 4h-8v5h13a2 2 0 1 1 0 4h-13v8.993a4.002 4.002 0 0 0 3.993 4.007h66.014a3.999 3.999 0 0 0 3.993-4h-13a2 2 0 1 1 0-4h13v-10h-6a2 2 0 1 1 0-4h6v-6h-6a2 2 0 1 1 0-4h6zm-47 36h-23.007c-4.414 0-7.993-3.588-7.993-8.007v-31.986a8 8 0 0 1 7.993-8.007h66.014c4.414 0 7.993 3.588 7.993 8.007v31.986a8 8 0 0 1-7.993 8.007H401v25a5.989 5.989 0 0 1-6 5.99h-8c-3.313 0-6-2.69-6-6v-25zm4 0v25a2 2 0 0 0 2 1.99h8a1.99 1.99 0 0 0 2-1.99v-25h-12zm6 24a3 3 0 1 1 0-6 3 3 0 0 1 0 6z" fill="#eee" class="B"/><path d="M379.724 198.473l2.33 1.888c.43.348.5.973.148 1.406l-.63.78c-.167.207-.41.338-.672.366s-.528-.05-.734-.22l-2.33-1.888-.64.8a1 1 0 0 1-1.408.15c-.208-.166-.34-.41-.37-.674s.053-.53.223-.736l3.143-3.88a1 1 0 0 1 1.408-.15.99.99 0 0 1 .146 1.408l-.615.76zm23.44 2.332l-2.33 1.888c-.206.168-.47.247-.734.22s-.506-.16-.672-.366l-.63-.78c-.167-.206-.246-.47-.218-.733s.16-.505.366-.672l2.33-1.888-.615-.76a1 1 0 0 1 .146-1.409c.206-.17.47-.248.735-.22s.507.16.673.37l3.143 3.88a1 1 0 0 1-.146 1.41c-.206.17-.47.248-.735.22s-.507-.16-.673-.37l-.64-.8zM392 194v3c0 .552-.443 1-1 1H390c-.265.001-.52-.105-.707-.292S389 197.265 389 197v-3h-.997a1 1 0 0 1-1.003-1c0-.552.438-1 1.003-1h4.994a1 1 0 0 1 1.003 1c0 .552-.438 1-1.003 1H392z" class="C"/><path d="M390.593 221c-14.5 0-12.5-5.596-12.5-12.5s5.597-12.5 12.5-12.5 12.5 5.596 12.5 12.5 2 12.5-12.5 12.5zm0-4c2.814 0 4.908-.226 6.354-.636 1.003-.284 1.525-.592 1.774-.9.407-.485.527-1.44.42-4.655-.03-.773-.046-1.546-.05-2.32a8.5 8.5 0 0 0-17 0 65.92 65.92 0 0 1-.048 2.32c-.106 3.215.014 4.17.42 4.655.25.297.772.605 1.775.9 1.446.41 3.54.635 6.353.635zm-.093-1.5a7 7 0 1 1 0-14 7 7 0 1 1 0 14zm0-3a4 4 0 1 0 0-8 4 4 0 1 0 0 8z" fill="#e1dbf1" class="B"/><circle fill="#6b4fbb" cx="389.5" cy="207.5" r="2.5"/><path d="M46.994 106zM44 103h-1.004A2.996 2.996 0 0140 99.998v-1.996A3.005 3.005 0 0142.996 95h22.008A2.996 2.996 0 0168 98.002v1.996A3.005 3.005 0 0165.004 103H64v2.997A3 3 0 0161.006 109H46.994A2.997 2.997 0 0144 105.997V103zm3 0v2.997l14.006.003c-.003 0-.005-1-.006-3H47zm18.004-3c-.006 0-.007-.666-.004-1.998L42.996 98c.006 0 .007.666.004 1.998l22.004.002zm-18.01-39zM44 64h-1.004A2.996 2.996 0 0040 67.002v1.996A3.005 3.005 0 0042.996 72h22.008A2.996 2.996 0 0068 68.998v-1.996A3.005 3.005 0 0065.004 64H64v-2.997A3 3 0 0061.006 58H46.994A2.997 2.997 0 0044 61.003V64zm3 0v-2.997L61.006 61c-.003 0-.005 1-.006 3H47zm18.004 3c-.006 0-.007.666-.004 1.998L42.996 69c.006 0 .007-.666.004-1.998L65.004 67z" fill="#eee" class="B"/><path d="M51 55a1 1 0 0 1 .99-1H56c.546 0 1 .444 1 1a1 1 0 0 1-.99 1H52a.993.993 0 0 1-.99-1zm-1-4c0-.552.453-1 .997-1h6.006c.55 0 .997.444.997 1s-.453 1-.997 1h-6.006A.996.996 0 0 1 50 51z" fill="#efedf8"/><path d="M43 72h2v23h-2V72zm8 0h2v23h-2V72zm8 0h2v23h-2V72z" fill="#e1dbf1"/><path d="M47 72h2v23h-2V72zm8 0h2v23h-2V72zm8 0h2v23h-2V72z" fill="#efedf8"/><path d="M83.04 123.718A15.433 15.433 0 0 1 73.5 127c-2.243 0-4.375-.476-6.3-1.334A15.464 15.464 0 0 1 55.5 131c-8.56 0-15.5-6.94-15.5-15.5 0-1.34.17-2.64.5-3.88C27.3 116.964 18 129.896 18 145c0 19.882 16.118 36 36 36a36.35 36.35 0 0 0 5.586-.43A18.027 18.027 0 0 1 59 176c0-6.1 3.072-11.685 8.023-14.984A22.34 22.34 0 0 1 67 160c0-12.15 9.85-22 22-22l.32.002a35.824 35.824 0 0 0-6.281-14.284zm10.53 15.382a1.99 1.99 0 0 1 .331.973 42.586 42.586 0 0 1 .089 3.938l.012 1c0 22.09-17.91 40-40 40s-40-17.91-40-40 17.91-40 40-40c20.087 0 36.715 14.806 39.568 34.1zM89 142c-9.94 0-18 8.06-18 18 0 .63.032 1.255.096 1.874a2 2 0 0 1-1.001 1.944A13.992 13.992 0 0 0 63 176c0 1.113.13 2.207.383 3.267C79.04 174.365 90 159.774 90 143l-.012-.973A18.323 18.323 0 0 0 89 142zm-46.5 5a6.5 6.5 0 1 1-.25 12.995 8 8 0 1 1-2.82-12.225 6.471 6.471 0 0 1 3.07-.77zm-1.18 4.294a4 4 0 0 1-3.609.089 4 4 0 1 0 1.414 6.113 4 4 0 0 1 3.275-1.498l.1.002a2.5 2.5 0 1 0-1.179-4.706zm4.055-41.255A11.436 11.436 0 0 0 44 115.5c0 6.35 5.15 11.5 11.5 11.5a11.46 11.46 0 0 0 8.682-3.958 4 4 0 0 1 4.646-1.03c1.456.65 3.036.988 4.672.988a11.46 11.46 0 0 0 6.998-2.372A35.903 35.903 0 0 0 54 109a36.05 36.05 0 0 0-8.624 1.039z" fill="#eee" class="B"/></g><defs ><path id="B" d="M197 223a4 4 0 110-8 4 4 0 010 8zm28 0a4 4 0 110-8 4 4 0 010 8zm28 0a4 4 0 110-8 4 4 0 010 8zm28 0a4 4 0 110-8 4 4 0 010 8z"/></defs></svg>
