<svg xmlns="http://www.w3.org/2000/svg" viewBox="0 0 1151 471"><path fill="#f32e68" d="M425.5.44l49.86-.01.47 299.56c-16.75 1.17-33.55.17-50.32.5l-.17-159.42c.25-2.05 2.56-2.72 4.06-3.7 14.7-7.76 22.45-26.44 17.64-42.35-2.9-10.98-11.3-19.93-21.5-24.64L425.5.44z"/><path d="M900.16.48l225.9.26v49.52c-41.7.6-83.4-.05-125.1.33l142.3 237.2 7.27 12.7c-107.54.01-215.08-.01-322.6 0-1.45.03-2.98.37-3.9 1.56l-95.44 95.5c-.87 1.12-2.67 2.04-3.73.62L690.8 364.1c2.92-4.15 6.76-7.5 10.37-11.02l53.7-53.97c-35.04-4.98-66.92-26.46-85.94-56.12-21.27-32.7-25.5-75.53-11.7-111.94 10.06-26.33 29.3-48.95 53.45-63.43 36.22-21.94 83.9-23.15 121.35-3.5 24.25 12.58 44.22 33.2 55.9 57.9 19.42 40.8 14.85 92.43-13.1 128.2l175.3.1L900.16.48M761.54 101.8c-28.96 4.96-53.82 28.58-59.98 57.36-2.74 13.77-2.27 28.36 2.67 41.6 6.23 17.32 18.98 32.26 35.34 40.77 27.9 15.58 65.6 9.57 87.8-13.25 13.63-13.7 21.88-32.83 21.63-52.24.4-15.28-4.4-30.52-13.12-43.02-15.96-23.6-46.3-36.4-74.34-31.2zm-261.04-1.4V50.46c40.16-1.03 79.3 20.13 102.34 52.7 21.25 29.58 28.18 68.7 18.94 103.88-7.2 28.44-25 53.92-49 70.76-20.93 14.86-46.56 23.4-72.32 22.72l.03-49.92c14.78-.68 29.57-4.92 41.9-13.24 16.83-11.36 28.68-29.85 31.8-49.93 1.7-12.47.93-25.46-3.46-37.32-6.26-17.26-19.03-32.13-35.34-40.6-10.7-5.8-22.84-8.36-34.9-9.08z" fill="#6a58b5"/><path d="M333.33 81.5c13.2-4.4 28.86 4.8 31.56 18.42 3.48 13.27-6.4 28.07-19.9 30.17-12.6 2.66-26.26-6.36-28.87-18.95-3.25-12.37 4.95-26.23 17.2-29.64zm71.14.1c8.7-2.04 18.45.8 24.43 7.48 6.9 7.96 8 20.3 2.57 29.34-4.93 8.28-15.1 12.88-24.6 11.33-14.1-1.45-24.36-17.42-19.95-30.88 1.96-8.5 9.3-15.04 17.55-17.27zm-53.97 68.9h49.98v150c-50.78.06-101.56-.04-152.34.03-6.17 29.64-23.26 57-47.64 75.03-25.28 19.22-58.16 27.98-89.66 24.17-28.43-3.22-55.5-16.7-75.33-37.3C13.16 339.44.25 307.58.4 275.5h49.95c.42 17.7 6.62 35.42 18.34 48.8 11.4 13.47 27.83 22.42 45.2 25.2 12.15 2.05 24.74.7 36.37-3.27 24.5-8.52 43.82-30.6 48.73-56.1 2.48-13.08 1.2-26.43 1.47-39.64H350.5v-100zM86.48 420.63c14.66-2.72 30.04 10.33 29.14 25.36.24 13.8-13.02 25.5-26.56 24.66-6.3-.5-12.54-3.2-16.8-7.94-6.25-6.72-8.76-17-5.4-25.65 2.94-8.53 10.83-14.87 19.64-16.43zm69.98.01c14.3-2.65 29.4 9.64 29.15 24.33.85 14.8-13.98 27.85-28.52 25.45-12.5-1.58-22.7-13.7-21.68-26.33.45-11.48 9.77-21.64 21.05-23.45z" fill="#f32e68"/></svg>