<?xml version="1.0" standalone="no"?>
<!DOCTYPE svg PUBLIC "-//W3C//DTD SVG 1.1//EN" "http://www.w3.org/Graphics/SVG/1.1/DTD/svg11.dtd" >
<svg xmlns="http://www.w3.org/2000/svg" xmlns:xlink="http://www.w3.org/1999/xlink" version="1.1">
<metadata>
This is a custom SVG webfont generated by Typotheque.
</metadata>
<defs>
<font id="typotheque_webfonts_service" horiz-adv-x="0" >
<font-face units-per-em="1000" ascent="710" descent="-290" />
<missing-glyph horiz-adv-x="247" />
<glyph unicode="&#xfe8b;&#xfef0;" horiz-adv-x="701" arabic-form="isolated" d="M588 475q16 0 37.5 3.5t35.5 7.5v-59q-23 -5 -69.5 -12t-102.5 -7v58q8 0 15.5 0.5t13.5 1.5q-5 6 -8.5 15.5t-3.5 20.5q0 15 6 30t17 27.5t25.5 20t31.5 7.5q15 0 28 -6.5t21 -15.5l-9 -56q-9 8 -18.5 12t-22.5 4q-20 0 -30.5 -10t-10.5 -16q0 -7 10 -16.5t34 -9.5z M632 376q4 -22 8.5 -48.5t8 -54.5t6 -54t2.5 -47q0 -45 -16 -77.5t-38 -52.5q-8 -7 -17.5 -12.5t-20.5 -10.5q14 -19 14 -40q0 -23 -6 -56t-33 -68q-15 -18 -39.5 -37t-58.5 -35t-77 -26t-94 -10q-73 0 -120 21t-75 54t-39 73t-11 78t6 71.5t14 58.5q8 30 19 54h90 q-11 -26 -20 -53q-9 -25 -15 -52.5t-6 -54.5q0 -20 5.5 -44t23.5 -45t51.5 -35.5t88.5 -14.5q45 0 85.5 10t70.5 24.5t47.5 29t17.5 23.5q0 20 -33.5 37.5t-93.5 17.5h-1l20 111h50q68 0 93 10.5t25 22.5q0 29 -6.5 85t-19.5 129z" />
<glyph unicode="&#xfe8b;&#xfef2;" horiz-adv-x="701" arabic-form="isolated" d="M588 475q16 0 37.5 3.5t35.5 7.5v-59q-23 -5 -69.5 -12t-102.5 -7v58q8 0 15.5 0.5t13.5 1.5q-5 6 -8.5 15.5t-3.5 20.5q0 15 6 30t17 27.5t25.5 20t31.5 7.5q15 0 28 -6.5t21 -15.5l-9 -56q-9 8 -18.5 12t-22.5 4q-20 0 -30.5 -10t-10.5 -16q0 -7 10 -16.5t34 -9.5z M632 376q4 -22 8.5 -48.5t8 -54.5t6 -54t2.5 -47q0 -45 -16 -77.5t-38 -52.5q-8 -7 -17.5 -12.5t-20.5 -10.5q14 -19 14 -40q0 -23 -6 -56t-33 -68q-15 -18 -39.5 -37t-58.5 -35t-77 -26t-94 -10q-73 0 -120 21t-75 54t-39 73t-11 78t6 71.5t14 58.5q8 30 19 54h90 q-11 -26 -20 -53q-9 -25 -15 -52.5t-6 -54.5q0 -20 5.5 -44t23.5 -45t51.5 -35.5t88.5 -14.5q45 0 85.5 10t70.5 24.5t47.5 29t17.5 23.5q0 20 -33.5 37.5t-93.5 17.5h-1l20 111h50q68 0 93 10.5t25 22.5q0 29 -6.5 85t-19.5 129zM359 -295q10 -9 21 -19q10 -9 20.5 -20.5 t20.5 -23.5q-10 -12 -21 -23.5t-20 -20.5q-11 -10 -21 -19q-8 7 -17 15t-18 17t-18 20q-9 -11 -18.5 -20t-16.5 -17q-10 -8 -18 -15q-11 9 -21 19q-10 9 -20.5 20.5t-19.5 23.5q9 12 19.5 23.5t20.5 20.5q10 10 21 19q8 -7 18 -16q8 -7 17 -16t18 -20q9 11 18.5 20t17.5 16 q9 9 17 16z" />
<glyph unicode="&#xfe97;&#xfef0;" horiz-adv-x="706" arabic-form="isolated" d="M630 555q10 -9 21 -19q10 -9 20.5 -20.5t20.5 -23.5q-10 -12 -21 -23.5t-20 -20.5q-11 -10 -21 -19q-8 7 -17 16q-9 7 -18 16t-18 20q-9 -11 -18.5 -20t-16.5 -16q-10 -9 -18 -16q-11 9 -21 19q-10 9 -20.5 20.5t-19.5 23.5q9 12 19.5 23.5t20.5 20.5q10 10 21 19 q8 -7 18 -15l17 -17t18 -20q9 11 18.5 20t17.5 17q9 8 17 15zM632 376q4 -22 8.5 -48.5t8 -54.5t6 -54t2.5 -47q0 -45 -16 -77.5t-38 -52.5q-8 -7 -17.5 -12.5t-20.5 -10.5q14 -19 14 -40q0 -23 -6 -56t-33 -68q-15 -18 -39.5 -37t-58.5 -35t-77 -26t-94 -10q-73 0 -120 21 t-75 54t-39 73t-11 78t6 71.5t14 58.5q8 30 19 54h90q-11 -26 -20 -53q-9 -25 -15 -52.5t-6 -54.5q0 -20 5.5 -44t23.5 -45t51.5 -35.5t88.5 -14.5q45 0 85.5 10t70.5 24.5t47.5 29t17.5 23.5q0 20 -33.5 37.5t-93.5 17.5h-1l20 111h50q68 0 93 10.5t25 22.5q0 29 -6.5 85 t-19.5 129z" />
<glyph unicode="&#xfe97;&#xfef2;" horiz-adv-x="706" arabic-form="isolated" d="M630 555q10 -9 21 -19q10 -9 20.5 -20.5t20.5 -23.5q-10 -12 -21 -23.5t-20 -20.5q-11 -10 -21 -19q-8 7 -17 16q-9 7 -18 16t-18 20q-9 -11 -18.5 -20t-16.5 -16q-10 -9 -18 -16q-11 9 -21 19q-10 9 -20.5 20.5t-19.5 23.5q9 12 19.5 23.5t20.5 20.5q10 10 21 19 q8 -7 18 -15l17 -17t18 -20q9 11 18.5 20t17.5 17q9 8 17 15zM632 376q4 -22 8.5 -48.5t8 -54.5t6 -54t2.5 -47q0 -45 -16 -77.5t-38 -52.5q-8 -7 -17.5 -12.5t-20.5 -10.5q14 -19 14 -40q0 -23 -6 -56t-33 -68q-15 -18 -39.5 -37t-58.5 -35t-77 -26t-94 -10q-73 0 -120 21 t-75 54t-39 73t-11 78t6 71.5t14 58.5q8 30 19 54h90q-11 -26 -20 -53q-9 -25 -15 -52.5t-6 -54.5q0 -20 5.5 -44t23.5 -45t51.5 -35.5t88.5 -14.5q45 0 85.5 10t70.5 24.5t47.5 29t17.5 23.5q0 20 -33.5 37.5t-93.5 17.5h-1l20 111h50q68 0 93 10.5t25 22.5q0 29 -6.5 85 t-19.5 129zM359 -295q10 -9 21 -19q10 -9 20.5 -20.5t20.5 -23.5q-10 -12 -21 -23.5t-20 -20.5q-11 -10 -21 -19q-8 7 -17 15t-18 17t-18 20q-9 -11 -18.5 -20t-16.5 -17q-10 -8 -18 -15q-11 9 -21 19q-10 9 -20.5 20.5t-19.5 23.5q9 12 19.5 23.5t20.5 20.5q10 10 21 19 q8 -7 18 -16q8 -7 17 -16t18 -20q9 11 18.5 20t17.5 16q9 9 17 16z" />
<glyph unicode="&#xfe9b;&#xfef0;" horiz-adv-x="706" arabic-form="isolated" d="M578 528q-10 9 -21 18q-9 9 -19 19.5t-19 22.5q9 13 19 24t19 20q11 10 21 18q10 -8 21 -18q9 -9 19.5 -20t19.5 -24q-9 -12 -19.5 -22.5l-19.5 -19.5q-11 -9 -21 -18zM634 541q10 -9 21 -19q10 -9 21 -20t21 -24q-10 -12 -21 -23t-21 -20q-11 -10 -21 -18q-9 7 -18 16 q-9 8 -18.5 17.5t-18.5 20.5q-9 -11 -19 -21t-18 -17q-9 -9 -18 -16q-11 8 -22 18q-10 9 -20.5 20t-19.5 23q9 13 20 24.5t20 19.5q11 10 22 19q9 -7 18 -16l18.5 -18.5t18.5 -21.5q9 12 18.5 22t18.5 18q9 9 18 16zM632 376q4 -22 8.5 -48.5t8 -54.5t6 -54t2.5 -47 q0 -45 -16 -77.5t-38 -52.5q-8 -7 -17.5 -12.5t-20.5 -10.5q14 -19 14 -40q0 -23 -6 -56t-33 -68q-15 -18 -39.5 -37t-58.5 -35t-77 -26t-94 -10q-73 0 -120 21t-75 54t-39 73t-11 78t6 71.5t14 58.5q8 30 19 54h90q-11 -26 -20 -53q-9 -25 -15 -52.5t-6 -54.5 q0 -20 5.5 -44t23.5 -45t51.5 -35.5t88.5 -14.5q45 0 85.5 10t70.5 24.5t47.5 29t17.5 23.5q0 20 -33.5 37.5t-93.5 17.5h-1l20 111h50q68 0 93 10.5t25 22.5q0 29 -6.5 85t-19.5 129z" />
<glyph unicode="&#xfe9b;&#xfef2;" horiz-adv-x="706" arabic-form="isolated" d="M578 528q-10 9 -21 18q-9 9 -19 19.5t-19 22.5q9 13 19 24t19 20q11 10 21 18q10 -8 21 -18q9 -9 19.5 -20t19.5 -24q-9 -12 -19.5 -22.5l-19.5 -19.5q-11 -9 -21 -18zM634 541q10 -9 21 -19q10 -9 21 -20t21 -24q-10 -12 -21 -23t-21 -20q-11 -10 -21 -18q-9 7 -18 16 q-9 8 -18.5 17.5t-18.5 20.5q-9 -11 -19 -21t-18 -17q-9 -9 -18 -16q-11 8 -22 18q-10 9 -20.5 20t-19.5 23q9 13 20 24.5t20 19.5q11 10 22 19q9 -7 18 -16l18.5 -18.5t18.5 -21.5q9 12 18.5 22t18.5 18q9 9 18 16zM632 376q4 -22 8.5 -48.5t8 -54.5t6 -54t2.5 -47 q0 -45 -16 -77.5t-38 -52.5q-8 -7 -17.5 -12.5t-20.5 -10.5q14 -19 14 -40q0 -23 -6 -56t-33 -68q-15 -18 -39.5 -37t-58.5 -35t-77 -26t-94 -10q-73 0 -120 21t-75 54t-39 73t-11 78t6 71.5t14 58.5q8 30 19 54h90q-11 -26 -20 -53q-9 -25 -15 -52.5t-6 -54.5 q0 -20 5.5 -44t23.5 -45t51.5 -35.5t88.5 -14.5q45 0 85.5 10t70.5 24.5t47.5 29t17.5 23.5q0 20 -33.5 37.5t-93.5 17.5h-1l20 111h50q68 0 93 10.5t25 22.5q0 29 -6.5 85t-19.5 129zM359 -295q10 -9 21 -19q10 -9 20.5 -20.5t20.5 -23.5q-10 -12 -21 -23.5t-20 -20.5 q-11 -10 -21 -19q-8 7 -17 15t-18 17t-18 20q-9 -11 -18.5 -20t-16.5 -17q-10 -8 -18 -15q-11 9 -21 19q-10 9 -20.5 20.5t-19.5 23.5q9 12 19.5 23.5t20.5 20.5q10 10 21 19q8 -7 18 -16q8 -7 17 -16t18 -20q9 11 18.5 20t17.5 16q9 9 17 16z" />
<glyph unicode="&#xfed3;&#xfef2;" horiz-adv-x="758" arabic-form="isolated" d="M560 522q-11 9 -22 19q-10 10 -20.5 21t-19.5 24q9 13 20 25t20 21q11 11 22 20q11 -9 22 -20q11 -10 22 -21.5t21 -24.5q-10 -13 -21.5 -24.5t-21.5 -20.5q-11 -10 -22 -19zM565 485q41 0 71 -25t49.5 -62.5t29 -80t9.5 -77.5q0 -31 -4.5 -61.5t-14.5 -57.5t-26.5 -48.5 t-40.5 -35.5q-13 -8 -28.5 -14.5t-35.5 -11.5q9 -15 9 -32q0 -23 -6 -56t-33 -68q-15 -18 -39.5 -37t-58.5 -35t-77 -26t-94 -10q-73 0 -120 21t-75 54t-39 73t-11 78t6 71.5t14 58.5q8 30 19 54h90q-11 -26 -20 -53q-9 -25 -15 -52.5t-6 -54.5q0 -20 5.5 -44t23.5 -45 t51.5 -35.5t88.5 -14.5q45 0 85.5 10t70.5 24.5t47.5 29t17.5 23.5q0 20 -33.5 37.5t-93.5 17.5h-1l20 111h64q124 0 160 25q10 7 15.5 21.5t7.5 29.5q-18 -9 -45.5 -17.5t-62.5 -8.5q-62 0 -101 30.5t-39 99.5q0 29 11.5 63t33.5 63t52.5 48.5t68.5 19.5zM461 289 q0 -11 8 -18t20.5 -11.5t27.5 -6.5t28 -2q29 0 54 4.5t44 9.5q-4 18 -12 37.5t-20.5 35t-29 26t-37.5 10.5q-19 0 -34.5 -9.5t-26.5 -23t-16.5 -28t-5.5 -24.5zM356 -295q10 -9 21 -19q10 -9 20.5 -20.5t20.5 -23.5q-10 -12 -21 -23.5t-20 -20.5q-11 -10 -21 -19 q-8 7 -17 15t-18 17t-18 20q-9 -11 -18.5 -20t-16.5 -17q-10 -8 -18 -15q-11 9 -21 19q-10 9 -20.5 20.5t-19.5 23.5q9 12 19.5 23.5t20.5 20.5q10 10 21 19q8 -7 18 -16q8 -7 17 -16t18 -20q9 11 18.5 20t17.5 16q9 9 17 16z" />
<glyph unicode="&#xfedb;&#xfef0;" horiz-adv-x="827" arabic-form="isolated" d="M529 413q65 -27 111.5 -58t77.5 -63t45.5 -63t14.5 -58q0 -36 -14 -69.5t-45 -56.5q-20 -14 -53.5 -24.5t-91.5 -15.5q6 -12 6 -26q0 -23 -6 -56t-33 -68q-15 -18 -39.5 -37t-58.5 -35t-77 -26t-94 -10q-73 0 -120 21t-75 54t-39 73t-11 78t6 71.5t14 58.5q8 30 19 54h90 q-11 -26 -20 -53q-9 -25 -15 -52.5t-6 -54.5q0 -20 5.5 -44t23.5 -45t51.5 -35.5t88.5 -14.5q45 0 85.5 10t70.5 24.5t47.5 29t17.5 23.5q0 20 -33.5 37.5t-93.5 17.5h-1l20 111h45q126 0 190.5 12.5t64.5 29.5q0 10 -11.5 31t-41.5 48t-82.5 58.5t-134.5 61.5v108l382 218 l8 -109z" />
<glyph unicode="&#xfedb;&#xfef2;" horiz-adv-x="827" arabic-form="isolated" d="M529 413q65 -27 111.5 -58t77.5 -63t45.5 -63t14.5 -58q0 -36 -14 -69.5t-45 -56.5q-20 -14 -53.5 -24.5t-91.5 -15.5q6 -12 6 -26q0 -23 -6 -56t-33 -68q-15 -18 -39.5 -37t-58.5 -35t-77 -26t-94 -10q-73 0 -120 21t-75 54t-39 73t-11 78t6 71.5t14 58.5q8 30 19 54h90 q-11 -26 -20 -53q-9 -25 -15 -52.5t-6 -54.5q0 -20 5.5 -44t23.5 -45t51.5 -35.5t88.5 -14.5q45 0 85.5 10t70.5 24.5t47.5 29t17.5 23.5q0 20 -33.5 37.5t-93.5 17.5h-1l20 111h45q126 0 190.5 12.5t64.5 29.5q0 10 -11.5 31t-41.5 48t-82.5 58.5t-134.5 61.5v108l382 218 l8 -109zM359 -295q10 -9 21 -19q10 -9 20.5 -20.5t20.5 -23.5q-10 -12 -21 -23.5t-20 -20.5q-11 -10 -21 -19q-8 7 -17 15t-18 17t-18 20q-9 -11 -18.5 -20t-16.5 -17q-10 -8 -18 -15q-11 9 -21 19q-10 9 -20.5 20.5t-19.5 23.5q9 12 19.5 23.5t20.5 20.5q10 10 21 19 q8 -7 18 -16q8 -7 17 -16t18 -20q9 11 18.5 20t17.5 16q9 9 17 16z" />
<glyph unicode="&#xfedf;&#xfef0;" horiz-adv-x="720" arabic-form="isolated" d="M663 686v-478q0 -71 -20.5 -110.5t-48.5 -60.5q-12 -10 -28 -17q17 -20 17 -41q0 -23 -6.5 -56t-33.5 -68q-15 -18 -40 -37t-59 -35t-77.5 -26t-94.5 -10q-73 0 -120 21t-75 54t-39 73t-11 78t6 71.5t14 58.5q8 30 19 54h90q-11 -26 -20 -53q-9 -25 -15 -52.5t-6 -54.5 q0 -20 5.5 -44t23.5 -45t51.5 -35.5t88.5 -14.5q45 0 85.5 10t70.5 24.5t47.5 29t17.5 23.5q0 20 -36 37.5t-95 17.5h-1l28 111h59q57 0 81 14.5t24 31.5v521z" />
<glyph unicode="&#xfedf;&#xfef2;" horiz-adv-x="720" arabic-form="isolated" d="M663 686v-478q0 -71 -20.5 -110.5t-48.5 -60.5q-12 -10 -28 -17q17 -20 17 -41q0 -23 -6.5 -56t-33.5 -68q-15 -18 -40 -37t-59 -35t-77.5 -26t-94.5 -10q-73 0 -120 21t-75 54t-39 73t-11 78t6 71.5t14 58.5q8 30 19 54h90q-11 -26 -20 -53q-9 -25 -15 -52.5t-6 -54.5 q0 -20 5.5 -44t23.5 -45t51.5 -35.5t88.5 -14.5q45 0 85.5 10t70.5 24.5t47.5 29t17.5 23.5q0 20 -36 37.5t-95 17.5h-1l28 111h59q57 0 81 14.5t24 31.5v521zM359 -295q10 -9 21 -19q10 -9 20.5 -20.5t20.5 -23.5q-10 -12 -21 -23.5t-20 -20.5q-11 -10 -21 -19q-8 7 -17 15 t-18 17t-18 20q-9 -11 -18.5 -20t-16.5 -17q-10 -8 -18 -15q-11 9 -21 19q-10 9 -20.5 20.5t-19.5 23.5q9 12 19.5 23.5t20.5 20.5q10 10 21 19q8 -7 18 -16q8 -7 17 -16t18 -20q9 11 18.5 20t17.5 16q9 9 17 16z" />
<glyph unicode="&#xfee7;&#xfef0;" horiz-adv-x="701" arabic-form="isolated" d="M581 407q-11 9 -23 20q-10 10 -21 21.5t-20 24.5q9 14 20.5 26t20.5 21q12 11 23 20q11 -9 23 -20q11 -10 22 -21.5t22 -25.5q-11 -13 -22.5 -25t-21.5 -21q-12 -11 -23 -20zM632 376q4 -22 8.5 -48.5t8 -54.5t6 -54t2.5 -47q0 -45 -16 -77.5t-38 -52.5 q-8 -7 -17.5 -12.5t-20.5 -10.5q14 -19 14 -40q0 -23 -6 -56t-33 -68q-15 -18 -39.5 -37t-58.5 -35t-77 -26t-94 -10q-73 0 -120 21t-75 54t-39 73t-11 78t6 71.5t14 58.5q8 30 19 54h90q-11 -26 -20 -53q-9 -25 -15 -52.5t-6 -54.5q0 -20 5.5 -44t23.5 -45t51.5 -35.5 t88.5 -14.5q45 0 85.5 10t70.5 24.5t47.5 29t17.5 23.5q0 20 -33.5 37.5t-93.5 17.5h-1l20 111h50q68 0 93 10.5t25 22.5q0 29 -6.5 85t-19.5 129z" />
<glyph unicode="&#xfee7;&#xfef2;" horiz-adv-x="701" arabic-form="isolated" d="M581 407q-11 9 -23 20q-10 10 -21 21.5t-20 24.5q9 14 20.5 26t20.5 21q12 11 23 20q11 -9 23 -20q11 -10 22 -21.5t22 -25.5q-11 -13 -22.5 -25t-21.5 -21q-12 -11 -23 -20zM632 376q4 -22 8.5 -48.5t8 -54.5t6 -54t2.5 -47q0 -45 -16 -77.5t-38 -52.5 q-8 -7 -17.5 -12.5t-20.5 -10.5q14 -19 14 -40q0 -23 -6 -56t-33 -68q-15 -18 -39.5 -37t-58.5 -35t-77 -26t-94 -10q-73 0 -120 21t-75 54t-39 73t-11 78t6 71.5t14 58.5q8 30 19 54h90q-11 -26 -20 -53q-9 -25 -15 -52.5t-6 -54.5q0 -20 5.5 -44t23.5 -45t51.5 -35.5 t88.5 -14.5q45 0 85.5 10t70.5 24.5t47.5 29t17.5 23.5q0 20 -33.5 37.5t-93.5 17.5h-1l20 111h50q68 0 93 10.5t25 22.5q0 29 -6.5 85t-19.5 129zM359 -295q10 -9 21 -19q10 -9 20.5 -20.5t20.5 -23.5q-10 -12 -21 -23.5t-20 -20.5q-11 -10 -21 -19q-8 7 -17 15t-18 17 t-18 20q-9 -11 -18.5 -20t-16.5 -17q-10 -8 -18 -15q-11 9 -21 19q-10 9 -20.5 20.5t-19.5 23.5q9 12 19.5 23.5t20.5 20.5q10 10 21 19q8 -7 18 -16q8 -7 17 -16t18 -20q9 11 18.5 20t17.5 16q9 9 17 16z" />
<glyph unicode="&#xfe8c;&#xfeae;" horiz-adv-x="580" arabic-form="final" d="M523 400q-23 -5 -69.5 -12t-102.5 -7v58q8 0 15.5 0.5t13.5 1.5q-5 6 -8.5 15.5t-3.5 20.5q0 15 6 30t17 27.5t25.5 20t31.5 7.5q15 0 28 -6.5t21 -15.5l-9 -56q-9 8 -18.5 12t-22.5 4q-20 0 -30.5 -10t-10.5 -16q0 -7 10 -16.5t34 -9.5q16 0 37.5 3.5t35.5 7.5v-59z M596 108v-105l-16 -3h-29q-78 1 -110.5 46.5t-37.5 125.5q0 4 -0.5 8t-0.5 9q-16 -26 -48 -35t-63 -9q-25 0 -39 8q0 -3 0.5 -5.5t0.5 -4.5q3 -24 2 -54.5t-7 -62.5q-6 -30 -20 -68.5t-40 -72.5t-65.5 -57.5t-95.5 -23.5q-16 0 -28.5 2.5t-21.5 5.5q-10 4 -18 9l-6 105 q2 -1 20.5 -6t47.5 -5q40 0 68 17t46 44t26 60t8 65q0 17 -15.5 66t-44.5 144l94 19l12 -35q13 -26 24.5 -34t42.5 -8q32 0 52.5 4t33.5 10.5t19.5 14t10.5 13.5v45l93 7l3 -133q1 -25 2 -44t6.5 -32t16.5 -20t32 -7h29z" />
<glyph unicode="&#xfe8c;&#xfee6;" horiz-adv-x="854" arabic-form="final" d="M802 387q-23 -5 -69.5 -12t-102.5 -7v58q8 0 15.5 0.5t13.5 1.5q-5 6 -8.5 15.5t-3.5 20.5q0 15 6 30t17 27.5t25.5 20t31.5 7.5q15 0 28 -6.5t21 -15.5l-9 -56q-9 8 -18.5 12t-22.5 4q-20 0 -30.5 -10t-10.5 -16q0 -7 10 -16.5t34 -9.5q16 0 37.5 3.5t35.5 7.5v-59z M271 253q-11 9 -23 20q-10 10 -21 21.5t-20 24.5q9 14 20.5 26t20.5 21q12 11 23 20q11 -9 23 -20q11 -10 22 -21.5t22 -25.5q-11 -13 -22.5 -25t-21.5 -21q-12 -11 -23 -20zM871 108v-105l-16 -3h-29q-78 1 -110.5 46.5t-37.5 124.5q-17 -25 -48.5 -34.5t-61.5 -9.5 q-17 0 -28 3.5t-19 10.5q9 -60 9 -105q0 -40 -13 -76.5t-44 -66.5q-29 -31 -85 -53t-128 -22q-73 0 -118.5 22.5t-71 56t-34.5 73.5t-9 76q0 38 6 71t14 58q8 28 19 52h90q-11 -25 -20 -51q-9 -24 -15 -51t-6 -55q0 -19 3.5 -43t18.5 -46t45.5 -37t84.5 -15q40 0 72 8.5 t55 19.5t35.5 23t12.5 19q0 11 -2 29t-5 40.5t-7.5 47t-8.5 48.5q-10 57 -23 122l97 14l3 -11q7 -27 18 -40t44 -13q30 0 50.5 3.5t33.5 9.5t20.5 12.5t11.5 12.5q-1 18 -1 31v17l93 8l3 -119q1 -25 2 -43.5t6.5 -31t16.5 -19t32 -6.5h29z" />
<glyph unicode="&#xfe8c;&#xfef0;" horiz-adv-x="733" arabic-form="final" d="M588 400q-23 -5 -69.5 -12t-102.5 -7v58q8 0 15.5 0.5t13.5 1.5q-5 6 -8.5 15.5t-3.5 20.5q0 15 6 30t17 27.5t25.5 20t31.5 7.5q15 0 28 -6.5t21 -15.5l-9 -56q-9 8 -18.5 12t-22.5 4q-20 0 -30.5 -10t-10.5 -16q0 -7 10 -16.5t34 -9.5q16 0 37.5 3.5t35.5 7.5v-59z M750 108v-105l-16 -3q-29 0 -50 6.5t-38 21.5t-32.5 40.5t-33.5 64.5q-20 41 -44 69t-68 28q-24 0 -47.5 -7t-42 -17t-30.5 -21.5t-12 -21.5q0 -8 11 -16t28.5 -15.5t38 -14.5t39.5 -13q72 -23 105 -51.5t33 -73.5q0 -10 -1.5 -24.5t-6 -31t-13 -34.5t-22.5 -34 q-15 -17 -40.5 -34.5t-60 -32.5t-78 -24.5t-93.5 -9.5q-73 0 -121 21t-76.5 54t-39.5 72.5t-11 77.5t6 71.5t14 59.5q8 30 19 55h90q-11 -26 -20 -54q-9 -26 -15 -53.5t-6 -55.5q0 -19 5.5 -43t23 -45t51 -35.5t88.5 -14.5q44 0 84.5 9.5t71.5 23t50 28t19 23.5 q0 14 -26 29.5t-71 30.5q-49 16 -79 28t-49 37q-17 22 -20 47t2 51q5 34 26.5 64t52.5 53t67 36.5t70 13.5q36 0 62.5 -11.5t46 -30.5t33 -43.5t25.5 -49.5q14 -31 23.5 -49t18 -27.5t18.5 -12.5t25 -3z" />
<glyph unicode="&#xfe8c;&#xfef2;" horiz-adv-x="733" arabic-form="final" d="M588 400q-23 -5 -69.5 -12t-102.5 -7v58q8 0 15.5 0.5t13.5 1.5q-5 6 -8.5 15.5t-3.5 20.5q0 15 6 30t17 27.5t25.5 20t31.5 7.5q15 0 28 -6.5t21 -15.5l-9 -56q-9 8 -18.5 12t-22.5 4q-20 0 -30.5 -10t-10.5 -16q0 -7 10 -16.5t34 -9.5q16 0 37.5 3.5t35.5 7.5v-59z M750 108v-105l-16 -3q-29 0 -50 6.5t-38 21.5t-32.5 40.5t-33.5 64.5q-20 41 -44 69t-68 28q-24 0 -47.5 -7t-42 -17t-30.5 -21.5t-12 -21.5q0 -8 11 -16t28.5 -15.5t38 -14.5t39.5 -13q72 -23 105 -51.5t33 -73.5q0 -10 -1.5 -24.5t-6 -31t-13 -34.5t-22.5 -34 q-15 -17 -40.5 -34.5t-60 -32.5t-78 -24.5t-93.5 -9.5q-73 0 -121 21t-76.5 54t-39.5 72.5t-11 77.5t6 71.5t14 59.5q8 30 19 55h90q-11 -26 -20 -54q-9 -26 -15 -53.5t-6 -55.5q0 -19 5.5 -43t23 -45t51 -35.5t88.5 -14.5q44 0 84.5 9.5t71.5 23t50 28t19 23.5 q0 14 -26 29.5t-71 30.5q-49 16 -79 28t-49 37q-17 22 -20 47t2 51q5 34 26.5 64t52.5 53t67 36.5t70 13.5q36 0 62.5 -11.5t46 -30.5t33 -43.5t25.5 -49.5q14 -31 23.5 -49t18 -27.5t18.5 -12.5t25 -3zM366 -287q10 -9 21 -19q10 -9 20.5 -20.5t20.5 -23.5 q-10 -12 -21 -23.5t-20 -20.5q-11 -10 -21 -19q-8 7 -17 15t-18 17t-18 20q-9 -11 -18.5 -20t-16.5 -17q-10 -8 -18 -15q-11 9 -21 19q-10 9 -20.5 20.5t-19.5 23.5q9 12 19.5 23.5t20.5 20.5q10 10 21 19q8 -7 18 -16q8 -7 17 -16t18 -20q9 11 18.5 20t17.5 16q9 9 17 16z " />
<glyph unicode="&#xfe92;&#xfeae;" horiz-adv-x="580" arabic-form="final" d="M596 108v-105l-16 -3h-29q-78 1 -110.5 46.5t-37.5 125.5q0 4 -0.5 8t-0.5 9q-16 -26 -48 -35t-63 -9q-25 0 -39 8q0 -3 0.5 -5.5t0.5 -4.5q3 -24 2 -54.5t-7 -62.5q-6 -30 -20 -68.5t-40 -72.5t-65.5 -57.5t-95.5 -23.5q-16 0 -28.5 2.5t-21.5 5.5q-10 4 -18 9l-6 105 q2 -1 20.5 -6t47.5 -5q40 0 68 17t46 44t26 60t8 65q0 17 -15.5 66t-44.5 144l94 19l12 -35q13 -26 24.5 -34t42.5 -8q32 0 52.5 4t33.5 10.5t19.5 14t10.5 13.5v45l93 7l3 -133q1 -25 2 -44t6.5 -32t16.5 -20t32 -7h29zM442 -20q11 -9 23 -20q11 -10 22 -21.5t22 -25.5 q-11 -13 -22.5 -25t-21.5 -21q-12 -11 -23 -20q-11 9 -23 20q-10 10 -21 21.5t-20 24.5q9 14 20.5 26t20.5 21q12 11 23 20z" />
<glyph unicode="&#xfe92;&#xfee6;" horiz-adv-x="854" arabic-form="final" d="M271 253q-11 9 -23 20q-10 10 -21 21.5t-20 24.5q9 14 20.5 26t20.5 21q12 11 23 20q11 -9 23 -20q11 -10 22 -21.5t22 -25.5q-11 -13 -22.5 -25t-21.5 -21q-12 -11 -23 -20zM871 108v-105l-16 -3h-29q-78 1 -110.5 46.5t-37.5 124.5q-17 -25 -48.5 -34.5t-61.5 -9.5 q-17 0 -28 3.5t-19 10.5q9 -60 9 -105q0 -40 -13 -76.5t-44 -66.5q-29 -31 -85 -53t-128 -22q-73 0 -118.5 22.5t-71 56t-34.5 73.5t-9 76q0 38 6 71t14 58q8 28 19 52h90q-11 -25 -20 -51q-9 -24 -15 -51t-6 -55q0 -19 3.5 -43t18.5 -46t45.5 -37t84.5 -15q40 0 72 8.5 t55 19.5t35.5 23t12.5 19q0 11 -2 29t-5 40.5t-7.5 47t-8.5 48.5q-10 57 -23 122l97 14l3 -11q7 -27 18 -40t44 -13q30 0 50.5 3.5t33.5 9.5t20.5 12.5t11.5 12.5q-1 18 -1 31v17l93 8l3 -119q1 -25 2 -43.5t6.5 -31t16.5 -19t32 -6.5h29zM691 -7q11 -9 23 -20 q11 -10 22 -21.5t22 -25.5q-11 -13 -22.5 -25t-21.5 -21q-12 -11 -23 -20q-11 9 -23 20q-10 10 -21 21.5t-20 24.5q9 14 20.5 26t20.5 21q12 11 23 20z" />
<glyph unicode="&#xfe92;&#xfef0;" horiz-adv-x="733" arabic-form="final" d="M580 133q-20 41 -44 69t-68 28q-24 0 -47.5 -7t-42 -17t-30.5 -21.5t-12 -21.5q0 -8 11 -16t28.5 -15.5t38 -14.5t39.5 -13q72 -23 105 -51.5t33 -73.5q0 -10 -1.5 -24.5t-6 -31t-13 -34.5t-22.5 -34q-15 -17 -40.5 -34.5t-60 -32.5t-78 -24.5t-93.5 -9.5q-73 0 -121 21 t-76.5 54t-39.5 72.5t-11 77.5t6 71.5t14 59.5q8 30 19 55h90q-11 -26 -20 -54q-9 -26 -15 -53.5t-6 -55.5q0 -19 5.5 -43t23 -45t51 -35.5t88.5 -14.5q44 0 84.5 9.5t71.5 23t50 28t19 23.5q0 14 -26 29.5t-71 30.5q-49 16 -79 28t-49 37q-17 22 -20 47t2 51q5 34 26.5 64 t52.5 53t67 36.5t70 13.5q36 0 62.5 -11.5t46 -30.5t33 -43.5t25.5 -49.5q14 -31 23.5 -49t18 -27.5t18.5 -12.5t25 -3l16 -3v-105l-16 -3q-29 0 -50 6.5t-38 21.5t-32.5 40.5t-33.5 64.5zM600 -124q9 14 20.5 26t20.5 21q12 11 23 20q11 -9 23 -20q11 -10 22 -21.5 t22 -25.5q-11 -13 -22.5 -25t-21.5 -21q-12 -11 -23 -20q-11 9 -23 20q-10 10 -21 21.5t-20 24.5z" />
<glyph unicode="&#xfe92;&#xfef2;" horiz-adv-x="733" arabic-form="final" d="M750 108v-105l-16 -3q-29 0 -50 6.5t-38 21.5t-32.5 40.5t-33.5 64.5q-20 41 -44 69t-68 28q-24 0 -47.5 -7t-42 -17t-30.5 -21.5t-12 -21.5q0 -8 11 -16t28.5 -15.5t38 -14.5t39.5 -13q72 -23 105 -51.5t33 -73.5q0 -10 -1.5 -24.5t-6 -31t-13 -34.5t-22.5 -34 q-15 -17 -40.5 -34.5t-60 -32.5t-78 -24.5t-93.5 -9.5q-73 0 -121 21t-76.5 54t-39.5 72.5t-11 77.5t6 71.5t14 59.5q8 30 19 55h90q-11 -26 -20 -54q-9 -26 -15 -53.5t-6 -55.5q0 -19 5.5 -43t23 -45t51 -35.5t88.5 -14.5q44 0 84.5 9.5t71.5 23t50 28t19 23.5 q0 14 -26 29.5t-71 30.5q-49 16 -79 28t-49 37q-17 22 -20 47t2 51q5 34 26.5 64t52.5 53t67 36.5t70 13.5q36 0 62.5 -11.5t46 -30.5t33 -43.5t25.5 -49.5q14 -31 23.5 -49t18 -27.5t18.5 -12.5t25 -3zM664 -57q11 -9 23 -20q11 -10 22 -21.5t22 -25.5q-11 -13 -22.5 -25 t-21.5 -21q-12 -11 -23 -20q-11 9 -23 20q-10 10 -21 21.5t-20 24.5q9 14 20.5 26t20.5 21q12 11 23 20zM366 -287q10 -9 21 -19q10 -9 20.5 -20.5t20.5 -23.5q-10 -12 -21 -23.5t-20 -20.5q-11 -10 -21 -19q-8 7 -17 15t-18 17t-18 20q-9 -11 -18.5 -20t-16.5 -17 q-10 -8 -18 -15q-11 9 -21 19q-10 9 -20.5 20.5t-19.5 23.5q9 12 19.5 23.5t20.5 20.5q10 10 21 19q8 -7 18 -16q8 -7 17 -16t18 -20q9 11 18.5 20t17.5 16q9 9 17 16z" />
<glyph unicode="&#xfe98;&#xfeae;" horiz-adv-x="580" arabic-form="final" d="M390 395q-11 9 -22 20q-10 9 -21 20.5t-20 24.5q9 13 20 24.5t21 20.5q11 11 22 20q9 -7 18 -16l17.5 -17.5t18.5 -20.5q9 11 19 20.5t18 17.5q9 9 18 16q11 -9 22 -20q10 -9 20.5 -20.5t20.5 -24.5q-10 -13 -21 -24.5t-20 -20.5q-11 -11 -22 -20q-9 7 -18 16 q-9 8 -18.5 17.5t-18.5 20.5q-9 -11 -18.5 -20.5l-17.5 -17.5q-9 -9 -18 -16zM596 108v-105l-16 -3h-29q-78 1 -110.5 46.5t-37.5 125.5q0 4 -0.5 8t-0.5 9q-16 -26 -48 -35t-63 -9q-25 0 -39 8q0 -3 0.5 -5.5t0.5 -4.5q3 -24 2 -54.5t-7 -62.5q-6 -30 -20 -68.5t-40 -72.5 t-65.5 -57.5t-95.5 -23.5q-16 0 -28.5 2.5t-21.5 5.5q-10 4 -18 9l-6 105q2 -1 20.5 -6t47.5 -5q40 0 68 17t46 44t26 60t8 65q0 17 -15.5 66t-44.5 144l94 19l12 -35q13 -26 24.5 -34t42.5 -8q32 0 52.5 4t33.5 10.5t19.5 14t10.5 13.5v45l93 7l3 -133q1 -25 2 -44t6.5 -32 t16.5 -20t32 -7h29z" />
<glyph unicode="&#xfe98;&#xfee6;" horiz-adv-x="854" arabic-form="final" d="M663 384q-11 9 -22 20q-10 9 -21 20.5t-20 24.5q9 13 20 24.5t21 20.5q11 11 22 20q9 -7 18 -16l17.5 -17.5t18.5 -20.5q9 11 19 20.5t18 17.5q9 9 18 16q11 -9 22 -20q10 -9 20.5 -20.5t20.5 -24.5q-10 -13 -21 -24.5t-20 -20.5q-11 -11 -22 -20q-9 7 -18 16 q-9 8 -18.5 17.5t-18.5 20.5q-9 -11 -18.5 -20.5l-17.5 -17.5q-9 -9 -18 -16zM271 253q-11 9 -23 20q-10 10 -21 21.5t-20 24.5q9 14 20.5 26t20.5 21q12 11 23 20q11 -9 23 -20q11 -10 22 -21.5t22 -25.5q-11 -13 -22.5 -25t-21.5 -21q-12 -11 -23 -20zM871 108v-105 l-16 -3h-29q-78 1 -110.5 46.5t-37.5 124.5q-17 -25 -48.5 -34.5t-61.5 -9.5q-17 0 -28 3.5t-19 10.5q9 -60 9 -105q0 -40 -13 -76.5t-44 -66.5q-29 -31 -85 -53t-128 -22q-73 0 -118.5 22.5t-71 56t-34.5 73.5t-9 76q0 38 6 71t14 58q8 28 19 52h90q-11 -25 -20 -51 q-9 -24 -15 -51t-6 -55q0 -19 3.5 -43t18.5 -46t45.5 -37t84.5 -15q40 0 72 8.5t55 19.5t35.5 23t12.5 19q0 11 -2 29t-5 40.5t-7.5 47t-8.5 48.5q-10 57 -23 122l97 14l3 -11q7 -27 18 -40t44 -13q30 0 50.5 3.5t33.5 9.5t20.5 12.5t11.5 12.5q-1 18 -1 31v17l93 8l3 -119 q1 -25 2 -43.5t6.5 -31t16.5 -19t32 -6.5h29z" />
<glyph unicode="&#xfe98;&#xfef0;" horiz-adv-x="733" arabic-form="final" d="M453 381q-11 9 -21 19q-10 9 -20.5 20.5t-19.5 23.5q9 12 19.5 23.5t20.5 20.5q10 10 21 19q8 -7 18 -15l17 -17t18 -20q9 11 18.5 20t17.5 17q9 8 17 15q10 -9 21 -19q10 -9 20.5 -20.5t20.5 -23.5q-10 -12 -21 -23.5t-20 -20.5q-11 -10 -21 -19q-8 7 -17 16 q-9 7 -18 16t-18 20q-9 -11 -18.5 -20t-16.5 -16q-10 -9 -18 -16zM750 108v-105l-16 -3q-29 0 -50 6.5t-38 21.5t-32.5 40.5t-33.5 64.5q-20 41 -44 69t-68 28q-24 0 -47.5 -7t-42 -17t-30.5 -21.5t-12 -21.5q0 -8 11 -16t28.5 -15.5t38 -14.5t39.5 -13q72 -23 105 -51.5 t33 -73.5q0 -10 -1.5 -24.5t-6 -31t-13 -34.5t-22.5 -34q-15 -17 -40.5 -34.5t-60 -32.5t-78 -24.5t-93.5 -9.5q-73 0 -121 21t-76.5 54t-39.5 72.5t-11 77.5t6 71.5t14 59.5q8 30 19 55h90q-11 -26 -20 -54q-9 -26 -15 -53.5t-6 -55.5q0 -19 5.5 -43t23 -45t51 -35.5 t88.5 -14.5q44 0 84.5 9.5t71.5 23t50 28t19 23.5q0 14 -26 29.5t-71 30.5q-49 16 -79 28t-49 37q-17 22 -20 47t2 51q5 34 26.5 64t52.5 53t67 36.5t70 13.5q36 0 62.5 -11.5t46 -30.5t33 -43.5t25.5 -49.5q14 -31 23.5 -49t18 -27.5t18.5 -12.5t25 -3z" />
<glyph unicode="&#xfe98;&#xfef2;" horiz-adv-x="733" arabic-form="final" d="M453 381q-11 9 -21 19q-10 9 -20.5 20.5t-19.5 23.5q9 12 19.5 23.5t20.5 20.5q10 10 21 19q8 -7 18 -15l17 -17t18 -20q9 11 18.5 20t17.5 17q9 8 17 15q10 -9 21 -19q10 -9 20.5 -20.5t20.5 -23.5q-10 -12 -21 -23.5t-20 -20.5q-11 -10 -21 -19q-8 7 -17 16 q-9 7 -18 16t-18 20q-9 -11 -18.5 -20t-16.5 -16q-10 -9 -18 -16zM750 108v-105l-16 -3q-29 0 -50 6.5t-38 21.5t-32.5 40.5t-33.5 64.5q-20 41 -44 69t-68 28q-24 0 -47.5 -7t-42 -17t-30.5 -21.5t-12 -21.5q0 -8 11 -16t28.5 -15.5t38 -14.5t39.5 -13q72 -23 105 -51.5 t33 -73.5q0 -10 -1.5 -24.5t-6 -31t-13 -34.5t-22.5 -34q-15 -17 -40.5 -34.5t-60 -32.5t-78 -24.5t-93.5 -9.5q-73 0 -121 21t-76.5 54t-39.5 72.5t-11 77.5t6 71.5t14 59.5q8 30 19 55h90q-11 -26 -20 -54q-9 -26 -15 -53.5t-6 -55.5q0 -19 5.5 -43t23 -45t51 -35.5 t88.5 -14.5q44 0 84.5 9.5t71.5 23t50 28t19 23.5q0 14 -26 29.5t-71 30.5q-49 16 -79 28t-49 37q-17 22 -20 47t2 51q5 34 26.5 64t52.5 53t67 36.5t70 13.5q36 0 62.5 -11.5t46 -30.5t33 -43.5t25.5 -49.5q14 -31 23.5 -49t18 -27.5t18.5 -12.5t25 -3zM366 -287 q10 -9 21 -19q10 -9 20.5 -20.5t20.5 -23.5q-10 -12 -21 -23.5t-20 -20.5q-11 -10 -21 -19q-8 7 -17 15t-18 17t-18 20q-9 -11 -18.5 -20t-16.5 -17q-10 -8 -18 -15q-11 9 -21 19q-10 9 -20.5 20.5t-19.5 23.5q9 12 19.5 23.5t20.5 20.5q10 10 21 19q8 -7 18 -16 q8 -7 17 -16t18 -20q9 11 18.5 20t17.5 16q9 9 17 16z" />
<glyph unicode="&#xfe9c;&#xfeae;" horiz-adv-x="580" arabic-form="final" d="M444 502q-11 9 -21 19q-10 9 -20.5 20t-19.5 23q9 13 19.5 24.5t20.5 20.5q10 10 21 19q10 -9 21 -19q10 -9 20.5 -20.5t20.5 -24.5q-10 -12 -21 -23l-20 -20q-11 -10 -21 -19zM388 388q-11 9 -22 19q-10 9 -21 20t-20 24q9 13 20 25t21 21q11 10 22 19q9 -8 19 -17 q9 -8 18.5 -18.5t19.5 -22.5q9 12 19 22.5t19 18.5q10 9 19 17q11 -9 22 -19q10 -10 21 -21.5t21 -24.5q-10 -13 -21.5 -24.5t-20.5 -19.5q-11 -10 -22 -19q-9 7 -19 16q-9 9 -19 18.5t-19 21.5q-10 -12 -20 -22l-18 -18q-10 -9 -19 -16zM596 108v-105l-16 -3h-29 q-78 1 -110.5 46.5t-37.5 125.5q0 4 -0.5 8t-0.5 9q-16 -26 -48 -35t-63 -9q-25 0 -39 8q0 -3 0.5 -5.5t0.5 -4.5q3 -24 2 -54.5t-7 -62.5q-6 -30 -20 -68.5t-40 -72.5t-65.5 -57.5t-95.5 -23.5q-16 0 -28.5 2.5t-21.5 5.5q-10 4 -18 9l-6 105q2 -1 20.5 -6t47.5 -5 q40 0 68 17t46 44t26 60t8 65q0 17 -15.5 66t-44.5 144l94 19l12 -35q13 -26 24.5 -34t42.5 -8q32 0 52.5 4t33.5 10.5t19.5 14t10.5 13.5v45l93 7l3 -133q1 -25 2 -44t6.5 -32t16.5 -20t32 -7h29z" />
<glyph unicode="&#xfe9c;&#xfee6;" horiz-adv-x="854" arabic-form="final" d="M718 483q-11 9 -21 19q-10 9 -20.5 20t-19.5 23q9 13 19.5 24.5t20.5 20.5q10 10 21 19q10 -9 21 -19q10 -9 20.5 -20.5t20.5 -24.5q-10 -12 -21 -23l-20 -20q-11 -10 -21 -19zM662 369q-11 9 -22 19q-10 9 -21 20t-20 24q9 13 20 25t21 21q11 10 22 19q9 -8 19 -17 q9 -8 18.5 -18.5t19.5 -22.5q9 12 19 22.5t19 18.5q10 9 19 17q11 -9 22 -19q10 -10 21 -21.5t21 -24.5q-10 -13 -21.5 -24.5t-20.5 -19.5q-11 -10 -22 -19q-9 7 -19 16q-9 9 -19 18.5t-19 21.5q-10 -12 -20 -22l-18 -18q-10 -9 -19 -16zM271 253q-11 9 -23 20 q-10 10 -21 21.5t-20 24.5q9 14 20.5 26t20.5 21q12 11 23 20q11 -9 23 -20q11 -10 22 -21.5t22 -25.5q-11 -13 -22.5 -25t-21.5 -21q-12 -11 -23 -20zM871 108v-105l-16 -3h-29q-78 1 -110.5 46.5t-37.5 124.5q-17 -25 -48.5 -34.5t-61.5 -9.5q-17 0 -28 3.5t-19 10.5 q9 -60 9 -105q0 -40 -13 -76.5t-44 -66.5q-29 -31 -85 -53t-128 -22q-73 0 -118.5 22.5t-71 56t-34.5 73.5t-9 76q0 38 6 71t14 58q8 28 19 52h90q-11 -25 -20 -51q-9 -24 -15 -51t-6 -55q0 -19 3.5 -43t18.5 -46t45.5 -37t84.5 -15q40 0 72 8.5t55 19.5t35.5 23t12.5 19 q0 11 -2 29t-5 40.5t-7.5 47t-8.5 48.5q-10 57 -23 122l97 14l3 -11q7 -27 18 -40t44 -13q30 0 50.5 3.5t33.5 9.5t20.5 12.5t11.5 12.5q-1 18 -1 31v17l93 8l3 -119q1 -25 2 -43.5t6.5 -31t16.5 -19t32 -6.5h29z" />
<glyph unicode="&#xfe9c;&#xfef0;" horiz-adv-x="733" arabic-form="final" d="M502 481q-10 9 -21 18q-9 9 -19 19.5t-19 22.5q9 13 19 24t19 20q11 10 21 18q10 -8 21 -18q9 -9 19.5 -20t19.5 -24q-9 -12 -19.5 -22.5l-19.5 -19.5q-11 -9 -21 -18zM448 370q-11 8 -22 18q-10 9 -20.5 20t-19.5 23q9 13 20 24.5t20 19.5q11 10 22 19q9 -7 18 -16 l18.5 -18.5t18.5 -21.5q9 12 18.5 22t18.5 18q9 9 18 16q10 -9 21 -19q10 -9 21 -20t21 -24q-10 -12 -21 -23t-21 -20q-11 -10 -21 -18q-9 7 -18 16q-9 8 -18.5 17.5t-18.5 20.5q-9 -11 -19 -21t-18 -17q-9 -9 -18 -16zM750 108v-105l-16 -3q-29 0 -50 6.5t-38 21.5 t-32.5 40.5t-33.5 64.5q-20 41 -44 69t-68 28q-24 0 -47.5 -7t-42 -17t-30.5 -21.5t-12 -21.5q0 -8 11 -16t28.5 -15.5t38 -14.5t39.5 -13q72 -23 105 -51.5t33 -73.5q0 -10 -1.5 -24.5t-6 -31t-13 -34.5t-22.5 -34q-15 -17 -40.5 -34.5t-60 -32.5t-78 -24.5t-93.5 -9.5 q-73 0 -121 21t-76.5 54t-39.5 72.5t-11 77.5t6 71.5t14 59.5q8 30 19 55h90q-11 -26 -20 -54q-9 -26 -15 -53.5t-6 -55.5q0 -19 5.5 -43t23 -45t51 -35.5t88.5 -14.5q44 0 84.5 9.5t71.5 23t50 28t19 23.5q0 14 -26 29.5t-71 30.5q-49 16 -79 28t-49 37q-17 22 -20 47t2 51 q5 34 26.5 64t52.5 53t67 36.5t70 13.5q36 0 62.5 -11.5t46 -30.5t33 -43.5t25.5 -49.5q14 -31 23.5 -49t18 -27.5t18.5 -12.5t25 -3z" />
<glyph unicode="&#xfe9c;&#xfef2;" horiz-adv-x="733" arabic-form="final" d="M502 481q-10 9 -21 18q-9 9 -19 19.5t-19 22.5q9 13 19 24t19 20q11 10 21 18q10 -8 21 -18q9 -9 19.5 -20t19.5 -24q-9 -12 -19.5 -22.5l-19.5 -19.5q-11 -9 -21 -18zM448 370q-11 8 -22 18q-10 9 -20.5 20t-19.5 23q9 13 20 24.5t20 19.5q11 10 22 19q9 -7 18 -16 l18.5 -18.5t18.5 -21.5q9 12 18.5 22t18.5 18q9 9 18 16q10 -9 21 -19q10 -9 21 -20t21 -24q-10 -12 -21 -23t-21 -20q-11 -10 -21 -18q-9 7 -18 16q-9 8 -18.5 17.5t-18.5 20.5q-9 -11 -19 -21t-18 -17q-9 -9 -18 -16zM750 108v-105l-16 -3q-29 0 -50 6.5t-38 21.5 t-32.5 40.5t-33.5 64.5q-20 41 -44 69t-68 28q-24 0 -47.5 -7t-42 -17t-30.5 -21.5t-12 -21.5q0 -8 11 -16t28.5 -15.5t38 -14.5t39.5 -13q72 -23 105 -51.5t33 -73.5q0 -10 -1.5 -24.5t-6 -31t-13 -34.5t-22.5 -34q-15 -17 -40.5 -34.5t-60 -32.5t-78 -24.5t-93.5 -9.5 q-73 0 -121 21t-76.5 54t-39.5 72.5t-11 77.5t6 71.5t14 59.5q8 30 19 55h90q-11 -26 -20 -54q-9 -26 -15 -53.5t-6 -55.5q0 -19 5.5 -43t23 -45t51 -35.5t88.5 -14.5q44 0 84.5 9.5t71.5 23t50 28t19 23.5q0 14 -26 29.5t-71 30.5q-49 16 -79 28t-49 37q-17 22 -20 47t2 51 q5 34 26.5 64t52.5 53t67 36.5t70 13.5q36 0 62.5 -11.5t46 -30.5t33 -43.5t25.5 -49.5q14 -31 23.5 -49t18 -27.5t18.5 -12.5t25 -3zM366 -287q10 -9 21 -19q10 -9 20.5 -20.5t20.5 -23.5q-10 -12 -21 -23.5t-20 -20.5q-11 -10 -21 -19q-8 7 -17 15t-18 17t-18 20 q-9 -11 -18.5 -20t-16.5 -17q-10 -8 -18 -15q-11 9 -21 19q-10 9 -20.5 20.5t-19.5 23.5q9 12 19.5 23.5t20.5 20.5q10 10 21 19q8 -7 18 -16q8 -7 17 -16t18 -20q9 11 18.5 20t17.5 16q9 9 17 16z" />
<glyph unicode="&#xfedc;&#xfef0;" horiz-adv-x="887" arabic-form="final" d="M903 108v-105l-16 -3q-41 0 -72 6t-56 18.5t-45 32.5t-39 48q-8 -20 -22.5 -39.5t-35.5 -31.5q-19 -11 -48 -19q11 -17 11 -36q0 -23 -6 -56t-33 -68q-15 -18 -39.5 -37t-58.5 -35t-77 -26t-94 -10q-73 0 -120 21t-75 54t-39 73t-11 78t6 71.5t14 58.5q8 30 19 54h90 q-11 -26 -20 -53q-9 -25 -15 -52.5t-6 -54.5q0 -20 5.5 -44t23.5 -45t51.5 -35.5t88.5 -14.5q45 0 85.5 10t70.5 24.5t47.5 29t17.5 23.5q0 20 -33.5 37.5t-93.5 17.5h-1l20 111h31q39 0 72 3.5t57.5 9t38.5 12t14 13.5q0 5 -10 25.5t-34 58.5q-13 20 -28.5 41.5t-29 40 t-24 32.5t-12.5 18t0 21.5t6.5 37.5t10.5 36.5t11 18.5l331 201l9 -109l-275 -161q19 -24 41.5 -55.5t45.5 -63.5q33 -46 57 -80t49 -56.5t55 -33t74 -10.5z" />
<glyph unicode="&#xfedc;&#xfef2;" horiz-adv-x="887" arabic-form="final" d="M903 108v-105l-16 -3q-41 0 -72 6t-56 18.5t-45 32.5t-39 48q-8 -20 -22.5 -39.5t-35.5 -31.5q-19 -11 -48 -19q11 -17 11 -36q0 -23 -6 -56t-33 -68q-15 -18 -39.5 -37t-58.5 -35t-77 -26t-94 -10q-73 0 -120 21t-75 54t-39 73t-11 78t6 71.5t14 58.5q8 30 19 54h90 q-11 -26 -20 -53q-9 -25 -15 -52.5t-6 -54.5q0 -20 5.5 -44t23.5 -45t51.5 -35.5t88.5 -14.5q45 0 85.5 10t70.5 24.5t47.5 29t17.5 23.5q0 20 -33.5 37.5t-93.5 17.5h-1l20 111h31q39 0 72 3.5t57.5 9t38.5 12t14 13.5q0 5 -10 25.5t-34 58.5q-13 20 -28.5 41.5t-29 40 t-24 32.5t-12.5 18t0 21.5t6.5 37.5t10.5 36.5t11 18.5l331 201l9 -109l-275 -161q19 -24 41.5 -55.5t45.5 -63.5q33 -46 57 -80t49 -56.5t55 -33t74 -10.5zM359 -295q10 -9 21 -19q10 -9 20.5 -20.5t20.5 -23.5q-10 -12 -21 -23.5t-20 -20.5q-11 -10 -21 -19q-8 7 -17 15 t-18 17t-18 20q-9 -11 -18.5 -20t-16.5 -17q-10 -8 -18 -15q-11 9 -21 19q-10 9 -20.5 20.5t-19.5 23.5q9 12 19.5 23.5t20.5 20.5q10 10 21 19q8 -7 18 -16q8 -7 17 -16t18 -20q9 11 18.5 20t17.5 16q9 9 17 16z" />
<glyph unicode="&#xfee0;&#xfef0;" horiz-adv-x="766" arabic-form="final" d="M782 108v-105l-16 -3q-54 0 -85.5 19.5t-49.5 57.5q-8 -13 -17.5 -22.5t-19.5 -17.5q-12 -10 -28 -17q17 -20 17 -41q0 -23 -6.5 -56t-33.5 -68q-15 -18 -40 -37t-59 -35t-77.5 -26t-94.5 -10q-73 0 -120 21t-75 54t-39 73t-11 78t6 71.5t14 58.5q8 30 19 54h90 q-11 -26 -20 -53q-9 -25 -15 -52.5t-6 -54.5q0 -20 5.5 -44t23.5 -45t51.5 -35.5t88.5 -14.5q45 0 85.5 10t70.5 24.5t47.5 29t17.5 23.5q0 20 -36 37.5t-95 17.5h-1l28 111h59q57 0 81 14.5t24 31.5v521l98 8v-444q0 -29 2 -53t12 -41.5t31 -27t58 -9.5z" />
<glyph unicode="&#xfee0;&#xfef2;" horiz-adv-x="766" arabic-form="final" d="M782 108v-105l-16 -3q-54 0 -85.5 19.5t-49.5 57.5q-8 -13 -17.5 -22.5t-19.5 -17.5q-12 -10 -28 -17q17 -20 17 -41q0 -23 -6.5 -56t-33.5 -68q-15 -18 -40 -37t-59 -35t-77.5 -26t-94.5 -10q-73 0 -120 21t-75 54t-39 73t-11 78t6 71.5t14 58.5q8 30 19 54h90 q-11 -26 -20 -53q-9 -25 -15 -52.5t-6 -54.5q0 -20 5.5 -44t23.5 -45t51.5 -35.5t88.5 -14.5q45 0 85.5 10t70.5 24.5t47.5 29t17.5 23.5q0 20 -36 37.5t-95 17.5h-1l28 111h59q57 0 81 14.5t24 31.5v521l98 8v-444q0 -29 2 -53t12 -41.5t31 -27t58 -9.5zM359 -295 q10 -9 21 -19q10 -9 20.5 -20.5t20.5 -23.5q-10 -12 -21 -23.5t-20 -20.5q-11 -10 -21 -19q-8 7 -17 15t-18 17t-18 20q-9 -11 -18.5 -20t-16.5 -17q-10 -8 -18 -15q-11 9 -21 19q-10 9 -20.5 20.5t-19.5 23.5q9 12 19.5 23.5t20.5 20.5q10 10 21 19q8 -7 18 -16 q8 -7 17 -16t18 -20q9 11 18.5 20t17.5 16q9 9 17 16z" />
<glyph unicode="&#xfee8;&#xfeae;" horiz-adv-x="580" arabic-form="final" d="M445 388q-11 9 -23 20q-10 10 -21 21.5t-20 24.5q9 14 20.5 26t20.5 21q12 11 23 20q11 -9 23 -20q11 -10 22 -21.5t22 -25.5q-11 -13 -22.5 -25t-21.5 -21q-12 -11 -23 -20zM596 108v-105l-16 -3h-29q-78 1 -110.5 46.5t-37.5 125.5q0 4 -0.5 8t-0.5 9q-16 -26 -48 -35 t-63 -9q-25 0 -39 8q0 -3 0.5 -5.5t0.5 -4.5q3 -24 2 -54.5t-7 -62.5q-6 -30 -20 -68.5t-40 -72.5t-65.5 -57.5t-95.5 -23.5q-16 0 -28.5 2.5t-21.5 5.5q-10 4 -18 9l-6 105q2 -1 20.5 -6t47.5 -5q40 0 68 17t46 44t26 60t8 65q0 17 -15.5 66t-44.5 144l94 19l12 -35 q13 -26 24.5 -34t42.5 -8q32 0 52.5 4t33.5 10.5t19.5 14t10.5 13.5v45l93 7l3 -133q1 -25 2 -44t6.5 -32t16.5 -20t32 -7h29z" />
<glyph unicode="&#xfee8;&#xfee6;" horiz-adv-x="854" arabic-form="final" d="M722 373q-11 9 -23 20q-10 10 -21 21.5t-20 24.5q9 14 20.5 26t20.5 21q12 11 23 20q11 -9 23 -20q11 -10 22 -21.5t22 -25.5q-11 -13 -22.5 -25t-21.5 -21q-12 -11 -23 -20zM271 253q-11 9 -23 20q-10 10 -21 21.5t-20 24.5q9 14 20.5 26t20.5 21q12 11 23 20 q11 -9 23 -20q11 -10 22 -21.5t22 -25.5q-11 -13 -22.5 -25t-21.5 -21q-12 -11 -23 -20zM871 108v-105l-16 -3h-29q-78 1 -110.5 46.5t-37.5 124.5q-17 -25 -48.5 -34.5t-61.5 -9.5q-17 0 -28 3.5t-19 10.5q9 -60 9 -105q0 -40 -13 -76.5t-44 -66.5q-29 -31 -85 -53 t-128 -22q-73 0 -118.5 22.5t-71 56t-34.5 73.5t-9 76q0 38 6 71t14 58q8 28 19 52h90q-11 -25 -20 -51q-9 -24 -15 -51t-6 -55q0 -19 3.5 -43t18.5 -46t45.5 -37t84.5 -15q40 0 72 8.5t55 19.5t35.5 23t12.5 19q0 11 -2 29t-5 40.5t-7.5 47t-8.5 48.5q-10 57 -23 122l97 14 l3 -11q7 -27 18 -40t44 -13q30 0 50.5 3.5t33.5 9.5t20.5 12.5t11.5 12.5q-1 18 -1 31v17l93 8l3 -119q1 -25 2 -43.5t6.5 -31t16.5 -19t32 -6.5h29z" />
<glyph unicode="&#xfee8;&#xfef0;" horiz-adv-x="733" arabic-form="final" d="M435 441q9 14 20.5 26t20.5 21q12 11 23 20q11 -9 23 -20q11 -10 22 -21.5t22 -25.5q-11 -13 -22.5 -25t-21.5 -21q-12 -11 -23 -20q-11 9 -23 20q-10 10 -21 21.5t-20 24.5zM580 133q-20 41 -44 69t-68 28q-24 0 -47.5 -7t-42 -17t-30.5 -21.5t-12 -21.5q0 -8 11 -16 t28.5 -15.5t38 -14.5t39.5 -13q72 -23 105 -51.5t33 -73.5q0 -10 -1.5 -24.5t-6 -31t-13 -34.5t-22.5 -34q-15 -17 -40.5 -34.5t-60 -32.5t-78 -24.5t-93.5 -9.5q-73 0 -121 21t-76.5 54t-39.5 72.5t-11 77.5t6 71.5t14 59.5q8 30 19 55h90q-11 -26 -20 -54 q-9 -26 -15 -53.5t-6 -55.5q0 -19 5.5 -43t23 -45t51 -35.5t88.5 -14.5q44 0 84.5 9.5t71.5 23t50 28t19 23.5q0 14 -26 29.5t-71 30.5q-49 16 -79 28t-49 37q-17 22 -20 47t2 51q5 34 26.5 64t52.5 53t67 36.5t70 13.5q36 0 62.5 -11.5t46 -30.5t33 -43.5t25.5 -49.5 q14 -31 23.5 -49t18 -27.5t18.5 -12.5t25 -3l16 -3v-105l-16 -3q-29 0 -50 6.5t-38 21.5t-32.5 40.5t-33.5 64.5z" />
<glyph unicode="&#xfee8;&#xfef2;" horiz-adv-x="733" arabic-form="final" d="M499 375q-11 9 -23 20q-10 10 -21 21.5t-20 24.5q9 14 20.5 26t20.5 21q12 11 23 20q11 -9 23 -20q11 -10 22 -21.5t22 -25.5q-11 -13 -22.5 -25t-21.5 -21q-12 -11 -23 -20zM750 108v-105l-16 -3q-29 0 -50 6.5t-38 21.5t-32.5 40.5t-33.5 64.5q-20 41 -44 69t-68 28 q-24 0 -47.5 -7t-42 -17t-30.5 -21.5t-12 -21.5q0 -8 11 -16t28.5 -15.5t38 -14.5t39.5 -13q72 -23 105 -51.5t33 -73.5q0 -10 -1.5 -24.5t-6 -31t-13 -34.5t-22.5 -34q-15 -17 -40.5 -34.5t-60 -32.5t-78 -24.5t-93.5 -9.5q-73 0 -121 21t-76.5 54t-39.5 72.5t-11 77.5 t6 71.5t14 59.5q8 30 19 55h90q-11 -26 -20 -54q-9 -26 -15 -53.5t-6 -55.5q0 -19 5.5 -43t23 -45t51 -35.5t88.5 -14.5q44 0 84.5 9.5t71.5 23t50 28t19 23.5q0 14 -26 29.5t-71 30.5q-49 16 -79 28t-49 37q-17 22 -20 47t2 51q5 34 26.5 64t52.5 53t67 36.5t70 13.5 q36 0 62.5 -11.5t46 -30.5t33 -43.5t25.5 -49.5q14 -31 23.5 -49t18 -27.5t18.5 -12.5t25 -3zM366 -287q10 -9 21 -19q10 -9 20.5 -20.5t20.5 -23.5q-10 -12 -21 -23.5t-20 -20.5q-11 -10 -21 -19q-8 7 -17 15t-18 17t-18 20q-9 -11 -18.5 -20t-16.5 -17q-10 -8 -18 -15 q-11 9 -21 19q-10 9 -20.5 20.5t-19.5 23.5q9 12 19.5 23.5t20.5 20.5q10 10 21 19q8 -7 18 -16q8 -7 17 -16t18 -20q9 11 18.5 20t17.5 16q9 9 17 16z" />
<glyph unicode="&#xfef4;&#xfeae;" horiz-adv-x="580" arabic-form="final" d="M596 108v-105l-16 -3h-29q-78 1 -110.5 46.5t-37.5 125.5q0 4 -0.5 8t-0.5 9q-16 -26 -48 -35t-63 -9q-25 0 -39 8q0 -3 0.5 -5.5t0.5 -4.5q3 -24 2 -54.5t-7 -62.5q-6 -30 -20 -68.5t-40 -72.5t-65.5 -57.5t-95.5 -23.5q-16 0 -28.5 2.5t-21.5 5.5q-10 4 -18 9l-6 105 q2 -1 20.5 -6t47.5 -5q40 0 68 17t46 44t26 60t8 65q0 17 -15.5 66t-44.5 144l94 19l12 -35q13 -26 24.5 -34t42.5 -8q32 0 52.5 4t33.5 10.5t19.5 14t10.5 13.5v45l93 7l3 -133q1 -25 2 -44t6.5 -32t16.5 -20t32 -7h29zM465 -36q10 -9 21 -19q9 -9 19 -19.5t19 -22.5 q-9 -12 -19.5 -22.5t-18.5 -19.5q-11 -9 -21 -18q-8 7 -17 15q-8 7 -16.5 16t-17.5 19q-9 -10 -18 -19l-16 -16q-9 -8 -17 -15l-20 18t-20 19.5t-19 22.5q9 12 19.5 23t19.5 19q10 10 20 19q8 -7 17 -15q8 -7 16.5 -16t17.5 -20q9 11 18 20l16 16q9 8 17 15z" />
<glyph unicode="&#xfef4;&#xfee6;" horiz-adv-x="854" arabic-form="final" d="M271 253q-11 9 -23 20q-10 10 -21 21.5t-20 24.5q9 14 20.5 26t20.5 21q12 11 23 20q11 -9 23 -20q11 -10 22 -21.5t22 -25.5q-11 -13 -22.5 -25t-21.5 -21q-12 -11 -23 -20zM871 108v-105l-16 -3h-29q-78 1 -110.5 46.5t-37.5 124.5q-17 -25 -48.5 -34.5t-61.5 -9.5 q-17 0 -28 3.5t-19 10.5q9 -60 9 -105q0 -40 -13 -76.5t-44 -66.5q-29 -31 -85 -53t-128 -22q-73 0 -118.5 22.5t-71 56t-34.5 73.5t-9 76q0 38 6 71t14 58q8 28 19 52h90q-11 -25 -20 -51q-9 -24 -15 -51t-6 -55q0 -19 3.5 -43t18.5 -46t45.5 -37t84.5 -15q40 0 72 8.5 t55 19.5t35.5 23t12.5 19q0 11 -2 29t-5 40.5t-7.5 47t-8.5 48.5q-10 57 -23 122l97 14l3 -11q7 -27 18 -40t44 -13q30 0 50.5 3.5t33.5 9.5t20.5 12.5t11.5 12.5q-1 18 -1 31v17l93 8l3 -119q1 -25 2 -43.5t6.5 -31t16.5 -19t32 -6.5h29zM742 -35q10 -9 21 -19 q9 -9 19.5 -20t19.5 -23q-9 -12 -19.5 -23t-19.5 -20q-11 -10 -21 -19q-8 7 -17 15t-17.5 17t-17.5 20q-9 -11 -18 -20l-17 -17q-9 -8 -17 -15q-10 9 -21 19q-9 9 -19 20t-19 23q9 12 19 23t19 20q11 10 21 19q8 -7 17 -16q9 -7 17.5 -16t17.5 -20q9 11 18 20t17 16 q9 9 17 16z" />
<glyph unicode="&#xfef4;&#xfef0;" horiz-adv-x="733" arabic-form="final" d="M750 108v-105l-16 -3q-29 0 -50 6.5t-38 21.5t-32.5 40.5t-33.5 64.5q-20 41 -44 69t-68 28q-24 0 -47.5 -7t-42 -17t-30.5 -21.5t-12 -21.5q0 -8 11 -16t28.5 -15.5t38 -14.5t39.5 -13q72 -23 105 -51.5t33 -73.5q0 -10 -1.5 -24.5t-6 -31t-13 -34.5t-22.5 -34 q-15 -17 -40.5 -34.5t-60 -32.5t-78 -24.5t-93.5 -9.5q-73 0 -121 21t-76.5 54t-39.5 72.5t-11 77.5t6 71.5t14 59.5q8 30 19 55h90q-11 -26 -20 -54q-9 -26 -15 -53.5t-6 -55.5q0 -19 5.5 -43t23 -45t51 -35.5t88.5 -14.5q44 0 84.5 9.5t71.5 23t50 28t19 23.5 q0 14 -26 29.5t-71 30.5q-49 16 -79 28t-49 37q-17 22 -20 47t2 51q5 34 26.5 64t52.5 53t67 36.5t70 13.5q36 0 62.5 -11.5t46 -30.5t33 -43.5t25.5 -49.5q14 -31 23.5 -49t18 -27.5t18.5 -12.5t25 -3zM636 -212q10 -9 21 -19q9 -9 19 -19.5t19 -22.5q-9 -12 -19.5 -22.5 t-18.5 -19.5q-11 -9 -21 -18q-8 7 -17 15q-8 7 -16.5 16t-17.5 19q-9 -10 -18 -19l-16 -16q-9 -8 -17 -15l-20 18t-20 19.5t-19 22.5q9 12 19.5 23t19.5 19q10 10 20 19q8 -7 17 -15q8 -7 16.5 -16t17.5 -20q9 11 18 20l16 16q9 8 17 15z" />
<glyph unicode="&#xfef4;&#xfef2;" horiz-adv-x="733" arabic-form="final" d="M750 108v-105l-16 -3q-29 0 -50 6.5t-38 21.5t-32.5 40.5t-33.5 64.5q-20 41 -44 69t-68 28q-24 0 -47.5 -7t-42 -17t-30.5 -21.5t-12 -21.5q0 -8 11 -16t28.5 -15.5t38 -14.5t39.5 -13q72 -23 105 -51.5t33 -73.5q0 -10 -1.5 -24.5t-6 -31t-13 -34.5t-22.5 -34 q-15 -17 -40.5 -34.5t-60 -32.5t-78 -24.5t-93.5 -9.5q-73 0 -121 21t-76.5 54t-39.5 72.5t-11 77.5t6 71.5t14 59.5q8 30 19 55h90q-11 -26 -20 -54q-9 -26 -15 -53.5t-6 -55.5q0 -19 5.5 -43t23 -45t51 -35.5t88.5 -14.5q44 0 84.5 9.5t71.5 23t50 28t19 23.5 q0 14 -26 29.5t-71 30.5q-49 16 -79 28t-49 37q-17 22 -20 47t2 51q5 34 26.5 64t52.5 53t67 36.5t70 13.5q36 0 62.5 -11.5t46 -30.5t33 -43.5t25.5 -49.5q14 -31 23.5 -49t18 -27.5t18.5 -12.5t25 -3zM636 -212q10 -9 21 -19q9 -9 19 -19.5t19 -22.5q-9 -12 -19.5 -22.5 t-18.5 -19.5q-11 -9 -21 -18q-8 7 -17 15q-8 7 -16.5 16t-17.5 19q-9 -10 -18 -19l-16 -16q-9 -8 -17 -15l-20 18t-20 19.5t-19 22.5q9 12 19.5 23t19.5 19q10 10 20 19q8 -7 17 -15q8 -7 16.5 -16t17.5 -20q9 11 18 20l16 16q9 8 17 15zM366 -287q10 -9 21 -19 q10 -9 20.5 -20.5t20.5 -23.5q-10 -12 -21 -23.5t-20 -20.5q-11 -10 -21 -19q-8 7 -17 15t-18 17t-18 20q-9 -11 -18.5 -20t-16.5 -17q-10 -8 -18 -15q-11 9 -21 19q-10 9 -20.5 20.5t-19.5 23.5q9 12 19.5 23.5t20.5 20.5q10 10 21 19q8 -7 18 -16q8 -7 17 -16t18 -20 q9 11 18.5 20t17.5 16q9 9 17 16z" />
<glyph unicode="&#xfedf;&#xfee4;" horiz-adv-x="292" arabic-form="initial" d="M181 187q0 -22 17.5 -45.5t39.5 -43.5q25 -24 57 -47l-54 -103q-38 19 -63.5 30t-47 15.5t-44 5.5t-55.5 1h-34l-13 3v105l13 3h20q29 0 52 -2t42 -5q-13 22 -20.5 48.5t-7.5 59.5v466l98 8v-499z" />
<glyph unicode="&#xfeb3;&#xfef0;" horiz-adv-x="1159" arabic-form="isolated" d="M1103 341q5 -57 9 -105q2 -29 3.5 -47t2.5 -35t2 -30.5t1 -20.5q0 -18 -9.5 -38.5t-23.5 -38.5t-30 -29.5t-30 -11.5t-37 4.5t-49.5 13.5t-53.5 22t-50 30q-12 -20 -36 -37.5t-73 -17.5q-27 0 -47.5 7t-38 22.5t-32.5 39.5t-32 58q-10 21 -19.5 39.5t-21.5 32.5t-27 22.5 t-37 8.5q-24 0 -48.5 -7t-44.5 -17t-33 -21.5t-13 -21.5q0 -8 11 -16t28.5 -15.5t38 -14.5t39.5 -13q72 -23 105 -51.5t33 -73.5q0 -10 -1.5 -24.5t-6 -31t-13 -34.5t-22.5 -34q-15 -17 -40.5 -34.5t-60 -32.5t-78 -24.5t-93.5 -9.5q-73 0 -121 21t-76.5 54t-39.5 72.5 t-11 77.5t6 71.5t14 59.5q8 30 19 55h90q-11 -26 -20 -54q-9 -26 -15 -53.5t-6 -55.5q0 -19 5.5 -43t23 -45t51 -35.5t88.5 -14.5q44 0 84.5 9.5t71.5 23t50 28t19 23.5q0 14 -26 29.5t-71 30.5q-49 16 -79 28t-49 37q-17 22 -20 47t2 51q5 34 27.5 64t55 53t70 36.5 t71.5 13.5q38 0 63 -12.5t42.5 -32.5t29.5 -45t24 -51l18 -36t17.5 -27.5t21 -17.5t28.5 -6q27 0 38.5 6.5t16.5 17.5q2 11 5.5 32.5t6.5 45t5.5 42.5t3.5 24h91q-3 -31 -6.5 -63t-7.5 -64q28 -17 67.5 -32.5t73.5 -22.5l-19 235z" />
<glyph unicode="&#xfeb3;&#xfef2;" horiz-adv-x="1161" arabic-form="isolated" d="M1103 341q5 -57 9 -105q2 -29 3.5 -47t2.5 -35t2 -30.5t1 -20.5q0 -18 -9.5 -38.5t-23.5 -38.5t-30 -29.5t-30 -11.5t-37 4.5t-49.5 13.5t-53.5 22t-50 30q-12 -20 -36 -37.5t-73 -17.5q-27 0 -47.5 7t-38 22.5t-32.5 39.5t-32 58q-10 21 -19.5 39.5t-21.5 32.5t-27 22.5 t-37 8.5q-24 0 -48.5 -7t-44.5 -17t-33 -21.5t-13 -21.5q0 -8 11 -16t28.5 -15.5t38 -14.5t39.5 -13q72 -23 105 -51.5t33 -73.5q0 -10 -1.5 -24.5t-6 -31t-13 -34.5t-22.5 -34q-15 -17 -40.5 -34.5t-60 -32.5t-78 -24.5t-93.5 -9.5q-73 0 -121 21t-76.5 54t-39.5 72.5 t-11 77.5t6 71.5t14 59.5q8 30 19 55h90q-11 -26 -20 -54q-9 -26 -15 -53.5t-6 -55.5q0 -19 5.5 -43t23 -45t51 -35.5t88.5 -14.5q44 0 84.5 9.5t71.5 23t50 28t19 23.5q0 14 -26 29.5t-71 30.5q-49 16 -79 28t-49 37q-17 22 -20 47t2 51q5 34 27.5 64t55 53t70 36.5 t71.5 13.5q38 0 63 -12.5t42.5 -32.5t29.5 -45t24 -51l18 -36t17.5 -27.5t21 -17.5t28.5 -6q27 0 38.5 6.5t16.5 17.5q2 11 5.5 32.5t6.5 45t5.5 42.5t3.5 24h91q-3 -31 -6.5 -63t-7.5 -64q28 -17 67.5 -32.5t73.5 -22.5l-19 235zM366 -287q10 -9 21 -19q10 -9 20.5 -20.5 t20.5 -23.5q-10 -12 -21 -23.5t-20 -20.5q-11 -10 -21 -19q-8 7 -17 15t-18 17t-18 20q-9 -11 -18.5 -20t-16.5 -17q-10 -8 -18 -15q-11 9 -21 19q-10 9 -20.5 20.5t-19.5 23.5q9 12 19.5 23.5t20.5 20.5q10 10 21 19q8 -7 18 -16q8 -7 17 -16t18 -20q9 11 18.5 20t17.5 16 q9 9 17 16z" />
<glyph unicode="&#xfeb7;&#xfef0;" horiz-adv-x="1159" arabic-form="isolated" d="M850 440q-10 9 -21 18q-9 9 -19 19.5t-19 22.5q9 13 19 24t19 20q11 10 21 18q10 -8 21 -18q9 -9 19.5 -20t19.5 -24q-9 -12 -19.5 -22.5l-19.5 -19.5q-11 -9 -21 -18zM796 329q-11 8 -22 18q-10 9 -20.5 20t-19.5 23q9 13 20 24.5t20 19.5q11 10 22 19q9 -7 18 -16 l18.5 -18.5t18.5 -21.5q9 12 18.5 22t18.5 18q9 9 18 16q10 -9 21 -19q10 -9 21 -20t21 -24q-10 -12 -21 -23t-21 -20q-11 -10 -21 -18q-9 7 -18 16q-9 8 -18.5 17.5t-18.5 20.5q-9 -11 -19 -21t-18 -17q-9 -9 -18 -16zM1103 341q5 -57 9 -105q2 -29 3.5 -47t2.5 -35 t2 -30.5t1 -20.5q0 -18 -9.5 -38.5t-23.5 -38.5t-30 -29.5t-30 -11.5t-37 4.5t-49.5 13.5t-53.5 22t-50 30q-12 -20 -36 -37.5t-73 -17.5q-27 0 -47.5 7t-38 22.5t-32.5 39.5t-32 58q-10 21 -19.5 39.5t-21.5 32.5t-27 22.5t-37 8.5q-24 0 -48.5 -7t-44.5 -17t-33 -21.5 t-13 -21.5q0 -8 11 -16t28.5 -15.5t38 -14.5t39.5 -13q72 -23 105 -51.5t33 -73.5q0 -10 -1.5 -24.5t-6 -31t-13 -34.5t-22.5 -34q-15 -17 -40.5 -34.5t-60 -32.5t-78 -24.5t-93.5 -9.5q-73 0 -121 21t-76.5 54t-39.5 72.5t-11 77.5t6 71.5t14 59.5q8 30 19 55h90 q-11 -26 -20 -54q-9 -26 -15 -53.5t-6 -55.5q0 -19 5.5 -43t23 -45t51 -35.5t88.5 -14.5q44 0 84.5 9.5t71.5 23t50 28t19 23.5q0 14 -26 29.5t-71 30.5q-49 16 -79 28t-49 37q-17 22 -20 47t2 51q5 34 27.5 64t55 53t70 36.5t71.5 13.5q38 0 63 -12.5t42.5 -32.5t29.5 -45 t24 -51l18 -36t17.5 -27.5t21 -17.5t28.5 -6q27 0 38.5 6.5t16.5 17.5q2 11 5.5 32.5t6.5 45t5.5 42.5t3.5 24h91q-3 -31 -6.5 -63t-7.5 -64q28 -17 67.5 -32.5t73.5 -22.5l-19 235z" />
<glyph unicode="&#xfeb7;&#xfef2;" horiz-adv-x="1161" arabic-form="isolated" d="M850 440q-10 9 -21 18q-9 9 -19 19.5t-19 22.5q9 13 19 24t19 20q11 10 21 18q10 -8 21 -18q9 -9 19.5 -20t19.5 -24q-9 -12 -19.5 -22.5l-19.5 -19.5q-11 -9 -21 -18zM796 329q-11 8 -22 18q-10 9 -20.5 20t-19.5 23q9 13 20 24.5t20 19.5q11 10 22 19q9 -7 18 -16 l18.5 -18.5t18.5 -21.5q9 12 18.5 22t18.5 18q9 9 18 16q10 -9 21 -19q10 -9 21 -20t21 -24q-10 -12 -21 -23t-21 -20q-11 -10 -21 -18q-9 7 -18 16q-9 8 -18.5 17.5t-18.5 20.5q-9 -11 -19 -21t-18 -17q-9 -9 -18 -16zM1103 341q5 -57 9 -105q2 -29 3.5 -47t2.5 -35 t2 -30.5t1 -20.5q0 -18 -9.5 -38.5t-23.5 -38.5t-30 -29.5t-30 -11.5t-37 4.5t-49.5 13.5t-53.5 22t-50 30q-12 -20 -36 -37.5t-73 -17.5q-27 0 -47.5 7t-38 22.5t-32.5 39.5t-32 58q-10 21 -19.5 39.5t-21.5 32.5t-27 22.5t-37 8.5q-24 0 -48.5 -7t-44.5 -17t-33 -21.5 t-13 -21.5q0 -8 11 -16t28.5 -15.5t38 -14.5t39.5 -13q72 -23 105 -51.5t33 -73.5q0 -10 -1.5 -24.5t-6 -31t-13 -34.5t-22.5 -34q-15 -17 -40.5 -34.5t-60 -32.5t-78 -24.5t-93.5 -9.5q-73 0 -121 21t-76.5 54t-39.5 72.5t-11 77.5t6 71.5t14 59.5q8 30 19 55h90 q-11 -26 -20 -54q-9 -26 -15 -53.5t-6 -55.5q0 -19 5.5 -43t23 -45t51 -35.5t88.5 -14.5q44 0 84.5 9.5t71.5 23t50 28t19 23.5q0 14 -26 29.5t-71 30.5q-49 16 -79 28t-49 37q-17 22 -20 47t2 51q5 34 27.5 64t55 53t70 36.5t71.5 13.5q38 0 63 -12.5t42.5 -32.5t29.5 -45 t24 -51l18 -36t17.5 -27.5t21 -17.5t28.5 -6q27 0 38.5 6.5t16.5 17.5q2 11 5.5 32.5t6.5 45t5.5 42.5t3.5 24h91q-3 -31 -6.5 -63t-7.5 -64q28 -17 67.5 -32.5t73.5 -22.5l-19 235zM366 -287q10 -9 21 -19q10 -9 20.5 -20.5t20.5 -23.5q-10 -12 -21 -23.5t-20 -20.5 q-11 -10 -21 -19q-8 7 -17 15t-18 17t-18 20q-9 -11 -18.5 -20t-16.5 -17q-10 -8 -18 -15q-11 9 -21 19q-10 9 -20.5 20.5t-19.5 23.5q9 12 19.5 23.5t20.5 20.5q10 10 21 19q8 -7 18 -16q8 -7 17 -16t18 -20q9 11 18.5 20t17.5 16q9 9 17 16z" />
<glyph unicode="&#xfebb;&#xfef0;" horiz-adv-x="1220" arabic-form="isolated" d="M986 397q42 0 78 -20.5t62.5 -52t41 -69.5t14.5 -73q0 -55 -29.5 -90t-78 -55.5t-110.5 -28.5t-127 -8h-11q-52 0 -90 6.5t-67 21t-50.5 39t-39.5 60.5q-10 21 -19.5 39.5t-21.5 32.5t-27 22.5t-37 8.5q-24 0 -48.5 -7t-44.5 -17t-33 -21.5t-13 -21.5q0 -8 11 -16 t28.5 -15.5t38 -14.5t39.5 -13q72 -23 106 -51.5t34 -73.5q0 -10 -1.5 -24.5t-6 -31t-13 -34.5t-22.5 -34q-15 -17 -40.5 -34.5t-61 -32.5t-79 -24.5t-93.5 -9.5q-73 0 -121 21t-76.5 54t-39.5 72.5t-11 77.5t6 71.5t14 59.5q8 30 19 55h90q-11 -26 -20 -54 q-9 -26 -15 -53.5t-6 -55.5q0 -19 5.5 -43t23 -45t51 -35.5t88.5 -14.5q44 0 84.5 9.5t71.5 23t50 28t19 23.5q0 14 -26 29.5t-71 30.5q-49 16 -80 28t-50 37q-17 22 -20 47t1 51q5 34 28.5 64t56 53t70.5 36.5t72 13.5q38 0 63 -12.5t42 -32.5t29 -45t25 -51q7 -13 13 -24 t14 -21q25 38 59 81t74 79.5t85 60.5t93 24zM845 109q48 0 94 4t81.5 11.5t57.5 19t22 25.5q0 11 -9.5 30.5t-27.5 38.5t-43 33.5t-57 14.5q-35 0 -69 -16t-64.5 -40t-56.5 -53.5t-46 -56.5q19 -5 45 -8t63 -3h10z" />
<glyph unicode="&#xfebb;&#xfef2;" horiz-adv-x="1213" arabic-form="isolated" d="M979 397q42 0 78 -20.5t62.5 -52t41 -69.5t14.5 -73q0 -55 -29.5 -90t-78 -55.5t-110.5 -28.5t-127 -8h-11q-52 0 -90 6.5t-67 21t-50.5 39t-39.5 60.5q-10 21 -19.5 39.5t-21.5 32.5t-27 22.5t-37 8.5q-24 0 -48.5 -7t-44.5 -17t-33 -21.5t-13 -21.5q0 -8 11 -16 t28.5 -15.5t38 -14.5t39.5 -13q72 -23 106 -51.5t34 -73.5q0 -10 -1.5 -24.5t-6 -31t-13 -34.5t-22.5 -34q-15 -17 -40.5 -34.5t-61 -32.5t-79 -24.5t-93.5 -9.5q-73 0 -121 21t-76.5 54t-39.5 72.5t-11 77.5t6 71.5t14 59.5q8 30 19 55h90q-11 -26 -20 -54 q-9 -26 -15 -53.5t-6 -55.5q0 -19 5.5 -43t23 -45t51 -35.5t88.5 -14.5q44 0 84.5 9.5t71.5 23t50 28t19 23.5q0 14 -26 29.5t-71 30.5q-49 16 -80 28t-50 37q-17 22 -20 47t1 51q5 34 28.5 64t56 53t70.5 36.5t72 13.5q38 0 63 -12.5t42 -32.5t29 -45t25 -51q7 -13 13 -24 t14 -21q25 38 59 81t74 79.5t85 60.5t93 24zM838 109q48 0 94 4t81.5 11.5t57.5 19t22 25.5q0 11 -9.5 30.5t-27.5 38.5t-43 33.5t-57 14.5q-35 0 -69 -16t-64.5 -40t-56.5 -53.5t-46 -56.5q19 -5 45 -8t63 -3h10zM359 -287q10 -9 21 -19q10 -9 20.5 -20.5t20.5 -23.5 q-10 -12 -21 -23.5t-20 -20.5q-11 -10 -21 -19q-8 7 -17 15t-18 17t-18 20q-9 -11 -18.5 -20t-16.5 -17q-10 -8 -18 -15q-11 9 -21 19q-10 9 -20.5 20.5t-19.5 23.5q9 12 19.5 23.5t20.5 20.5q10 10 21 19q8 -7 18 -16q8 -7 17 -16t18 -20q9 11 18.5 20t17.5 16q9 9 17 16z " />
<glyph unicode="&#xfebf;&#xfef0;" horiz-adv-x="1220" arabic-form="isolated" d="M968 442q-11 9 -23 20q-10 10 -21 21.5t-20 24.5q9 14 20.5 26t20.5 21q12 11 23 20q11 -9 23 -20q11 -10 22 -21.5t22 -25.5q-11 -13 -22.5 -25t-21.5 -21q-12 -11 -23 -20zM986 397q42 0 78 -20.5t62.5 -52t41 -69.5t14.5 -73q0 -55 -29.5 -90t-78 -55.5t-110.5 -28.5 t-127 -8h-11q-52 0 -90 6.5t-67 21t-50.5 39t-39.5 60.5q-10 21 -19.5 39.5t-21.5 32.5t-27 22.5t-37 8.5q-24 0 -48.5 -7t-44.5 -17t-33 -21.5t-13 -21.5q0 -8 11 -16t28.5 -15.5t38 -14.5t39.5 -13q72 -23 106 -51.5t34 -73.5q0 -10 -1.5 -24.5t-6 -31t-13 -34.5 t-22.5 -34q-15 -17 -40.5 -34.5t-61 -32.5t-79 -24.5t-93.5 -9.5q-73 0 -121 21t-76.5 54t-39.5 72.5t-11 77.5t6 71.5t14 59.5q8 30 19 55h90q-11 -26 -20 -54q-9 -26 -15 -53.5t-6 -55.5q0 -19 5.5 -43t23 -45t51 -35.5t88.5 -14.5q44 0 84.5 9.5t71.5 23t50 28t19 23.5 q0 14 -26 29.5t-71 30.5q-49 16 -80 28t-50 37q-17 22 -20 47t1 51q5 34 28.5 64t56 53t70.5 36.5t72 13.5q38 0 63 -12.5t42 -32.5t29 -45t25 -51q7 -13 13 -24t14 -21q25 38 59 81t74 79.5t85 60.5t93 24zM845 109q48 0 94 4t81.5 11.5t57.5 19t22 25.5q0 11 -9.5 30.5 t-27.5 38.5t-43 33.5t-57 14.5q-35 0 -69 -16t-64.5 -40t-56.5 -53.5t-46 -56.5q19 -5 45 -8t63 -3h10z" />
<glyph unicode="&#xfebf;&#xfef2;" horiz-adv-x="1220" arabic-form="isolated" d="M968 442q-11 9 -23 20q-10 10 -21 21.5t-20 24.5q9 14 20.5 26t20.5 21q12 11 23 20q11 -9 23 -20q11 -10 22 -21.5t22 -25.5q-11 -13 -22.5 -25t-21.5 -21q-12 -11 -23 -20zM986 397q42 0 78 -20.5t62.5 -52t41 -69.5t14.5 -73q0 -55 -29.5 -90t-78 -55.5t-110.5 -28.5 t-127 -8h-11q-52 0 -90 6.5t-67 21t-50.5 39t-39.5 60.5q-10 21 -19.5 39.5t-21.5 32.5t-27 22.5t-37 8.5q-24 0 -48.5 -7t-44.5 -17t-33 -21.5t-13 -21.5q0 -8 11 -16t28.5 -15.5t38 -14.5t39.5 -13q72 -23 106 -51.5t34 -73.5q0 -10 -1.5 -24.5t-6 -31t-13 -34.5 t-22.5 -34q-15 -17 -40.5 -34.5t-61 -32.5t-79 -24.5t-93.5 -9.5q-73 0 -121 21t-76.5 54t-39.5 72.5t-11 77.5t6 71.5t14 59.5q8 30 19 55h90q-11 -26 -20 -54q-9 -26 -15 -53.5t-6 -55.5q0 -19 5.5 -43t23 -45t51 -35.5t88.5 -14.5q44 0 84.5 9.5t71.5 23t50 28t19 23.5 q0 14 -26 29.5t-71 30.5q-49 16 -80 28t-50 37q-17 22 -20 47t1 51q5 34 28.5 64t56 53t70.5 36.5t72 13.5q38 0 63 -12.5t42 -32.5t29 -45t25 -51q7 -13 13 -24t14 -21q25 38 59 81t74 79.5t85 60.5t93 24zM845 109q48 0 94 4t81.5 11.5t57.5 19t22 25.5q0 11 -9.5 30.5 t-27.5 38.5t-43 33.5t-57 14.5q-35 0 -69 -16t-64.5 -40t-56.5 -53.5t-46 -56.5q19 -5 45 -8t63 -3h10zM366 -287q10 -9 21 -19q10 -9 20.5 -20.5t20.5 -23.5q-10 -12 -21 -23.5t-20 -20.5q-11 -10 -21 -19q-8 7 -17 15t-18 17t-18 20q-9 -11 -18.5 -20t-16.5 -17 q-10 -8 -18 -15q-11 9 -21 19q-10 9 -20.5 20.5t-19.5 23.5q9 12 19.5 23.5t20.5 20.5q10 10 21 19q8 -7 18 -16q8 -7 17 -16t18 -20q9 11 18.5 20t17.5 16q9 9 17 16z" />
<glyph unicode="&#xfeb7;&#xfeae;" horiz-adv-x="1000" arabic-form="isolated" d="M690 440q-10 9 -21 18q-9 9 -19 19.5t-19 22.5q9 13 19 24t19 20q11 10 21 18q10 -8 21 -18q9 -9 19.5 -20t19.5 -24q-9 -12 -19.5 -22.5l-19.5 -19.5q-11 -9 -21 -18zM636 329q-11 8 -22 18q-10 9 -20.5 20t-19.5 23q9 13 20 24.5t20 19.5q11 10 22 19q9 -7 18 -16 l18.5 -18.5t18.5 -21.5q9 12 18.5 22t18.5 18q9 9 18 16q10 -9 21 -19q10 -9 21 -20t21 -24q-10 -12 -21 -23t-21 -20q-11 -10 -21 -18q-9 7 -18 16q-9 8 -18.5 17.5t-18.5 20.5q-9 -11 -19 -21t-18 -17q-9 -9 -18 -16zM943 341q5 -57 9 -105q2 -29 3.5 -47t2.5 -35t2 -30.5 t1 -20.5q0 -18 -9.5 -38.5t-23.5 -38.5t-30 -29.5t-30 -11.5t-37 4.5t-49.5 13.5t-54 22t-49.5 30q-13 -20 -40.5 -37.5t-81.5 -17.5q-72 0 -108.5 38.5t-41.5 105.5l-3 38q-15 -28 -47.5 -39t-64.5 -11q-22 0 -38 8q6 -51 -6 -114q-6 -30 -20 -68.5t-40 -72.5t-65.5 -57.5 t-95.5 -23.5q-16 0 -28.5 2.5t-20.5 5.5q-10 4 -18 9l-7 105q2 -1 20.5 -6t47.5 -5q40 0 68 17t46 44t26 60t8 65q0 17 -15.5 62t-43.5 132l96 18q1 -3 3 -6q1 -4 2.5 -8t3.5 -10q11 -25 24 -35.5t44 -10.5q32 0 53 4t34 10.5t19.5 14t10.5 13.5q-1 9 -1 15v10l92 7l5 -123 q2 -50 17 -66.5t53 -16.5q29 0 43.5 6t19.5 17q2 11 5.5 32.5t6.5 45t5.5 42.5t3.5 24h91q-3 -31 -6.5 -63t-7.5 -64q28 -17 67.5 -32.5t73.5 -22.5l-19 235z" />
<glyph unicode="&#xfeb3;&#xfeae;" horiz-adv-x="1000" arabic-form="isolated" d="M943 341q5 -57 9 -105q2 -29 3.5 -47t2.5 -35t2 -30.5t1 -20.5q0 -18 -9.5 -38.5t-23.5 -38.5t-30 -29.5t-30 -11.5t-37 4.5t-49.5 13.5t-54 22t-49.5 30q-13 -20 -40.5 -37.5t-81.5 -17.5q-72 0 -108.5 38.5t-41.5 105.5l-3 38q-15 -28 -47.5 -39t-64.5 -11q-22 0 -38 8 q6 -51 -6 -114q-6 -30 -20 -68.5t-40 -72.5t-65.5 -57.5t-95.5 -23.5q-16 0 -28.5 2.5t-20.5 5.5q-10 4 -18 9l-7 105q2 -1 20.5 -6t47.5 -5q40 0 68 17t46 44t26 60t8 65q0 17 -15.5 62t-43.5 132l96 18q1 -3 3 -6q1 -4 2.5 -8t3.5 -10q11 -25 24 -35.5t44 -10.5q32 0 53 4 t34 10.5t19.5 14t10.5 13.5q-1 9 -1 15v10l92 7l5 -123q2 -50 17 -66.5t53 -16.5q29 0 43.5 6t19.5 17q2 11 5.5 32.5t6.5 45t5.5 42.5t3.5 24h91q-3 -31 -6.5 -63t-7.5 -64q28 -17 67.5 -32.5t73.5 -22.5l-19 235z" />
<glyph unicode="&#xfebb;&#xfeae;" horiz-adv-x="1089" arabic-form="isolated" d="M855 397q42 0 78 -20.5t62.5 -52t41 -69.5t14.5 -73q0 -55 -29.5 -90t-78 -55.5t-110.5 -28.5t-127 -8h-13q-61 0 -112.5 7t-90 26t-60.5 51t-25 82q0 4 -0.5 8t-0.5 9q-15 -29 -48 -40t-65 -11q-22 0 -38 8q6 -51 -6 -114q-6 -30 -20 -68.5t-40 -72.5t-65.5 -57.5 t-95.5 -23.5q-16 0 -28.5 2.5t-20.5 5.5q-10 4 -18 9l-7 105q2 -1 20.5 -6t47.5 -5q40 0 68 17t46 44t26 60t8 65q0 17 -15.5 62t-43.5 132l96 18q1 -3 3 -6q1 -4 2.5 -8t3.5 -10q11 -25 24 -35.5t44 -10.5q32 0 53 4.5t34 10.5t19.5 13.5t10.5 13.5q-1 8 -1 14.5v10.5l92 7 l5 -113q1 -50 37 -71q24 38 58 84t76 86t90 67t99 27zM714 109q48 0 93.5 4t81.5 11.5t58 19t22 25.5q0 11 -9.5 30.5t-27.5 38.5t-43 33.5t-57 14.5q-36 0 -70.5 -16.5t-66 -42t-57.5 -55.5t-46 -57q22 -4 49 -5t61 -1h12z" />
<glyph unicode="&#xfebf;&#xfeae;" horiz-adv-x="1089" arabic-form="isolated" d="M837 442q-11 9 -23 20q-10 10 -21 21.5t-20 24.5q9 14 20.5 26t20.5 21q12 11 23 20q11 -9 23 -20q11 -10 22 -21.5t22 -25.5q-11 -13 -22.5 -25t-21.5 -21q-12 -11 -23 -20zM855 397q42 0 78 -20.5t62.5 -52t41 -69.5t14.5 -73q0 -55 -29.5 -90t-78 -55.5t-110.5 -28.5 t-127 -8h-13q-61 0 -112.5 7t-90 26t-60.5 51t-25 82q0 4 -0.5 8t-0.5 9q-15 -29 -48 -40t-65 -11q-22 0 -38 8q6 -51 -6 -114q-6 -30 -20 -68.5t-40 -72.5t-65.5 -57.5t-95.5 -23.5q-16 0 -28.5 2.5t-20.5 5.5q-10 4 -18 9l-7 105q2 -1 20.5 -6t47.5 -5q40 0 68 17t46 44 t26 60t8 65q0 17 -15.5 62t-43.5 132l96 18q1 -3 3 -6q1 -4 2.5 -8t3.5 -10q11 -25 24 -35.5t44 -10.5q32 0 53 4.5t34 10.5t19.5 13.5t10.5 13.5q-1 8 -1 14.5v10.5l92 7l5 -113q1 -50 37 -71q24 38 58 84t76 86t90 67t99 27zM714 109q48 0 93.5 4t81.5 11.5t58 19t22 25.5 q0 11 -9.5 30.5t-27.5 38.5t-43 33.5t-57 14.5q-36 0 -70.5 -16.5t-66 -42t-57.5 -55.5t-46 -57q22 -4 49 -5t61 -1h12z" />
<glyph unicode="&#xfeb4;&#xfef0;" horiz-adv-x="1218" arabic-form="final" d="M1234 108v-105l-16 -3q-55 0 -89.5 12.5t-55.5 37.5q-17 -23 -45 -36.5t-81 -13.5q-43 0 -70 12t-44 35q-13 -18 -36 -32.5t-68 -14.5q-27 0 -47.5 7t-38 22.5t-32.5 39.5t-32 58q-10 21 -19.5 39.5t-21.5 32.5t-27 22.5t-37 8.5q-24 0 -48.5 -7t-44.5 -17t-33 -21.5 t-13 -21.5q0 -8 11 -16t28.5 -15.5t38 -14.5t39.5 -13q72 -23 105 -51.5t33 -73.5q0 -10 -1.5 -24.5t-6 -31t-13 -34.5t-22.5 -34q-15 -17 -40.5 -34.5t-60 -32.5t-78 -24.5t-93.5 -9.5q-73 0 -121 21t-76.5 54t-39.5 72.5t-11 77.5t6 71.5t14 59.5q8 30 19 55h88 q-11 -26 -20 -54q-9 -26 -15 -53.5t-6 -55.5q0 -19 6 -43t24 -45t51.5 -35.5t88.5 -14.5q44 0 84.5 9.5t71.5 23t50 28t19 23.5q0 14 -26 29.5t-71 30.5q-49 16 -79 28t-49 37q-17 22 -20 47t2 51q5 34 27.5 64t55 53t70 36.5t71.5 13.5q38 0 63 -12.5t42.5 -32.5t29.5 -45 t24 -51l18 -36t17.5 -27.5t21 -17.5t28.5 -6q27 0 38.5 6.5t16.5 17.5q2 11 5.5 32.5t6.5 45t5.5 42.5t3.5 24h91q-4 -37 -8.5 -75t-9.5 -76q24 -18 71 -18q46 0 73 12q-1 1 -1 4q-2 13 -4.5 42t-4.5 59q-2 35 -4 75l94 9q2 -26 3 -49q2 -22 3.5 -42t2.5 -32q2 -18 6 -32.5 t15 -24t30.5 -14.5t51.5 -5z" />
<glyph unicode="&#xfeb4;&#xfef2;" horiz-adv-x="1218" arabic-form="final" d="M1234 108v-105l-16 -3q-55 0 -89.5 12.5t-55.5 37.5q-17 -23 -45 -36.5t-81 -13.5q-43 0 -70 12t-44 35q-13 -18 -36 -32.5t-68 -14.5q-27 0 -47.5 7t-38 22.5t-32.5 39.5t-32 58q-10 21 -19.5 39.5t-21.5 32.5t-27 22.5t-37 8.5q-24 0 -48.5 -7t-44.5 -17t-33 -21.5 t-13 -21.5q0 -8 11 -16t28.5 -15.5t38 -14.5t39.5 -13q72 -23 105 -51.5t33 -73.5q0 -10 -1.5 -24.5t-6 -31t-13 -34.5t-22.5 -34q-15 -17 -40.5 -34.5t-60 -32.5t-78 -24.5t-93.5 -9.5q-73 0 -121 21t-76.5 54t-39.5 72.5t-11 77.5t6 71.5t14 59.5q8 30 19 55h88 q-11 -26 -20 -54q-9 -26 -15 -53.5t-6 -55.5q0 -19 6 -43t24 -45t51.5 -35.5t88.5 -14.5q44 0 84.5 9.5t71.5 23t50 28t19 23.5q0 14 -26 29.5t-71 30.5q-49 16 -79 28t-49 37q-17 22 -20 47t2 51q5 34 27.5 64t55 53t70 36.5t71.5 13.5q38 0 63 -12.5t42.5 -32.5t29.5 -45 t24 -51l18 -36t17.5 -27.5t21 -17.5t28.5 -6q27 0 38.5 6.5t16.5 17.5q2 11 5.5 32.5t6.5 45t5.5 42.5t3.5 24h91q-4 -37 -8.5 -75t-9.5 -76q24 -18 71 -18q46 0 73 12q-1 1 -1 4q-2 13 -4.5 42t-4.5 59q-2 35 -4 75l94 9q2 -26 3 -49q2 -22 3.5 -42t2.5 -32q2 -18 6 -32.5 t15 -24t30.5 -14.5t51.5 -5zM366 -287q10 -9 21 -19q10 -9 20.5 -20.5t20.5 -23.5q-10 -12 -21 -23.5t-20 -20.5q-11 -10 -21 -19q-8 7 -17 15t-18 17t-18 20q-9 -11 -18.5 -20t-16.5 -17q-10 -8 -18 -15q-11 9 -21 19q-10 9 -20.5 20.5t-19.5 23.5q9 12 19.5 23.5 t20.5 20.5q10 10 21 19q8 -7 18 -16q8 -7 17 -16t18 -20q9 11 18.5 20t17.5 16q9 9 17 16z" />
<glyph unicode="&#xfeb8;&#xfef0;" horiz-adv-x="1218" arabic-form="final" d="M850 440q-10 9 -21 18q-9 9 -19 19.5t-19 22.5q9 13 19 24t19 20q11 10 21 18q10 -8 21 -18q9 -9 19.5 -20t19.5 -24q-9 -12 -19.5 -22.5l-19.5 -19.5q-11 -9 -21 -18zM796 329q-11 8 -22 18q-10 9 -20.5 20t-19.5 23q9 13 20 24.5t20 19.5q11 10 22 19q9 -7 18 -16 l18.5 -18.5t18.5 -21.5q9 12 18.5 22t18.5 18q9 9 18 16q10 -9 21 -19q10 -9 21 -20t21 -24q-10 -12 -21 -23t-21 -20q-11 -10 -21 -18q-9 7 -18 16q-9 8 -18.5 17.5t-18.5 20.5q-9 -11 -19 -21t-18 -17q-9 -9 -18 -16zM1234 108v-105l-16 -3q-55 0 -89.5 12.5t-55.5 37.5 q-17 -23 -45 -36.5t-81 -13.5q-43 0 -70 12t-44 35q-13 -18 -36 -32.5t-68 -14.5q-27 0 -47.5 7t-38 22.5t-32.5 39.5t-32 58q-10 21 -19.5 39.5t-21.5 32.5t-27 22.5t-37 8.5q-24 0 -48.5 -7t-44.5 -17t-33 -21.5t-13 -21.5q0 -8 11 -16t28.5 -15.5t38 -14.5t39.5 -13 q72 -23 105 -51.5t33 -73.5q0 -10 -1.5 -24.5t-6 -31t-13 -34.5t-22.5 -34q-15 -17 -40.5 -34.5t-60 -32.5t-78 -24.5t-93.5 -9.5q-73 0 -121 21t-76.5 54t-39.5 72.5t-11 77.5t6 71.5t14 59.5q8 30 19 55h88q-11 -26 -20 -54q-9 -26 -15 -53.5t-6 -55.5q0 -19 6 -43t24 -45 t51.5 -35.5t88.5 -14.5q44 0 84.5 9.5t71.5 23t50 28t19 23.5q0 14 -26 29.5t-71 30.5q-49 16 -79 28t-49 37q-17 22 -20 47t2 51q5 34 27.5 64t55 53t70 36.5t71.5 13.5q38 0 63 -12.5t42.5 -32.5t29.5 -45t24 -51l18 -36t17.5 -27.5t21 -17.5t28.5 -6q27 0 38.5 6.5 t16.5 17.5q2 11 5.5 32.5t6.5 45t5.5 42.5t3.5 24h91q-4 -37 -8.5 -75t-9.5 -76q24 -18 71 -18q46 0 73 12q-1 1 -1 4q-2 13 -4.5 42t-4.5 59q-2 35 -4 75l94 9q2 -26 3 -49q2 -22 3.5 -42t2.5 -32q2 -18 6 -32.5t15 -24t30.5 -14.5t51.5 -5z" />
<glyph unicode="&#xfeb8;&#xfef2;" horiz-adv-x="1218" arabic-form="final" d="M850 440q-10 9 -21 18q-9 9 -19 19.5t-19 22.5q9 13 19 24t19 20q11 10 21 18q10 -8 21 -18q9 -9 19.5 -20t19.5 -24q-9 -12 -19.5 -22.5l-19.5 -19.5q-11 -9 -21 -18zM796 329q-11 8 -22 18q-10 9 -20.5 20t-19.5 23q9 13 20 24.5t20 19.5q11 10 22 19q9 -7 18 -16 l18.5 -18.5t18.5 -21.5q9 12 18.5 22t18.5 18q9 9 18 16q10 -9 21 -19q10 -9 21 -20t21 -24q-10 -12 -21 -23t-21 -20q-11 -10 -21 -18q-9 7 -18 16q-9 8 -18.5 17.5t-18.5 20.5q-9 -11 -19 -21t-18 -17q-9 -9 -18 -16zM1234 108v-105l-16 -3q-55 0 -89.5 12.5t-55.5 37.5 q-17 -23 -45 -36.5t-81 -13.5q-43 0 -70 12t-44 35q-13 -18 -36 -32.5t-68 -14.5q-27 0 -47.5 7t-38 22.5t-32.5 39.5t-32 58q-10 21 -19.5 39.5t-21.5 32.5t-27 22.5t-37 8.5q-24 0 -48.5 -7t-44.5 -17t-33 -21.5t-13 -21.5q0 -8 11 -16t28.5 -15.5t38 -14.5t39.5 -13 q72 -23 105 -51.5t33 -73.5q0 -10 -1.5 -24.5t-6 -31t-13 -34.5t-22.5 -34q-15 -17 -40.5 -34.5t-60 -32.5t-78 -24.5t-93.5 -9.5q-73 0 -121 21t-76.5 54t-39.5 72.5t-11 77.5t6 71.5t14 59.5q8 30 19 55h88q-11 -26 -20 -54q-9 -26 -15 -53.5t-6 -55.5q0 -19 6 -43t24 -45 t51.5 -35.5t88.5 -14.5q44 0 84.5 9.5t71.5 23t50 28t19 23.5q0 14 -26 29.5t-71 30.5q-49 16 -79 28t-49 37q-17 22 -20 47t2 51q5 34 27.5 64t55 53t70 36.5t71.5 13.5q38 0 63 -12.5t42.5 -32.5t29.5 -45t24 -51l18 -36t17.5 -27.5t21 -17.5t28.5 -6q27 0 38.5 6.5 t16.5 17.5q2 11 5.5 32.5t6.5 45t5.5 42.5t3.5 24h91q-4 -37 -8.5 -75t-9.5 -76q24 -18 71 -18q46 0 73 12q-1 1 -1 4q-2 13 -4.5 42t-4.5 59q-2 35 -4 75l94 9q2 -26 3 -49q2 -22 3.5 -42t2.5 -32q2 -18 6 -32.5t15 -24t30.5 -14.5t51.5 -5zM366 -287q10 -9 21 -19 q10 -9 20.5 -20.5t20.5 -23.5q-10 -12 -21 -23.5t-20 -20.5q-11 -10 -21 -19q-8 7 -17 15t-18 17t-18 20q-9 -11 -18.5 -20t-16.5 -17q-10 -8 -18 -15q-11 9 -21 19q-10 9 -20.5 20.5t-19.5 23.5q9 12 19.5 23.5t20.5 20.5q10 10 21 19q8 -7 18 -16q8 -7 17 -16t18 -20 q9 11 18.5 20t17.5 16q9 9 17 16z" />
<glyph unicode="&#xfebc;&#xfef0;" horiz-adv-x="1265" arabic-form="final" d="M1280 108v-105l-16 -3q-42 0 -82.5 10.5t-71.5 41.5q-50 -30 -121.5 -41t-148.5 -11h-11q-52 0 -90 6.5t-67 21t-50.5 39t-39.5 60.5q-10 21 -19.5 39.5t-21.5 32.5t-27 22.5t-37 8.5q-24 0 -48.5 -7t-44.5 -17t-33 -21.5t-13 -21.5q0 -8 11 -16t28.5 -15.5t38 -14.5 t39.5 -13q72 -23 106 -51.5t34 -73.5q0 -10 -1.5 -24.5t-6 -31t-13 -34.5t-22.5 -34q-15 -17 -40.5 -34.5t-61 -32.5t-79 -24.5t-93.5 -9.5q-73 0 -121 21t-76.5 54t-39.5 72.5t-11 77.5t6 71.5t14 59.5q8 30 19 55h90q-11 -26 -20 -54q-9 -26 -15 -53.5t-6 -55.5 q0 -19 5.5 -43t23 -45t51 -35.5t88.5 -14.5q44 0 84.5 9.5t71.5 23t50 28t19 23.5q0 14 -26 29.5t-71 30.5q-49 16 -80 28t-50 37q-17 22 -20 47t1 51q5 34 28.5 64t56 53t70.5 36.5t72 13.5q38 0 63 -12.5t42 -32.5t29 -45t25 -51q7 -13 13 -24t14 -21q25 38 59 81t74 79.5 t85 60.5t93 24q42 0 78 -20.5t62.5 -52t41 -69.5t14.5 -73q0 -32 -10 -56q16 -7 37 -11t52 -4zM848 109q48 0 94 4t81.5 11.5t57.5 19t22 25.5q0 11 -9.5 30.5t-27.5 38.5t-43 33.5t-57 14.5q-35 0 -69 -16t-64.5 -40t-56.5 -53.5t-46 -56.5q19 -5 45 -8t63 -3h10z" />
<glyph unicode="&#xfebc;&#xfef2;" horiz-adv-x="1257" arabic-form="final" d="M1273 108v-105l-16 -3q-42 0 -82.5 10.5t-71.5 41.5q-50 -30 -121.5 -41t-148.5 -11h-11q-52 0 -90 6.5t-67 21t-50.5 39t-39.5 60.5q-10 21 -19.5 39.5t-21.5 32.5t-27 22.5t-37 8.5q-24 0 -48.5 -7t-44.5 -17t-33 -21.5t-13 -21.5q0 -8 11 -16t28.5 -15.5t38 -14.5 t39.5 -13q72 -23 106 -51.5t34 -73.5q0 -10 -1.5 -24.5t-6 -31t-13 -34.5t-22.5 -34q-15 -17 -40.5 -34.5t-61 -32.5t-79 -24.5t-93.5 -9.5q-73 0 -121 21t-76.5 54t-39.5 72.5t-11 77.5t6 71.5t14 59.5q8 30 19 55h90q-11 -26 -20 -54q-9 -26 -15 -53.5t-6 -55.5 q0 -19 5.5 -43t23 -45t51 -35.5t88.5 -14.5q44 0 84.5 9.5t71.5 23t50 28t19 23.5q0 14 -26 29.5t-71 30.5q-49 16 -80 28t-50 37q-17 22 -20 47t1 51q5 34 28.5 64t56 53t70.5 36.5t72 13.5q38 0 63 -12.5t42 -32.5t29 -45t25 -51q7 -13 13 -24t14 -21q25 38 59 81t74 79.5 t85 60.5t93 24q42 0 78 -20.5t62.5 -52t41 -69.5t14.5 -73q0 -32 -10 -56q16 -7 37 -11t52 -4zM841 109q48 0 94 4t81.5 11.5t57.5 19t22 25.5q0 11 -9.5 30.5t-27.5 38.5t-43 33.5t-57 14.5q-35 0 -69 -16t-64.5 -40t-56.5 -53.5t-46 -56.5q19 -5 45 -8t63 -3h10zM359 -287 q10 -9 21 -19q10 -9 20.5 -20.5t20.5 -23.5q-10 -12 -21 -23.5t-20 -20.5q-11 -10 -21 -19q-8 7 -17 15t-18 17t-18 20q-9 -11 -18.5 -20t-16.5 -17q-10 -8 -18 -15q-11 9 -21 19q-10 9 -20.5 20.5t-19.5 23.5q9 12 19.5 23.5t20.5 20.5q10 10 21 19q8 -7 18 -16 q8 -7 17 -16t18 -20q9 11 18.5 20t17.5 16q9 9 17 16z" />
<glyph unicode="&#xfec0;&#xfef0;" horiz-adv-x="1265" arabic-form="final" d="M968 442q-11 9 -23 20q-10 10 -21 21.5t-20 24.5q9 14 20.5 26t20.5 21q12 11 23 20q11 -9 23 -20q11 -10 22 -21.5t22 -25.5q-11 -13 -22.5 -25t-21.5 -21q-12 -11 -23 -20zM1280 108v-105l-16 -3q-42 0 -82.5 10.5t-71.5 41.5q-50 -30 -121.5 -41t-148.5 -11h-11 q-52 0 -90 6.5t-67 21t-50.5 39t-39.5 60.5q-10 21 -19.5 39.5t-21.5 32.5t-27 22.5t-37 8.5q-24 0 -48.5 -7t-44.5 -17t-33 -21.5t-13 -21.5q0 -8 11 -16t28.5 -15.5t38 -14.5t39.5 -13q72 -23 106 -51.5t34 -73.5q0 -10 -1.5 -24.5t-6 -31t-13 -34.5t-22.5 -34 q-15 -17 -40.5 -34.5t-61 -32.5t-79 -24.5t-93.5 -9.5q-73 0 -121 21t-76.5 54t-39.5 72.5t-11 77.5t6 71.5t14 59.5q8 30 19 55h90q-11 -26 -20 -54q-9 -26 -15 -53.5t-6 -55.5q0 -19 5.5 -43t23 -45t51 -35.5t88.5 -14.5q44 0 84.5 9.5t71.5 23t50 28t19 23.5 q0 14 -26 29.5t-71 30.5q-49 16 -80 28t-50 37q-17 22 -20 47t1 51q5 34 28.5 64t56 53t70.5 36.5t72 13.5q38 0 63 -12.5t42 -32.5t29 -45t25 -51q7 -13 13 -24t14 -21q25 38 59 81t74 79.5t85 60.5t93 24q42 0 78 -20.5t62.5 -52t41 -69.5t14.5 -73q0 -32 -10 -56 q16 -7 37 -11t52 -4zM848 109q48 0 94 4t81.5 11.5t57.5 19t22 25.5q0 11 -9.5 30.5t-27.5 38.5t-43 33.5t-57 14.5q-35 0 -69 -16t-64.5 -40t-56.5 -53.5t-46 -56.5q19 -5 45 -8t63 -3h10z" />
<glyph unicode="&#xfec0;&#xfef2;" horiz-adv-x="1265" arabic-form="final" d="M968 442q-11 9 -23 20q-10 10 -21 21.5t-20 24.5q9 14 20.5 26t20.5 21q12 11 23 20q11 -9 23 -20q11 -10 22 -21.5t22 -25.5q-11 -13 -22.5 -25t-21.5 -21q-12 -11 -23 -20zM1280 108v-105l-16 -3q-42 0 -82.5 10.5t-71.5 41.5q-50 -30 -121.5 -41t-148.5 -11h-11 q-52 0 -90 6.5t-67 21t-50.5 39t-39.5 60.5q-10 21 -19.5 39.5t-21.5 32.5t-27 22.5t-37 8.5q-24 0 -48.5 -7t-44.5 -17t-33 -21.5t-13 -21.5q0 -8 11 -16t28.5 -15.5t38 -14.5t39.5 -13q72 -23 106 -51.5t34 -73.5q0 -10 -1.5 -24.5t-6 -31t-13 -34.5t-22.5 -34 q-15 -17 -40.5 -34.5t-61 -32.5t-79 -24.5t-93.5 -9.5q-73 0 -121 21t-76.5 54t-39.5 72.5t-11 77.5t6 71.5t14 59.5q8 30 19 55h90q-11 -26 -20 -54q-9 -26 -15 -53.5t-6 -55.5q0 -19 5.5 -43t23 -45t51 -35.5t88.5 -14.5q44 0 84.5 9.5t71.5 23t50 28t19 23.5 q0 14 -26 29.5t-71 30.5q-49 16 -80 28t-50 37q-17 22 -20 47t1 51q5 34 28.5 64t56 53t70.5 36.5t72 13.5q38 0 63 -12.5t42 -32.5t29 -45t25 -51q7 -13 13 -24t14 -21q25 38 59 81t74 79.5t85 60.5t93 24q42 0 78 -20.5t62.5 -52t41 -69.5t14.5 -73q0 -32 -10 -56 q16 -7 37 -11t52 -4zM848 109q48 0 94 4t81.5 11.5t57.5 19t22 25.5q0 11 -9.5 30.5t-27.5 38.5t-43 33.5t-57 14.5q-35 0 -69 -16t-64.5 -40t-56.5 -53.5t-46 -56.5q19 -5 45 -8t63 -3h10zM366 -287q10 -9 21 -19q10 -9 20.5 -20.5t20.5 -23.5q-10 -12 -21 -23.5t-20 -20.5 q-11 -10 -21 -19q-8 7 -17 15t-18 17t-18 20q-9 -11 -18.5 -20t-16.5 -17q-10 -8 -18 -15q-11 9 -21 19q-10 9 -20.5 20.5t-19.5 23.5q9 12 19.5 23.5t20.5 20.5q10 10 21 19q8 -7 18 -16q8 -7 17 -16t18 -20q9 11 18.5 20t17.5 16q9 9 17 16z" />
<glyph unicode="&#xfeb8;&#xfeae;" horiz-adv-x="1058" arabic-form="final" d="M690 440q-10 9 -21 18q-9 9 -19 19.5t-19 22.5q9 13 19 24t19 20q11 10 21 18q10 -8 21 -18q9 -9 19.5 -20t19.5 -24q-9 -12 -19.5 -22.5l-19.5 -19.5q-11 -9 -21 -18zM636 329q-11 8 -22 18q-10 9 -20.5 20t-19.5 23q9 13 20 24.5t20 19.5q11 10 22 19q9 -7 18 -16 l18.5 -18.5t18.5 -21.5q9 12 18.5 22t18.5 18q9 9 18 16q10 -9 21 -19q10 -9 21 -20t21 -24q-10 -12 -21 -23t-21 -20q-11 -10 -21 -18q-9 7 -18 16q-9 8 -18.5 17.5t-18.5 20.5q-9 -11 -19 -21t-18 -17q-9 -9 -18 -16zM1074 108v-105l-16 -3q-55 0 -90 12.5t-56 37.5 q-17 -23 -45 -36.5t-81 -13.5q-43 0 -69.5 12t-43.5 35q-14 -19 -40 -33t-74 -14q-78 0 -113 38.5t-40 105.5l-3 38q-15 -28 -47.5 -39t-64.5 -11q-22 0 -38 8q6 -51 -6 -114q-6 -30 -20 -68.5t-40 -72.5t-65.5 -57.5t-95.5 -23.5q-16 0 -28.5 2.5t-20.5 5.5q-10 4 -18 9 l-7 105q2 -1 20.5 -6t47.5 -5q40 0 68 17t46 44t26 60t8 65q0 17 -15.5 62t-43.5 132l96 18q1 -3 3 -6q1 -4 2.5 -8t3.5 -10q11 -25 24 -35.5t44 -10.5q32 0 53 4t34 10.5t19.5 14t10.5 13.5q-1 9 -1 15v10l92 7l5 -123q2 -50 17 -66.5t53 -16.5q29 0 43.5 6t19.5 17 q2 11 5.5 32.5t6.5 45t5.5 42.5t3.5 24h91q-8 -76 -18 -152q25 -17 70 -17q43 0 74 13q-1 1 -1 3q-2 13 -4.5 42t-4.5 59q-2 35 -4 75l94 9q2 -26 3 -49q2 -22 3.5 -42t2.5 -32q2 -18 6 -32.5t15 -24t30.5 -14.5t51.5 -5z" />
<glyph unicode="&#xfeb4;&#xfeae;" horiz-adv-x="1058" arabic-form="final" d="M1074 108v-105l-16 -3q-55 0 -90 12.5t-56 37.5q-17 -23 -45 -36.5t-81 -13.5q-43 0 -69.5 12t-43.5 35q-14 -19 -40 -33t-74 -14q-78 0 -113 38.5t-40 105.5l-3 38q-15 -28 -47.5 -39t-64.5 -11q-22 0 -38 8q6 -51 -6 -114q-6 -30 -20 -68.5t-40 -72.5t-65.5 -57.5 t-95.5 -23.5q-16 0 -28.5 2.5t-20.5 5.5q-10 4 -18 9l-7 105q2 -1 20.5 -6t47.5 -5q40 0 68 17t46 44t26 60t8 65q0 17 -15.5 62t-43.5 132l96 18q1 -3 3 -6q1 -4 2.5 -8t3.5 -10q11 -25 24 -35.5t44 -10.5q32 0 53 4t34 10.5t19.5 14t10.5 13.5q-1 9 -1 15v10l92 7l5 -123 q2 -50 17 -66.5t53 -16.5q29 0 43.5 6t19.5 17q2 11 5.5 32.5t6.5 45t5.5 42.5t3.5 24h91q-8 -76 -18 -152q25 -17 70 -17q43 0 74 13q-1 1 -1 3q-2 13 -4.5 42t-4.5 59q-2 35 -4 75l94 9q2 -26 3 -49q2 -22 3.5 -42t2.5 -32q2 -18 6 -32.5t15 -24t30.5 -14.5t51.5 -5z" />
<glyph unicode="&#xfebc;&#xfeae;" horiz-adv-x="1128" arabic-form="final" d="M1144 108v-105l-16 -3q-41 0 -81.5 10.5t-72.5 41.5q-50 -30 -120.5 -41t-147.5 -11h-13q-61 0 -112.5 7t-90 26t-60.5 51t-25 82q0 4 -0.5 8t-0.5 9q-15 -29 -48 -40t-65 -11q-22 0 -38 8q6 -51 -6 -114q-6 -30 -20 -68.5t-40 -72.5t-65.5 -57.5t-95.5 -23.5 q-16 0 -28.5 2.5t-20.5 5.5q-10 4 -18 9l-7 105q2 -1 20.5 -6t47.5 -5q40 0 68 17t46 44t26 60t8 65q0 17 -15.5 62t-43.5 132l96 18q1 -3 3 -6q1 -4 2.5 -8t3.5 -10q11 -25 24 -35.5t44 -10.5q32 0 53 4.5t34 10.5t19.5 13.5t10.5 13.5q-1 8 -1 14.5v10.5l92 7l5 -113 q1 -50 37 -71q24 38 58 84t76 86t90 67t99 27q42 0 78 -20.5t62.5 -52t41 -69.5t14.5 -73q0 -16 -2.5 -30t-7.5 -26q15 -7 36 -11t51 -4zM714 109q48 0 93.5 4t81.5 11.5t58 19t22 25.5q0 11 -9.5 30.5t-27.5 38.5t-43 33.5t-57 14.5q-36 0 -70.5 -16.5t-66 -42t-57.5 -55.5 t-46 -57q22 -4 49 -5t61 -1h12z" />
<glyph unicode="&#xfec0;&#xfeae;" horiz-adv-x="1128" arabic-form="final" d="M837 442q-11 9 -23 20q-10 10 -21 21.5t-20 24.5q9 14 20.5 26t20.5 21q12 11 23 20q11 -9 23 -20q11 -10 22 -21.5t22 -25.5q-11 -13 -22.5 -25t-21.5 -21q-12 -11 -23 -20zM1144 108v-105l-16 -3q-41 0 -81.5 10.5t-72.5 41.5q-50 -30 -120.5 -41t-147.5 -11h-13 q-61 0 -112.5 7t-90 26t-60.5 51t-25 82q0 4 -0.5 8t-0.5 9q-15 -29 -48 -40t-65 -11q-22 0 -38 8q6 -51 -6 -114q-6 -30 -20 -68.5t-40 -72.5t-65.5 -57.5t-95.5 -23.5q-16 0 -28.5 2.5t-20.5 5.5q-10 4 -18 9l-7 105q2 -1 20.5 -6t47.5 -5q40 0 68 17t46 44t26 60t8 65 q0 17 -15.5 62t-43.5 132l96 18q1 -3 3 -6q1 -4 2.5 -8t3.5 -10q11 -25 24 -35.5t44 -10.5q32 0 53 4.5t34 10.5t19.5 13.5t10.5 13.5q-1 8 -1 14.5v10.5l92 7l5 -113q1 -50 37 -71q24 38 58 84t76 86t90 67t99 27q42 0 78 -20.5t62.5 -52t41 -69.5t14.5 -73q0 -16 -2.5 -30 t-7.5 -26q15 -7 36 -11t51 -4zM714 109q48 0 93.5 4t81.5 11.5t58 19t22 25.5q0 11 -9.5 30.5t-27.5 38.5t-43 33.5t-57 14.5q-36 0 -70.5 -16.5t-66 -42t-57.5 -55.5t-46 -57q22 -4 49 -5t61 -1h12z" />
<glyph unicode="&#xfedf;&#xfe82;" horiz-adv-x="518" arabic-form="isolated" d="M463 505q0 -83 -20 -135t-50 -88q28 -34 46 -70.5t18 -71.5q0 -80 -53 -111t-151 -31h-42.5t-54.5 1t-53.5 2t-40.5 4l15 107q17 11 43.5 30t55.5 40.5t58 44t50 41.5q-48 42 -116.5 93.5t-157.5 107.5l34 104q85 -57 161 -116.5t136 -118.5q11 23 17.5 55.5t6.5 89.5 v197l98 6v-181zM187 595q-35 0 -60 7t-49 7q-11 0 -21.5 -2t-18.5 -4q-9 -3 -17 -6v64q5 4 20.5 10t36.5 6q24 0 48 -6.5t62 -6.5q49 0 95 15v-67q-13 -5 -29 -8q-14 -4 -31 -6.5t-36 -2.5zM267 107q48 0 81 7.5t33 21.5q0 11 -10 33t-38 52q-34 -29 -77.5 -59.5 t-81.5 -53.5q20 -1 43.5 -1h49.5z" />
<glyph unicode="&#xfee0;&#xfe82;" horiz-adv-x="561" arabic-form="final" d="M576 108v-105l-16 -3q-33 0 -62 5t-52 18.5t-40 38t-27 64.5q-8 -14 -17 -27t-21 -22q-15 -12 -41.5 -27t-64 -28.5t-86 -24t-107.5 -13.5l-17 107q59 4 108 13.5t89 23.5q0 17 -1.5 34.5t-5.5 32.5q-6 28 -16.5 58t-31.5 65.5t-55.5 79t-89.5 98.5l61 82 q103 -97 151.5 -185.5t59.5 -161.5q6 -37 6 -69q41 23 67 50q-1 12 -1.5 25t-0.5 27v416l98 6v-478q0 -29 4 -47.5t15 -29.5t29.5 -15.5t48.5 -4.5zM203 597q-35 0 -60 7t-49 7q-11 0 -21.5 -2t-18.5 -4q-9 -3 -17 -6v64q5 4 20.5 10t36.5 6q24 0 48 -6.5t62 -6.5 q49 0 95 15v-67q-13 -5 -29 -8q-14 -4 -31 -6.5t-36 -2.5z" />
<glyph unicode="&#xfedf;&#xfe84;" horiz-adv-x="515" arabic-form="isolated" d="M236 606q-23 -5 -69.5 -12t-102.5 -7v58q8 0 15.5 0.5t13.5 1.5q-5 6 -8.5 15.5t-3.5 20.5q0 15 6 30t17 27.5t25.5 20t31.5 7.5q15 0 28 -6.5t21 -15.5l-9 -56q-9 8 -18.5 12t-22.5 4q-20 0 -30.5 -10t-10.5 -16q0 -7 10 -16.5t34 -9.5q16 0 37.5 3.5t35.5 7.5v-59z M460 505q0 -83 -20 -135t-50 -88q28 -34 46 -70.5t18 -71.5q0 -80 -53 -111t-151 -31h-42.5t-54.5 1t-53.5 2t-40.5 4l15 107q17 11 43.5 30t55.5 40.5t58 44t50 41.5q-48 42 -116.5 93.5t-157.5 107.5l34 104q85 -57 161 -116.5t136 -118.5q11 23 17.5 55.5t6.5 89.5v197 l98 6v-181zM264 107q48 0 81 7.5t33 21.5q0 11 -10 33t-38 52q-34 -29 -77.5 -59.5t-81.5 -53.5q20 -1 43.5 -1h49.5z" />
<glyph unicode="&#xfee0;&#xfe84;" horiz-adv-x="558" arabic-form="final" d="M190 623q-23 -5 -69.5 -12t-102.5 -7v58q8 0 15.5 0.5t13.5 1.5q-5 6 -8.5 15.5t-3.5 20.5q0 15 6 30t17 27.5t25.5 20t31.5 7.5q15 0 28 -6.5t21 -15.5l-9 -56q-9 8 -18.5 12t-22.5 4q-20 0 -30.5 -10t-10.5 -16q0 -7 10 -16.5t34 -9.5q16 0 37.5 3.5t35.5 7.5v-59z M573 108v-105l-16 -3q-33 0 -62 5t-52 18.5t-40 38t-27 64.5q-8 -14 -17 -27t-21 -22q-15 -12 -41.5 -27t-64 -28.5t-86 -24t-107.5 -13.5l-17 107q59 4 108 13.5t89 23.5q0 17 -1.5 34.5t-5.5 32.5q-6 28 -16.5 58t-31.5 65.5t-55.5 79t-89.5 98.5l61 82 q103 -97 151.5 -185.5t59.5 -161.5q6 -37 6 -69q41 23 67 50q-1 12 -1.5 25t-0.5 27v416l98 6v-478q0 -29 4 -47.5t15 -29.5t29.5 -15.5t48.5 -4.5z" />
<glyph unicode="&#xfedf;&#xfe88;" horiz-adv-x="515" arabic-form="isolated" d="M460 505q0 -83 -20 -135t-50 -88q28 -34 46 -70.5t18 -71.5q0 -80 -53 -111t-151 -31h-42.5t-54.5 1t-53.5 2t-40.5 4l15 107q17 11 43.5 30t55.5 40.5t58 44t50 41.5q-48 42 -116.5 93.5t-157.5 107.5l34 104q85 -57 161 -116.5t136 -118.5q11 23 17.5 55.5t6.5 89.5 v197l98 6v-181zM264 107q48 0 81 7.5t33 21.5q0 11 -10 33t-38 52q-34 -29 -77.5 -59.5t-81.5 -53.5q20 -1 43.5 -1h49.5zM124 -124q0 -7 10 -16.5t34 -9.5q16 0 37.5 3.5t35.5 7.5v-59q-23 -5 -69.5 -12t-102.5 -7v58q8 0 15.5 0.5t13.5 1.5q-5 6 -8.5 15.5t-3.5 20.5 q0 15 6 30t17 27.5t25.5 20t31.5 7.5q15 0 28 -6.5t21 -15.5l-9 -56q-9 8 -18.5 12t-22.5 4q-20 0 -30.5 -10t-10.5 -16z" />
<glyph unicode="&#xfee0;&#xfe88;" horiz-adv-x="558" arabic-form="final" d="M573 108v-105l-16 -3q-33 0 -62 5t-52 18.5t-40 38t-27 64.5q-8 -14 -17 -27t-21 -22q-15 -12 -41.5 -27t-64 -28.5t-86 -24t-107.5 -13.5l-17 107q59 4 108 13.5t89 23.5q0 17 -1.5 34.5t-5.5 32.5q-6 28 -16.5 58t-31.5 65.5t-55.5 79t-89.5 98.5l61 82 q103 -97 151.5 -185.5t59.5 -161.5q6 -37 6 -69q41 23 67 50q-1 12 -1.5 25t-0.5 27v416l98 6v-478q0 -29 4 -47.5t15 -29.5t29.5 -15.5t48.5 -4.5zM196 -113q0 -7 10 -16.5t34 -9.5q16 0 37.5 3.5t35.5 7.5v-59q-23 -5 -69.5 -12t-102.5 -7v58q8 0 15.5 0.5t13.5 1.5 q-5 6 -8.5 15.5t-3.5 20.5q0 15 6 30t17 27.5t25.5 20t31.5 7.5q15 0 28 -6.5t21 -15.5l-9 -56q-9 8 -18.5 12t-22.5 4q-20 0 -30.5 -10t-10.5 -16z" />
<glyph unicode="&#xfedf;&#xfe8e;" horiz-adv-x="515" arabic-form="isolated" d="M460 505q0 -83 -20 -135t-50 -88q28 -34 46 -70.5t18 -71.5q0 -80 -53 -111t-151 -31h-42.5t-54.5 1t-53.5 2t-40.5 4l15 107q17 11 43.5 30t55.5 40.5t58 44t50 41.5q-48 42 -116.5 93.5t-157.5 107.5l34 104q85 -57 161 -116.5t136 -118.5q11 23 17.5 55.5t6.5 89.5 v197l98 6v-181zM264 107q48 0 81 7.5t33 21.5q0 11 -10 33t-38 52q-34 -29 -77.5 -59.5t-81.5 -53.5q20 -1 43.5 -1h49.5z" />
<glyph unicode="&#xfee0;&#xfe8e;" horiz-adv-x="558" arabic-form="final" d="M573 108v-105l-16 -3q-33 0 -62 5t-52 18.5t-40 38t-27 64.5q-8 -14 -17 -27t-21 -22q-15 -12 -41.5 -27t-64 -28.5t-86 -24t-107.5 -13.5l-17 107q59 4 108 13.5t89 23.5q0 17 -1.5 34.5t-5.5 32.5q-6 28 -16.5 58t-31.5 65.5t-55.5 79t-89.5 98.5l61 82 q103 -97 151.5 -185.5t59.5 -161.5q6 -37 6 -69q41 23 67 50q-1 12 -1.5 25t-0.5 27v416l98 6v-478q0 -29 4 -47.5t15 -29.5t29.5 -15.5t48.5 -4.5z" />
<glyph unicode="&#xfe8b;&#xfe8a;" horiz-adv-x="708" d="M596 475q16 0 37.5 3.5t35.5 7.5v-59q-23 -5 -69.5 -12t-102.5 -7v58q8 0 15.5 0.5t13.5 1.5q-5 6 -8.5 15.5t-3.5 20.5q0 15 6 30t17 27.5t25.5 20t31.5 7.5q15 0 28 -6.5t21 -15.5l-9 -56q-9 8 -18.5 12t-22.5 4q-20 0 -30.5 -10t-10.5 -16q0 -7 10 -16.5t34 -9.5z M639 376q4 -22 8.5 -48.5t8 -54.5t6 -54t2.5 -47q0 -45 -16 -77.5t-38 -52.5q-8 -7 -17.5 -12.5t-20.5 -10.5q14 -19 14 -40q0 -23 -6 -56t-33 -68q-15 -18 -39.5 -37t-58.5 -35t-77 -26t-94 -10q-73 0 -120 21t-75 54t-39 73t-11 78t6 71.5t14 58.5q8 30 19 54h90 q-11 -26 -20 -53q-9 -25 -15 -52.5t-6 -54.5q0 -20 5.5 -44t23.5 -45t51.5 -35.5t88.5 -14.5q45 0 85.5 10t70.5 24.5t47.5 29t17.5 23.5q0 20 -33.5 37.5t-93.5 17.5h-1l20 111h50q68 0 93 10.5t25 22.5q0 29 -6.5 85t-19.5 129zM198 212q-23 -5 -69.5 -12t-102.5 -7v58 q8 0 15.5 0.5t13.5 1.5q-5 6 -8.5 15.5t-3.5 20.5q0 15 6 30t17 27.5t25.5 20t31.5 7.5q15 0 28 -6.5t21 -15.5l-9 -56q-9 8 -18.5 12t-22.5 4q-20 0 -30.5 -10t-10.5 -16q0 -7 10 -16.5t34 -9.5q16 0 37.5 3.5t35.5 7.5v-59z" />
<glyph unicode="&#xfe8c;&#xfe8a;" horiz-adv-x="740" d="M596 388q-23 -5 -69.5 -12t-102.5 -7v58q8 0 15.5 0.5t13.5 1.5q-5 6 -8.5 15.5t-3.5 20.5q0 15 6 30t17 27.5t25.5 20t31.5 7.5q15 0 28 -6.5t21 -15.5l-9 -56q-9 8 -18.5 12t-22.5 4q-20 0 -30.5 -10t-10.5 -16q0 -7 10 -16.5t34 -9.5q16 0 37.5 3.5t35.5 7.5v-59z M198 220q-23 -5 -69.5 -12t-102.5 -7v58q8 0 15.5 0.5t13.5 1.5q-5 6 -8.5 15.5t-3.5 20.5q0 15 6 30t17 27.5t25.5 20t31.5 7.5q15 0 28 -6.5t21 -15.5l-9 -56q-9 8 -18.5 12t-22.5 4q-20 0 -30.5 -10t-10.5 -16q0 -7 10 -16.5t34 -9.5q16 0 37.5 3.5t35.5 7.5v-59z M757 108v-105l-16 -3q-29 0 -50 6.5t-38 21.5t-32.5 40.5t-33.5 64.5q-20 41 -44 69t-68 28q-24 0 -47.5 -7t-42 -17t-30.5 -21.5t-12 -21.5q0 -8 11 -16t28.5 -15.5t38 -14.5t39.5 -13q72 -23 105 -51.5t33 -73.5q0 -10 -1.5 -24.5t-6 -31t-13 -34.5t-22.5 -34 q-15 -17 -40.5 -34.5t-60 -32.5t-78 -24.5t-93.5 -9.5q-73 0 -121 21t-76.5 54t-39.5 72.5t-11 77.5t6 71.5t14 59.5q8 30 19 55h90q-11 -26 -20 -54q-9 -26 -15 -53.5t-6 -55.5q0 -19 5.5 -43t23 -45t51 -35.5t88.5 -14.5q44 0 84.5 9.5t71.5 23t50 28t19 23.5 q0 14 -26 29.5t-71 30.5q-49 16 -79 28t-49 37q-17 22 -20 47t2 51q5 34 26.5 64t52.5 53t67 36.5t70 13.5q36 0 62.5 -11.5t46 -30.5t33 -43.5t25.5 -49.5q14 -31 23.5 -49t18 -27.5t18.5 -12.5t25 -3z" />
<glyph unicode="&#xfe92;&#xfe8a;" horiz-adv-x="740" d="M198 220q-23 -5 -69.5 -12t-102.5 -7v58q8 0 15.5 0.5t13.5 1.5q-5 6 -8.5 15.5t-3.5 20.5q0 15 6 30t17 27.5t25.5 20t31.5 7.5q15 0 28 -6.5t21 -15.5l-9 -56q-9 8 -18.5 12t-22.5 4q-20 0 -30.5 -10t-10.5 -16q0 -7 10 -16.5t34 -9.5q16 0 37.5 3.5t35.5 7.5v-59z M757 108v-105l-16 -3q-29 0 -50 6.5t-38 21.5t-32.5 40.5t-33.5 64.5q-20 41 -44 69t-68 28q-24 0 -47.5 -7t-42 -17t-30.5 -21.5t-12 -21.5q0 -8 11 -16t28.5 -15.5t38 -14.5t39.5 -13q72 -23 105 -51.5t33 -73.5q0 -10 -1.5 -24.5t-6 -31t-13 -34.5t-22.5 -34 q-15 -17 -40.5 -34.5t-60 -32.5t-78 -24.5t-93.5 -9.5q-73 0 -121 21t-76.5 54t-39.5 72.5t-11 77.5t6 71.5t14 59.5q8 30 19 55h90q-11 -26 -20 -54q-9 -26 -15 -53.5t-6 -55.5q0 -19 5.5 -43t23 -45t51 -35.5t88.5 -14.5q44 0 84.5 9.5t71.5 23t50 28t19 23.5 q0 14 -26 29.5t-71 30.5q-49 16 -79 28t-49 37q-17 22 -20 47t2 51q5 34 26.5 64t52.5 53t67 36.5t70 13.5q36 0 62.5 -11.5t46 -30.5t33 -43.5t25.5 -49.5q14 -31 23.5 -49t18 -27.5t18.5 -12.5t25 -3zM670 -57q11 -9 23 -20q11 -10 22 -21.5t22 -25.5q-11 -13 -22.5 -25 t-21.5 -21q-12 -11 -23 -20q-11 9 -23 20q-10 10 -21 21.5t-20 24.5q9 14 20.5 26t20.5 21q12 11 23 20z" />
<glyph unicode="&#xfe97;&#xfe8a;" horiz-adv-x="714" d="M637 555q10 -9 21 -19q10 -9 20.5 -20.5t20.5 -23.5q-10 -12 -21 -23.5t-20 -20.5q-11 -10 -21 -19q-8 7 -17 16q-9 7 -18 16t-18 20q-9 -11 -18.5 -20t-16.5 -16q-10 -9 -18 -16q-11 9 -21 19q-10 9 -20.5 20.5t-19.5 23.5q9 12 19.5 23.5t20.5 20.5q10 10 21 19 q8 -7 18 -15l17 -17t18 -20q9 11 18.5 20t17.5 17q9 8 17 15zM639 376q4 -22 8.5 -48.5t8 -54.5t6 -54t2.5 -47q0 -45 -16 -77.5t-38 -52.5q-8 -7 -17.5 -12.5t-20.5 -10.5q14 -19 14 -40q0 -23 -6 -56t-33 -68q-15 -18 -39.5 -37t-58.5 -35t-77 -26t-94 -10q-73 0 -120 21 t-75 54t-39 73t-11 78t6 71.5t14 58.5q8 30 19 54h90q-11 -26 -20 -53q-9 -25 -15 -52.5t-6 -54.5q0 -20 5.5 -44t23.5 -45t51.5 -35.5t88.5 -14.5q45 0 85.5 10t70.5 24.5t47.5 29t17.5 23.5q0 20 -33.5 37.5t-93.5 17.5h-1l20 111h50q68 0 93 10.5t25 22.5q0 29 -6.5 85 t-19.5 129zM198 212q-23 -5 -69.5 -12t-102.5 -7v58q8 0 15.5 0.5t13.5 1.5q-5 6 -8.5 15.5t-3.5 20.5q0 15 6 30t17 27.5t25.5 20t31.5 7.5q15 0 28 -6.5t21 -15.5l-9 -56q-9 8 -18.5 12t-22.5 4q-20 0 -30.5 -10t-10.5 -16q0 -7 10 -16.5t34 -9.5q16 0 37.5 3.5t35.5 7.5 v-59z" />
<glyph unicode="&#xfe98;&#xfe8a;" horiz-adv-x="740" d="M460 381q-11 9 -21 19q-10 9 -20.5 20.5t-19.5 23.5q9 12 19.5 23.5t20.5 20.5q10 10 21 19q8 -7 18 -15l17 -17t18 -20q9 11 18.5 20t17.5 17q9 8 17 15q10 -9 21 -19q10 -9 20.5 -20.5t20.5 -23.5q-10 -12 -21 -23.5t-20 -20.5q-11 -10 -21 -19q-8 7 -17 16 q-9 7 -18 16t-18 20q-9 -11 -18.5 -20t-16.5 -16q-10 -9 -18 -16zM198 220q-23 -5 -69.5 -12t-102.5 -7v58q8 0 15.5 0.5t13.5 1.5q-5 6 -8.5 15.5t-3.5 20.5q0 15 6 30t17 27.5t25.5 20t31.5 7.5q15 0 28 -6.5t21 -15.5l-9 -56q-9 8 -18.5 12t-22.5 4q-20 0 -30.5 -10 t-10.5 -16q0 -7 10 -16.5t34 -9.5q16 0 37.5 3.5t35.5 7.5v-59zM757 108v-105l-16 -3q-29 0 -50 6.5t-38 21.5t-32.5 40.5t-33.5 64.5q-20 41 -44 69t-68 28q-24 0 -47.5 -7t-42 -17t-30.5 -21.5t-12 -21.5q0 -8 11 -16t28.5 -15.5t38 -14.5t39.5 -13q72 -23 105 -51.5 t33 -73.5q0 -10 -1.5 -24.5t-6 -31t-13 -34.5t-22.5 -34q-15 -17 -40.5 -34.5t-60 -32.5t-78 -24.5t-93.5 -9.5q-73 0 -121 21t-76.5 54t-39.5 72.5t-11 77.5t6 71.5t14 59.5q8 30 19 55h90q-11 -26 -20 -54q-9 -26 -15 -53.5t-6 -55.5q0 -19 5.5 -43t23 -45t51 -35.5 t88.5 -14.5q44 0 84.5 9.5t71.5 23t50 28t19 23.5q0 14 -26 29.5t-71 30.5q-49 16 -79 28t-49 37q-17 22 -20 47t2 51q5 34 26.5 64t52.5 53t67 36.5t70 13.5q36 0 62.5 -11.5t46 -30.5t33 -43.5t25.5 -49.5q14 -31 23.5 -49t18 -27.5t18.5 -12.5t25 -3z" />
<glyph unicode="&#xfe9b;&#xfe8a;" horiz-adv-x="714" d="M585 528q-10 9 -21 18q-9 9 -19 19.5t-19 22.5q9 13 19 24t19 20q11 10 21 18q10 -8 21 -18q9 -9 19.5 -20t19.5 -24q-9 -12 -19.5 -22.5l-19.5 -19.5q-11 -9 -21 -18zM641 541q10 -9 21 -19q10 -9 21 -20t21 -24q-10 -12 -21 -23t-21 -20q-11 -10 -21 -18q-9 7 -18 16 q-9 8 -18.5 17.5t-18.5 20.5q-9 -11 -19 -21t-18 -17q-9 -9 -18 -16q-11 8 -22 18q-10 9 -20.5 20t-19.5 23q9 13 20 24.5t20 19.5q11 10 22 19q9 -7 18 -16l18.5 -18.5t18.5 -21.5q9 12 18.5 22t18.5 18q9 9 18 16zM639 376q4 -22 8.5 -48.5t8 -54.5t6 -54t2.5 -47 q0 -45 -16 -77.5t-38 -52.5q-8 -7 -17.5 -12.5t-20.5 -10.5q14 -19 14 -40q0 -23 -6 -56t-33 -68q-15 -18 -39.5 -37t-58.5 -35t-77 -26t-94 -10q-73 0 -120 21t-75 54t-39 73t-11 78t6 71.5t14 58.5q8 30 19 54h90q-11 -26 -20 -53q-9 -25 -15 -52.5t-6 -54.5 q0 -20 5.5 -44t23.5 -45t51.5 -35.5t88.5 -14.5q45 0 85.5 10t70.5 24.5t47.5 29t17.5 23.5q0 20 -33.5 37.5t-93.5 17.5h-1l20 111h50q68 0 93 10.5t25 22.5q0 29 -6.5 85t-19.5 129zM198 212q-23 -5 -69.5 -12t-102.5 -7v58q8 0 15.5 0.5t13.5 1.5q-5 6 -8.5 15.5 t-3.5 20.5q0 15 6 30t17 27.5t25.5 20t31.5 7.5q15 0 28 -6.5t21 -15.5l-9 -56q-9 8 -18.5 12t-22.5 4q-20 0 -30.5 -10t-10.5 -16q0 -7 10 -16.5t34 -9.5q16 0 37.5 3.5t35.5 7.5v-59z" />
<glyph unicode="&#xfe9c;&#xfe8a;" horiz-adv-x="740" d="M509 481q-10 9 -21 18q-9 9 -19 19.5t-19 22.5q9 13 19 24t19 20q11 10 21 18q10 -8 21 -18q9 -9 19.5 -20t19.5 -24q-9 -12 -19.5 -22.5l-19.5 -19.5q-11 -9 -21 -18zM455 370q-11 8 -22 18q-10 9 -20.5 20t-19.5 23q9 13 20 24.5t20 19.5q11 10 22 19q9 -7 18 -16 l18.5 -18.5t18.5 -21.5q9 12 18.5 22t18.5 18q9 9 18 16q10 -9 21 -19q10 -9 21 -20t21 -24q-10 -12 -21 -23t-21 -20q-11 -10 -21 -18q-9 7 -18 16q-9 8 -18.5 17.5t-18.5 20.5q-9 -11 -19 -21t-18 -17q-9 -9 -18 -16zM198 220q-23 -5 -69.5 -12t-102.5 -7v58q8 0 15.5 0.5 t13.5 1.5q-5 6 -8.5 15.5t-3.5 20.5q0 15 6 30t17 27.5t25.5 20t31.5 7.5q15 0 28 -6.5t21 -15.5l-9 -56q-9 8 -18.5 12t-22.5 4q-20 0 -30.5 -10t-10.5 -16q0 -7 10 -16.5t34 -9.5q16 0 37.5 3.5t35.5 7.5v-59zM757 108v-105l-16 -3q-29 0 -50 6.5t-38 21.5t-32.5 40.5 t-33.5 64.5q-20 41 -44 69t-68 28q-24 0 -47.5 -7t-42 -17t-30.5 -21.5t-12 -21.5q0 -8 11 -16t28.5 -15.5t38 -14.5t39.5 -13q72 -23 105 -51.5t33 -73.5q0 -10 -1.5 -24.5t-6 -31t-13 -34.5t-22.5 -34q-15 -17 -40.5 -34.5t-60 -32.5t-78 -24.5t-93.5 -9.5q-73 0 -121 21 t-76.5 54t-39.5 72.5t-11 77.5t6 71.5t14 59.5q8 30 19 55h90q-11 -26 -20 -54q-9 -26 -15 -53.5t-6 -55.5q0 -19 5.5 -43t23 -45t51 -35.5t88.5 -14.5q44 0 84.5 9.5t71.5 23t50 28t19 23.5q0 14 -26 29.5t-71 30.5q-49 16 -79 28t-49 37q-17 22 -20 47t2 51q5 34 26.5 64 t52.5 53t67 36.5t70 13.5q36 0 62.5 -11.5t46 -30.5t33 -43.5t25.5 -49.5q14 -31 23.5 -49t18 -27.5t18.5 -12.5t25 -3z" />
<glyph unicode="&#xfeb3;&#xfe8a;" horiz-adv-x="1168" d="M198 220q-23 -5 -69.5 -12t-102.5 -7v58q8 0 15.5 0.5t13.5 1.5q-5 6 -8.5 15.5t-3.5 20.5q0 15 6 30t17 27.5t25.5 20t31.5 7.5q15 0 28 -6.5t21 -15.5l-9 -56q-9 8 -18.5 12t-22.5 4q-20 0 -30.5 -10t-10.5 -16q0 -7 10 -16.5t34 -9.5q16 0 37.5 3.5t35.5 7.5v-59z M1110 341q5 -57 9 -105q2 -29 3.5 -47t2.5 -35t2 -30.5t1 -20.5q0 -18 -9.5 -38.5t-23.5 -38.5t-30 -29.5t-30 -11.5t-37 4.5t-49.5 13.5t-53.5 22t-50 30q-12 -20 -36 -37.5t-73 -17.5q-27 0 -47.5 7t-38 22.5t-32.5 39.5t-32 58q-10 21 -19.5 39.5t-21.5 32.5t-27 22.5 t-37 8.5q-24 0 -48.5 -7t-44.5 -17t-33 -21.5t-13 -21.5q0 -8 11 -16t28.5 -15.5t38 -14.5t39.5 -13q72 -23 105 -51.5t33 -73.5q0 -10 -1.5 -24.5t-6 -31t-13 -34.5t-22.5 -34q-15 -17 -40.5 -34.5t-60 -32.5t-78 -24.5t-93.5 -9.5q-73 0 -121 21t-76.5 54t-39.5 72.5 t-11 77.5t6 71.5t14 59.5q8 30 19 55h90q-11 -26 -20 -54q-9 -26 -15 -53.5t-6 -55.5q0 -19 5.5 -43t23 -45t51 -35.5t88.5 -14.5q44 0 84.5 9.5t71.5 23t50 28t19 23.5q0 14 -26 29.5t-71 30.5q-49 16 -79 28t-49 37q-17 22 -20 47t2 51q5 34 27.5 64t55 53t70 36.5 t71.5 13.5q38 0 63 -12.5t42.5 -32.5t29.5 -45t24 -51l18 -36t17.5 -27.5t21 -17.5t28.5 -6q27 0 38.5 6.5t16.5 17.5q2 11 5.5 32.5t6.5 45t5.5 42.5t3.5 24h91q-3 -31 -6.5 -63t-7.5 -64q28 -17 67.5 -32.5t73.5 -22.5l-19 235z" />
<glyph unicode="&#xfeb4;&#xfe8a;" horiz-adv-x="1225" d="M198 220q-23 -5 -69.5 -12t-102.5 -7v58q8 0 15.5 0.5t13.5 1.5q-5 6 -8.5 15.5t-3.5 20.5q0 15 6 30t17 27.5t25.5 20t31.5 7.5q15 0 28 -6.5t21 -15.5l-9 -56q-9 8 -18.5 12t-22.5 4q-20 0 -30.5 -10t-10.5 -16q0 -7 10 -16.5t34 -9.5q16 0 37.5 3.5t35.5 7.5v-59z M1241 108v-105l-16 -3q-55 0 -89.5 12.5t-55.5 37.5q-17 -23 -45 -36.5t-81 -13.5q-43 0 -70 12t-44 35q-13 -18 -36 -32.5t-68 -14.5q-27 0 -47.5 7t-38 22.5t-32.5 39.5t-32 58q-10 21 -19.5 39.5t-21.5 32.5t-27 22.5t-37 8.5q-24 0 -48.5 -7t-44.5 -17t-33 -21.5 t-13 -21.5q0 -8 11 -16t28.5 -15.5t38 -14.5t39.5 -13q72 -23 105 -51.5t33 -73.5q0 -10 -1.5 -24.5t-6 -31t-13 -34.5t-22.5 -34q-15 -17 -40.5 -34.5t-60 -32.5t-78 -24.5t-93.5 -9.5q-73 0 -121 21t-76.5 54t-39.5 72.5t-11 77.5t6 71.5t14 59.5q8 30 19 55h88 q-11 -26 -20 -54q-9 -26 -15 -53.5t-6 -55.5q0 -19 6 -43t24 -45t51.5 -35.5t88.5 -14.5q44 0 84.5 9.5t71.5 23t50 28t19 23.5q0 14 -26 29.5t-71 30.5q-49 16 -79 28t-49 37q-17 22 -20 47t2 51q5 34 27.5 64t55 53t70 36.5t71.5 13.5q38 0 63 -12.5t42.5 -32.5t29.5 -45 t24 -51l18 -36t17.5 -27.5t21 -17.5t28.5 -6q27 0 38.5 6.5t16.5 17.5q2 11 5.5 32.5t6.5 45t5.5 42.5t3.5 24h91q-4 -37 -8.5 -75t-9.5 -76q24 -18 71 -18q46 0 73 12q-1 1 -1 4q-2 13 -4.5 42t-4.5 59q-2 35 -4 75l94 9q2 -26 3 -49q2 -22 3.5 -42t2.5 -32q2 -18 6 -32.5 t15 -24t30.5 -14.5t51.5 -5z" />
<glyph unicode="&#xfeb3;&#xfee6;" horiz-adv-x="1274" d="M271 253q-11 9 -23 20q-10 10 -21 21.5t-20 24.5q9 14 20.5 26t20.5 21q12 11 23 20q11 -9 23 -20q11 -10 22 -21.5t22 -25.5q-11 -13 -22.5 -25t-21.5 -21q-12 -11 -23 -20zM1217 341q5 -57 9 -105q2 -29 3.5 -47t2.5 -35t2 -30.5t1 -20.5q0 -18 -9.5 -38.5t-23.5 -38.5 t-30 -29.5t-30 -11.5t-37 4.5t-49.5 13.5t-54 22t-49.5 30q-13 -20 -40.5 -37.5t-81.5 -17.5q-72 0 -108.5 38.5t-41.5 105.5q-1 7 -1 15t-1 16q-15 -28 -48 -39t-65 -11q-15 0 -25.5 3.5t-18.5 8.5q9 -58 9 -101q0 -40 -13 -76.5t-44 -66.5q-29 -31 -85 -53t-128 -22 q-73 0 -118.5 22.5t-71 56t-34.5 73.5t-9 76q0 38 6 71t14 58q8 28 19 52h90q-11 -25 -20 -51q-9 -24 -15 -51t-6 -55q0 -19 3.5 -43t18.5 -46t45.5 -37t84.5 -15q40 0 72 8.5t55 19.5t35.5 23t12.5 19q0 11 -2 29t-5 40t-7.5 46.5t-8.5 48.5q-10 57 -23 121l97 16 q2 -8 4 -17t4 -19q7 -14 19 -21t36 -7q32 0 53 4.5t34 10.5t19.5 13.5t10.5 13.5q-1 11 -1 19.5v12.5l92 7l5 -123q2 -50 17 -66.5t53 -16.5q29 0 43.5 6t19.5 17q2 11 5.5 32.5t6.5 45t5.5 42.5t3.5 24h91q-3 -31 -6.5 -63t-7.5 -64q28 -17 67.5 -32.5t73.5 -22.5l-19 235z " />
<glyph unicode="&#xfeb4;&#xfee6;" horiz-adv-x="1332" d="M271 253q-11 9 -23 20q-10 10 -21 21.5t-20 24.5q9 14 20.5 26t20.5 21q12 11 23 20q11 -9 23 -20q11 -10 22 -21.5t22 -25.5q-11 -13 -22.5 -25t-21.5 -21q-12 -11 -23 -20zM1348 108v-105l-16 -3q-55 0 -90 12.5t-56 37.5q-17 -23 -45 -36.5t-81 -13.5q-43 0 -69.5 12 t-43.5 35q-14 -19 -40 -33t-74 -14q-78 0 -113 38.5t-40 105.5q-1 7 -1 15t-1 16q-15 -28 -48 -39t-65 -11q-15 0 -25.5 3.5t-18.5 8.5q9 -58 9 -101q0 -40 -13 -76.5t-44 -66.5q-29 -31 -85 -53t-128 -22q-73 0 -118.5 22.5t-71 56t-34.5 73.5t-9 76q0 38 6 71t14 58 q8 28 19 52h90q-11 -25 -20 -51q-9 -24 -15 -51t-6 -55q0 -19 3.5 -43t18.5 -46t45.5 -37t84.5 -15q40 0 72 8.5t55 19.5t35.5 23t12.5 19q0 11 -2 29t-5 40t-7.5 46.5t-8.5 48.5q-10 57 -23 121l97 16q2 -8 4 -17t4 -19q7 -14 19 -21t36 -7q32 0 53 4.5t34 10.5t19.5 13.5 t10.5 13.5q-1 11 -1 19.5v12.5l92 7l5 -123q2 -50 17 -66.5t53 -16.5q29 0 43.5 6t19.5 17q2 11 5.5 32.5t6.5 45t5.5 42.5t3.5 24h91q-8 -76 -18 -152q25 -17 70 -17q43 0 74 13q-1 1 -1 3q-2 13 -4.5 42t-4.5 59q-2 35 -4 75l94 9q2 -26 3 -49q2 -22 3.5 -42t2.5 -32 q2 -18 6 -32.5t15 -24t30.5 -14.5t51.5 -5z" />
<glyph unicode="&#xfeb7;&#xfe8a;" horiz-adv-x="1168" d="M858 440q-10 9 -21 18q-9 9 -19 19.5t-19 22.5q9 13 19 24t19 20q11 10 21 18q10 -8 21 -18q9 -9 19.5 -20t19.5 -24q-9 -12 -19.5 -22.5l-19.5 -19.5q-11 -9 -21 -18zM804 329q-11 8 -22 18q-10 9 -20.5 20t-19.5 23q9 13 20 24.5t20 19.5q11 10 22 19q9 -7 18 -16 l18.5 -18.5t18.5 -21.5q9 12 18.5 22t18.5 18q9 9 18 16q10 -9 21 -19q10 -9 21 -20t21 -24q-10 -12 -21 -23t-21 -20q-11 -10 -21 -18q-9 7 -18 16q-9 8 -18.5 17.5t-18.5 20.5q-9 -11 -19 -21t-18 -17q-9 -9 -18 -16zM198 220q-23 -5 -69.5 -12t-102.5 -7v58q8 0 15.5 0.5 t13.5 1.5q-5 6 -8.5 15.5t-3.5 20.5q0 15 6 30t17 27.5t25.5 20t31.5 7.5q15 0 28 -6.5t21 -15.5l-9 -56q-9 8 -18.5 12t-22.5 4q-20 0 -30.5 -10t-10.5 -16q0 -7 10 -16.5t34 -9.5q16 0 37.5 3.5t35.5 7.5v-59zM1110 341q5 -57 9 -105q2 -29 3.5 -47t2.5 -35t2 -30.5 t1 -20.5q0 -18 -9.5 -38.5t-23.5 -38.5t-30 -29.5t-30 -11.5t-37 4.5t-49.5 13.5t-53.5 22t-50 30q-12 -20 -36 -37.5t-73 -17.5q-27 0 -47.5 7t-38 22.5t-32.5 39.5t-32 58q-10 21 -19.5 39.5t-21.5 32.5t-27 22.5t-37 8.5q-24 0 -48.5 -7t-44.5 -17t-33 -21.5t-13 -21.5 q0 -8 11 -16t28.5 -15.5t38 -14.5t39.5 -13q72 -23 105 -51.5t33 -73.5q0 -10 -1.5 -24.5t-6 -31t-13 -34.5t-22.5 -34q-15 -17 -40.5 -34.5t-60 -32.5t-78 -24.5t-93.5 -9.5q-73 0 -121 21t-76.5 54t-39.5 72.5t-11 77.5t6 71.5t14 59.5q8 30 19 55h90q-11 -26 -20 -54 q-9 -26 -15 -53.5t-6 -55.5q0 -19 5.5 -43t23 -45t51 -35.5t88.5 -14.5q44 0 84.5 9.5t71.5 23t50 28t19 23.5q0 14 -26 29.5t-71 30.5q-49 16 -79 28t-49 37q-17 22 -20 47t2 51q5 34 27.5 64t55 53t70 36.5t71.5 13.5q38 0 63 -12.5t42.5 -32.5t29.5 -45t24 -51l18 -36 t17.5 -27.5t21 -17.5t28.5 -6q27 0 38.5 6.5t16.5 17.5q2 11 5.5 32.5t6.5 45t5.5 42.5t3.5 24h91q-3 -31 -6.5 -63t-7.5 -64q28 -17 67.5 -32.5t73.5 -22.5l-19 235z" />
<glyph unicode="&#xfeb8;&#xfe8a;" horiz-adv-x="1225" d="M858 440q-10 9 -21 18q-9 9 -19 19.5t-19 22.5q9 13 19 24t19 20q11 10 21 18q10 -8 21 -18q9 -9 19.5 -20t19.5 -24q-9 -12 -19.5 -22.5l-19.5 -19.5q-11 -9 -21 -18zM804 329q-11 8 -22 18q-10 9 -20.5 20t-19.5 23q9 13 20 24.5t20 19.5q11 10 22 19q9 -7 18 -16 l18.5 -18.5t18.5 -21.5q9 12 18.5 22t18.5 18q9 9 18 16q10 -9 21 -19q10 -9 21 -20t21 -24q-10 -12 -21 -23t-21 -20q-11 -10 -21 -18q-9 7 -18 16q-9 8 -18.5 17.5t-18.5 20.5q-9 -11 -19 -21t-18 -17q-9 -9 -18 -16zM198 220q-23 -5 -69.5 -12t-102.5 -7v58q8 0 15.5 0.5 t13.5 1.5q-5 6 -8.5 15.5t-3.5 20.5q0 15 6 30t17 27.5t25.5 20t31.5 7.5q15 0 28 -6.5t21 -15.5l-9 -56q-9 8 -18.5 12t-22.5 4q-20 0 -30.5 -10t-10.5 -16q0 -7 10 -16.5t34 -9.5q16 0 37.5 3.5t35.5 7.5v-59zM1241 108v-105l-16 -3q-55 0 -89.5 12.5t-55.5 37.5 q-17 -23 -45 -36.5t-81 -13.5q-43 0 -70 12t-44 35q-13 -18 -36 -32.5t-68 -14.5q-27 0 -47.5 7t-38 22.5t-32.5 39.5t-32 58q-10 21 -19.5 39.5t-21.5 32.5t-27 22.5t-37 8.5q-24 0 -48.5 -7t-44.5 -17t-33 -21.5t-13 -21.5q0 -8 11 -16t28.5 -15.5t38 -14.5t39.5 -13 q72 -23 105 -51.5t33 -73.5q0 -10 -1.5 -24.5t-6 -31t-13 -34.5t-22.5 -34q-15 -17 -40.5 -34.5t-60 -32.5t-78 -24.5t-93.5 -9.5q-73 0 -121 21t-76.5 54t-39.5 72.5t-11 77.5t6 71.5t14 59.5q8 30 19 55h88q-11 -26 -20 -54q-9 -26 -15 -53.5t-6 -55.5q0 -19 6 -43t24 -45 t51.5 -35.5t88.5 -14.5q44 0 84.5 9.5t71.5 23t50 28t19 23.5q0 14 -26 29.5t-71 30.5q-49 16 -79 28t-49 37q-17 22 -20 47t2 51q5 34 27.5 64t55 53t70 36.5t71.5 13.5q38 0 63 -12.5t42.5 -32.5t29.5 -45t24 -51l18 -36t17.5 -27.5t21 -17.5t28.5 -6q27 0 38.5 6.5 t16.5 17.5q2 11 5.5 32.5t6.5 45t5.5 42.5t3.5 24h91q-4 -37 -8.5 -75t-9.5 -76q24 -18 71 -18q46 0 73 12q-1 1 -1 4q-2 13 -4.5 42t-4.5 59q-2 35 -4 75l94 9q2 -26 3 -49q2 -22 3.5 -42t2.5 -32q2 -18 6 -32.5t15 -24t30.5 -14.5t51.5 -5z" />
<glyph unicode="&#xfeb7;&#xfee6;" horiz-adv-x="1274" d="M964 440q-10 9 -21 18q-9 9 -19 19.5t-19 22.5q9 13 19 24t19 20q11 10 21 18q10 -8 21 -18q9 -9 19.5 -20t19.5 -24q-9 -12 -19.5 -22.5l-19.5 -19.5q-11 -9 -21 -18zM910 329q-11 8 -22 18q-10 9 -20.5 20t-19.5 23q9 13 20 24.5t20 19.5q11 10 22 19q9 -7 18 -16 l18.5 -18.5t18.5 -21.5q9 12 18.5 22t18.5 18q9 9 18 16q10 -9 21 -19q10 -9 21 -20t21 -24q-10 -12 -21 -23t-21 -20q-11 -10 -21 -18q-9 7 -18 16q-9 8 -18.5 17.5t-18.5 20.5q-9 -11 -19 -21t-18 -17q-9 -9 -18 -16zM271 253q-11 9 -23 20q-10 10 -21 21.5t-20 24.5 q9 14 20.5 26t20.5 21q12 11 23 20q11 -9 23 -20q11 -10 22 -21.5t22 -25.5q-11 -13 -22.5 -25t-21.5 -21q-12 -11 -23 -20zM1217 341q5 -57 9 -105q2 -29 3.5 -47t2.5 -35t2 -30.5t1 -20.5q0 -18 -9.5 -38.5t-23.5 -38.5t-30 -29.5t-30 -11.5t-37 4.5t-49.5 13.5t-54 22 t-49.5 30q-13 -20 -40.5 -37.5t-81.5 -17.5q-72 0 -108.5 38.5t-41.5 105.5q-1 7 -1 15t-1 16q-15 -28 -48 -39t-65 -11q-15 0 -25.5 3.5t-18.5 8.5q9 -58 9 -101q0 -40 -13 -76.5t-44 -66.5q-29 -31 -85 -53t-128 -22q-73 0 -118.5 22.5t-71 56t-34.5 73.5t-9 76q0 38 6 71 t14 58q8 28 19 52h90q-11 -25 -20 -51q-9 -24 -15 -51t-6 -55q0 -19 3.5 -43t18.5 -46t45.5 -37t84.5 -15q40 0 72 8.5t55 19.5t35.5 23t12.5 19q0 11 -2 29t-5 40t-7.5 46.5t-8.5 48.5q-10 57 -23 121l97 16q2 -8 4 -17t4 -19q7 -14 19 -21t36 -7q32 0 53 4.5t34 10.5 t19.5 13.5t10.5 13.5q-1 11 -1 19.5v12.5l92 7l5 -123q2 -50 17 -66.5t53 -16.5q29 0 43.5 6t19.5 17q2 11 5.5 32.5t6.5 45t5.5 42.5t3.5 24h91q-3 -31 -6.5 -63t-7.5 -64q28 -17 67.5 -32.5t73.5 -22.5l-19 235z" />
<glyph unicode="&#xfeb8;&#xfee6;" horiz-adv-x="1332" d="M964 440q-10 9 -21 18q-9 9 -19 19.5t-19 22.5q9 13 19 24t19 20q11 10 21 18q10 -8 21 -18q9 -9 19.5 -20t19.5 -24q-9 -12 -19.5 -22.5l-19.5 -19.5q-11 -9 -21 -18zM910 329q-11 8 -22 18q-10 9 -20.5 20t-19.5 23q9 13 20 24.5t20 19.5q11 10 22 19q9 -7 18 -16 l18.5 -18.5t18.5 -21.5q9 12 18.5 22t18.5 18q9 9 18 16q10 -9 21 -19q10 -9 21 -20t21 -24q-10 -12 -21 -23t-21 -20q-11 -10 -21 -18q-9 7 -18 16q-9 8 -18.5 17.5t-18.5 20.5q-9 -11 -19 -21t-18 -17q-9 -9 -18 -16zM271 253q-11 9 -23 20q-10 10 -21 21.5t-20 24.5 q9 14 20.5 26t20.5 21q12 11 23 20q11 -9 23 -20q11 -10 22 -21.5t22 -25.5q-11 -13 -22.5 -25t-21.5 -21q-12 -11 -23 -20zM1348 108v-105l-16 -3q-55 0 -90 12.5t-56 37.5q-17 -23 -45 -36.5t-81 -13.5q-43 0 -69.5 12t-43.5 35q-14 -19 -40 -33t-74 -14q-78 0 -113 38.5 t-40 105.5q-1 7 -1 15t-1 16q-15 -28 -48 -39t-65 -11q-15 0 -25.5 3.5t-18.5 8.5q9 -58 9 -101q0 -40 -13 -76.5t-44 -66.5q-29 -31 -85 -53t-128 -22q-73 0 -118.5 22.5t-71 56t-34.5 73.5t-9 76q0 38 6 71t14 58q8 28 19 52h90q-11 -25 -20 -51q-9 -24 -15 -51t-6 -55 q0 -19 3.5 -43t18.5 -46t45.5 -37t84.5 -15q40 0 72 8.5t55 19.5t35.5 23t12.5 19q0 11 -2 29t-5 40t-7.5 46.5t-8.5 48.5q-10 57 -23 121l97 16q2 -8 4 -17t4 -19q7 -14 19 -21t36 -7q32 0 53 4.5t34 10.5t19.5 13.5t10.5 13.5q-1 11 -1 19.5v12.5l92 7l5 -123 q2 -50 17 -66.5t53 -16.5q29 0 43.5 6t19.5 17q2 11 5.5 32.5t6.5 45t5.5 42.5t3.5 24h91q-8 -76 -18 -152q25 -17 70 -17q43 0 74 13q-1 1 -1 3q-2 13 -4.5 42t-4.5 59q-2 35 -4 75l94 9q2 -26 3 -49q2 -22 3.5 -42t2.5 -32q2 -18 6 -32.5t15 -24t30.5 -14.5t51.5 -5z" />
<glyph unicode="&#xfebb;&#xfe8a;" horiz-adv-x="1217" d="M986 397q42 0 78 -20.5t62.5 -52t41 -69.5t14.5 -73q0 -55 -29.5 -90t-78 -55.5t-110.5 -28.5t-127 -8h-11q-52 0 -90 6.5t-67 21t-50.5 39t-39.5 60.5q-10 21 -19.5 39.5t-21.5 32.5t-27 22.5t-37 8.5q-24 0 -48.5 -7t-44.5 -17t-33 -21.5t-13 -21.5q0 -8 11 -16 t28.5 -15.5t38 -14.5t39.5 -13q72 -23 106 -51.5t34 -73.5q0 -10 -1.5 -24.5t-6 -31t-13 -34.5t-22.5 -34q-15 -17 -40.5 -34.5t-61 -32.5t-79 -24.5t-93.5 -9.5q-73 0 -121 21t-76.5 54t-39.5 72.5t-11 77.5t6 71.5t14 59.5q8 30 19 55h90q-11 -26 -20 -54 q-9 -26 -15 -53.5t-6 -55.5q0 -19 5.5 -43t23 -45t51 -35.5t88.5 -14.5q44 0 84.5 9.5t71.5 23t50 28t19 23.5q0 14 -26 29.5t-71 30.5q-49 16 -80 28t-50 37q-17 22 -20 47t1 51q5 34 28.5 64t56 53t70.5 36.5t72 13.5q38 0 63 -12.5t42 -32.5t29 -45t25 -51q7 -13 13 -24 t14 -21q25 38 59 81t74 79.5t85 60.5t93 24zM198 220q-23 -5 -69.5 -12t-102.5 -7v58q8 0 15.5 0.5t13.5 1.5q-5 6 -8.5 15.5t-3.5 20.5q0 15 6 30t17 27.5t25.5 20t31.5 7.5q15 0 28 -6.5t21 -15.5l-9 -56q-9 8 -18.5 12t-22.5 4q-20 0 -30.5 -10t-10.5 -16q0 -7 10 -16.5 t34 -9.5q16 0 37.5 3.5t35.5 7.5v-59zM845 109q48 0 94 4t81.5 11.5t57.5 19t22 25.5q0 11 -9.5 30.5t-27.5 38.5t-43 33.5t-57 14.5q-35 0 -69 -16t-64.5 -40t-56.5 -53.5t-46 -56.5q19 -5 45 -8t63 -3h10z" />
<glyph unicode="&#xfebc;&#xfe8a;" horiz-adv-x="1265" d="M1280 108v-105l-16 -3q-42 0 -82.5 10.5t-71.5 41.5q-50 -30 -121.5 -41t-148.5 -11h-11q-52 0 -90 6.5t-67 21t-50.5 39t-39.5 60.5q-10 21 -19.5 39.5t-21.5 32.5t-27 22.5t-37 8.5q-24 0 -48.5 -7t-44.5 -17t-33 -21.5t-13 -21.5q0 -8 11 -16t28.5 -15.5t38 -14.5 t39.5 -13q72 -23 106 -51.5t34 -73.5q0 -10 -1.5 -24.5t-6 -31t-13 -34.5t-22.5 -34q-15 -17 -40.5 -34.5t-61 -32.5t-79 -24.5t-93.5 -9.5q-73 0 -121 21t-76.5 54t-39.5 72.5t-11 77.5t6 71.5t14 59.5q8 30 19 55h90q-11 -26 -20 -54q-9 -26 -15 -53.5t-6 -55.5 q0 -19 5.5 -43t23 -45t51 -35.5t88.5 -14.5q44 0 84.5 9.5t71.5 23t50 28t19 23.5q0 14 -26 29.5t-71 30.5q-49 16 -80 28t-50 37q-17 22 -20 47t1 51q5 34 28.5 64t56 53t70.5 36.5t72 13.5q38 0 63 -12.5t42 -32.5t29 -45t25 -51q7 -13 13 -24t14 -21q25 38 59 81t74 79.5 t85 60.5t93 24q42 0 78 -20.5t62.5 -52t41 -69.5t14.5 -73q0 -32 -10 -56q16 -7 37 -11t52 -4zM198 220q-23 -5 -69.5 -12t-102.5 -7v58q8 0 15.5 0.5t13.5 1.5q-5 6 -8.5 15.5t-3.5 20.5q0 15 6 30t17 27.5t25.5 20t31.5 7.5q15 0 28 -6.5t21 -15.5l-9 -56q-9 8 -18.5 12 t-22.5 4q-20 0 -30.5 -10t-10.5 -16q0 -7 10 -16.5t34 -9.5q16 0 37.5 3.5t35.5 7.5v-59zM848 109q48 0 94 4t81.5 11.5t57.5 19t22 25.5q0 11 -9.5 30.5t-27.5 38.5t-43 33.5t-57 14.5q-35 0 -69 -16t-64.5 -40t-56.5 -53.5t-46 -56.5q19 -5 45 -8t63 -3h10z" />
<glyph unicode="&#xfebb;&#xfee6;" horiz-adv-x="1361" d="M1129 397q42 0 78 -20.5t62.5 -52t41 -69.5t14.5 -73q0 -55 -29.5 -90t-78 -55.5t-110.5 -28.5t-127 -8h-13q-61 0 -112.5 7t-90 26t-60.5 51t-25 82q0 7 -1 11q-14 -29 -47.5 -40.5t-65.5 -11.5q-15 0 -25.5 3.5t-18.5 8.5q9 -58 9 -101q0 -40 -13 -76.5t-44 -66.5 q-29 -31 -85 -53t-128 -22q-73 0 -118.5 22.5t-71 56t-34.5 73.5t-9 76q0 38 6 71t14 58q8 28 19 52h90q-11 -25 -20 -51q-9 -24 -15 -51t-6 -55q0 -19 3.5 -43t18.5 -46t45.5 -37t84.5 -15q40 0 72 8.5t55 19.5t35.5 23t12.5 19q0 11 -2 29t-5 40t-7.5 46.5t-8.5 48.5 q-10 57 -23 121l97 16q2 -8 4 -17t4 -19q7 -14 19 -21t36 -7q32 0 53 4.5t34 10.5t19.5 13.5t10.5 13.5q-1 11 -1 19v13l92 7l5 -113q1 -50 37 -71q24 38 58 84t76 86t90 67t99 27zM271 253q-11 9 -23 20q-10 10 -21 21.5t-20 24.5q9 14 20.5 26t20.5 21q12 11 23 20 q11 -9 23 -20q11 -10 22 -21.5t22 -25.5q-11 -13 -22.5 -25t-21.5 -21q-12 -11 -23 -20zM988 109q48 0 93.5 4t81.5 11.5t58 19t22 25.5q0 11 -9.5 30.5t-27.5 38.5t-43 33.5t-57 14.5q-36 0 -70.5 -16.5t-66 -42t-57.5 -55.5t-46 -57q22 -4 49 -5t61 -1h12z" />
<glyph unicode="&#xfebc;&#xfee6;" horiz-adv-x="1402" d="M1418 108v-105l-16 -3q-41 0 -81.5 10.5t-72.5 41.5q-50 -30 -120.5 -41t-147.5 -11h-13q-61 0 -112.5 7t-90 26t-60.5 51t-25 82q0 7 -1 11q-14 -29 -47.5 -40.5t-65.5 -11.5q-15 0 -25.5 3.5t-18.5 8.5q9 -58 9 -101q0 -40 -13 -76.5t-44 -66.5q-29 -31 -85 -53 t-128 -22q-73 0 -118.5 22.5t-71 56t-34.5 73.5t-9 76q0 38 6 71t14 58q8 28 19 52h90q-11 -25 -20 -51q-9 -24 -15 -51t-6 -55q0 -19 3.5 -43t18.5 -46t45.5 -37t84.5 -15q40 0 72 8.5t55 19.5t35.5 23t12.5 19q0 11 -2 29t-5 40t-7.5 46.5t-8.5 48.5q-10 57 -23 121l97 16 q2 -8 4 -17t4 -19q7 -14 19 -21t36 -7q32 0 53 4.5t34 10.5t19.5 13.5t10.5 13.5q-1 11 -1 19v13l92 7l5 -113q1 -50 37 -71q24 38 58 84t76 86t90 67t99 27q42 0 78 -20.5t62.5 -52t41 -69.5t14.5 -73q0 -16 -2.5 -30t-7.5 -26q15 -7 36 -11t51 -4zM271 253q-11 9 -23 20 q-10 10 -21 21.5t-20 24.5q9 14 20.5 26t20.5 21q12 11 23 20q11 -9 23 -20q11 -10 22 -21.5t22 -25.5q-11 -13 -22.5 -25t-21.5 -21q-12 -11 -23 -20zM988 109q48 0 93.5 4t81.5 11.5t58 19t22 25.5q0 11 -9.5 30.5t-27.5 38.5t-43 33.5t-57 14.5q-36 0 -70.5 -16.5 t-66 -42t-57.5 -55.5t-46 -57q22 -4 49 -5t61 -1h12z" />
<glyph unicode="&#xfebf;&#xfe8a;" horiz-adv-x="1217" d="M968 442q-11 9 -23 20q-10 10 -21 21.5t-20 24.5q9 14 20.5 26t20.5 21q12 11 23 20q11 -9 23 -20q11 -10 22 -21.5t22 -25.5q-11 -13 -22.5 -25t-21.5 -21q-12 -11 -23 -20zM986 397q42 0 78 -20.5t62.5 -52t41 -69.5t14.5 -73q0 -55 -29.5 -90t-78 -55.5t-110.5 -28.5 t-127 -8h-11q-52 0 -90 6.5t-67 21t-50.5 39t-39.5 60.5q-10 21 -19.5 39.5t-21.5 32.5t-27 22.5t-37 8.5q-24 0 -48.5 -7t-44.5 -17t-33 -21.5t-13 -21.5q0 -8 11 -16t28.5 -15.5t38 -14.5t39.5 -13q72 -23 106 -51.5t34 -73.5q0 -10 -1.5 -24.5t-6 -31t-13 -34.5 t-22.5 -34q-15 -17 -40.5 -34.5t-61 -32.5t-79 -24.5t-93.5 -9.5q-73 0 -121 21t-76.5 54t-39.5 72.5t-11 77.5t6 71.5t14 59.5q8 30 19 55h90q-11 -26 -20 -54q-9 -26 -15 -53.5t-6 -55.5q0 -19 5.5 -43t23 -45t51 -35.5t88.5 -14.5q44 0 84.5 9.5t71.5 23t50 28t19 23.5 q0 14 -26 29.5t-71 30.5q-49 16 -80 28t-50 37q-17 22 -20 47t1 51q5 34 28.5 64t56 53t70.5 36.5t72 13.5q38 0 63 -12.5t42 -32.5t29 -45t25 -51q7 -13 13 -24t14 -21q25 38 59 81t74 79.5t85 60.5t93 24zM198 220q-23 -5 -69.5 -12t-102.5 -7v58q8 0 15.5 0.5t13.5 1.5 q-5 6 -8.5 15.5t-3.5 20.5q0 15 6 30t17 27.5t25.5 20t31.5 7.5q15 0 28 -6.5t21 -15.5l-9 -56q-9 8 -18.5 12t-22.5 4q-20 0 -30.5 -10t-10.5 -16q0 -7 10 -16.5t34 -9.5q16 0 37.5 3.5t35.5 7.5v-59zM845 109q48 0 94 4t81.5 11.5t57.5 19t22 25.5q0 11 -9.5 30.5 t-27.5 38.5t-43 33.5t-57 14.5q-35 0 -69 -16t-64.5 -40t-56.5 -53.5t-46 -56.5q19 -5 45 -8t63 -3h10z" />
<glyph unicode="&#xfec0;&#xfe8a;" horiz-adv-x="1265" d="M968 442q-11 9 -23 20q-10 10 -21 21.5t-20 24.5q9 14 20.5 26t20.5 21q12 11 23 20q11 -9 23 -20q11 -10 22 -21.5t22 -25.5q-11 -13 -22.5 -25t-21.5 -21q-12 -11 -23 -20zM1280 108v-105l-16 -3q-42 0 -82.5 10.5t-71.5 41.5q-50 -30 -121.5 -41t-148.5 -11h-11 q-52 0 -90 6.5t-67 21t-50.5 39t-39.5 60.5q-10 21 -19.5 39.5t-21.5 32.5t-27 22.5t-37 8.5q-24 0 -48.5 -7t-44.5 -17t-33 -21.5t-13 -21.5q0 -8 11 -16t28.5 -15.5t38 -14.5t39.5 -13q72 -23 106 -51.5t34 -73.5q0 -10 -1.5 -24.5t-6 -31t-13 -34.5t-22.5 -34 q-15 -17 -40.5 -34.5t-61 -32.5t-79 -24.5t-93.5 -9.5q-73 0 -121 21t-76.5 54t-39.5 72.5t-11 77.5t6 71.5t14 59.5q8 30 19 55h90q-11 -26 -20 -54q-9 -26 -15 -53.5t-6 -55.5q0 -19 5.5 -43t23 -45t51 -35.5t88.5 -14.5q44 0 84.5 9.5t71.5 23t50 28t19 23.5 q0 14 -26 29.5t-71 30.5q-49 16 -80 28t-50 37q-17 22 -20 47t1 51q5 34 28.5 64t56 53t70.5 36.5t72 13.5q38 0 63 -12.5t42 -32.5t29 -45t25 -51q7 -13 13 -24t14 -21q25 38 59 81t74 79.5t85 60.5t93 24q42 0 78 -20.5t62.5 -52t41 -69.5t14.5 -73q0 -32 -10 -56 q16 -7 37 -11t52 -4zM198 220q-23 -5 -69.5 -12t-102.5 -7v58q8 0 15.5 0.5t13.5 1.5q-5 6 -8.5 15.5t-3.5 20.5q0 15 6 30t17 27.5t25.5 20t31.5 7.5q15 0 28 -6.5t21 -15.5l-9 -56q-9 8 -18.5 12t-22.5 4q-20 0 -30.5 -10t-10.5 -16q0 -7 10 -16.5t34 -9.5q16 0 37.5 3.5 t35.5 7.5v-59zM848 109q48 0 94 4t81.5 11.5t57.5 19t22 25.5q0 11 -9.5 30.5t-27.5 38.5t-43 33.5t-57 14.5q-35 0 -69 -16t-64.5 -40t-56.5 -53.5t-46 -56.5q19 -5 45 -8t63 -3h10z" />
<glyph unicode="&#xfebf;&#xfee6;" horiz-adv-x="1361" d="M1110 442q-11 9 -23 20q-10 10 -21 21.5t-20 24.5q9 14 20.5 26t20.5 21q12 11 23 20q11 -9 23 -20q11 -10 22 -21.5t22 -25.5q-11 -13 -22.5 -25t-21.5 -21q-12 -11 -23 -20zM1129 397q42 0 78 -20.5t62.5 -52t41 -69.5t14.5 -73q0 -55 -29.5 -90t-78 -55.5 t-110.5 -28.5t-127 -8h-13q-61 0 -112.5 7t-90 26t-60.5 51t-25 82q0 7 -1 11q-14 -29 -47.5 -40.5t-65.5 -11.5q-15 0 -25.5 3.5t-18.5 8.5q9 -58 9 -101q0 -40 -13 -76.5t-44 -66.5q-29 -31 -85 -53t-128 -22q-73 0 -118.5 22.5t-71 56t-34.5 73.5t-9 76q0 38 6 71t14 58 q8 28 19 52h90q-11 -25 -20 -51q-9 -24 -15 -51t-6 -55q0 -19 3.5 -43t18.5 -46t45.5 -37t84.5 -15q40 0 72 8.5t55 19.5t35.5 23t12.5 19q0 11 -2 29t-5 40t-7.5 46.5t-8.5 48.5q-10 57 -23 121l97 16q2 -8 4 -17t4 -19q7 -14 19 -21t36 -7q32 0 53 4.5t34 10.5t19.5 13.5 t10.5 13.5q-1 11 -1 19v13l92 7l5 -113q1 -50 37 -71q24 38 58 84t76 86t90 67t99 27zM271 253q-11 9 -23 20q-10 10 -21 21.5t-20 24.5q9 14 20.5 26t20.5 21q12 11 23 20q11 -9 23 -20q11 -10 22 -21.5t22 -25.5q-11 -13 -22.5 -25t-21.5 -21q-12 -11 -23 -20zM988 109 q48 0 93.5 4t81.5 11.5t58 19t22 25.5q0 11 -9.5 30.5t-27.5 38.5t-43 33.5t-57 14.5q-36 0 -70.5 -16.5t-66 -42t-57.5 -55.5t-46 -57q22 -4 49 -5t61 -1h12z" />
<glyph unicode="&#xfec0;&#xfee6;" horiz-adv-x="1402" d="M1110 442q-11 9 -23 20q-10 10 -21 21.5t-20 24.5q9 14 20.5 26t20.5 21q12 11 23 20q11 -9 23 -20q11 -10 22 -21.5t22 -25.5q-11 -13 -22.5 -25t-21.5 -21q-12 -11 -23 -20zM1418 108v-105l-16 -3q-41 0 -81.5 10.5t-72.5 41.5q-50 -30 -120.5 -41t-147.5 -11h-13 q-61 0 -112.5 7t-90 26t-60.5 51t-25 82q0 7 -1 11q-14 -29 -47.5 -40.5t-65.5 -11.5q-15 0 -25.5 3.5t-18.5 8.5q9 -58 9 -101q0 -40 -13 -76.5t-44 -66.5q-29 -31 -85 -53t-128 -22q-73 0 -118.5 22.5t-71 56t-34.5 73.5t-9 76q0 38 6 71t14 58q8 28 19 52h90 q-11 -25 -20 -51q-9 -24 -15 -51t-6 -55q0 -19 3.5 -43t18.5 -46t45.5 -37t84.5 -15q40 0 72 8.5t55 19.5t35.5 23t12.5 19q0 11 -2 29t-5 40t-7.5 46.5t-8.5 48.5q-10 57 -23 121l97 16q2 -8 4 -17t4 -19q7 -14 19 -21t36 -7q32 0 53 4.5t34 10.5t19.5 13.5t10.5 13.5 q-1 11 -1 19v13l92 7l5 -113q1 -50 37 -71q24 38 58 84t76 86t90 67t99 27q42 0 78 -20.5t62.5 -52t41 -69.5t14.5 -73q0 -16 -2.5 -30t-7.5 -26q15 -7 36 -11t51 -4zM271 253q-11 9 -23 20q-10 10 -21 21.5t-20 24.5q9 14 20.5 26t20.5 21q12 11 23 20q11 -9 23 -20 q11 -10 22 -21.5t22 -25.5q-11 -13 -22.5 -25t-21.5 -21q-12 -11 -23 -20zM988 109q48 0 93.5 4t81.5 11.5t58 19t22 25.5q0 11 -9.5 30.5t-27.5 38.5t-43 33.5t-57 14.5q-36 0 -70.5 -16.5t-66 -42t-57.5 -55.5t-46 -57q22 -4 49 -5t61 -1h12z" />
<glyph unicode="&#xfedb;&#xfe8a;" horiz-adv-x="835" d="M536 413q65 -27 111.5 -58t77.5 -63t45.5 -63t14.5 -58q0 -36 -14 -69.5t-45 -56.5q-20 -14 -53.5 -24.5t-91.5 -15.5q6 -12 6 -26q0 -23 -6 -56t-33 -68q-15 -18 -39.5 -37t-58.5 -35t-77 -26t-94 -10q-73 0 -120 21t-75 54t-39 73t-11 78t6 71.5t14 58.5q8 30 19 54h90 q-11 -26 -20 -53q-9 -25 -15 -52.5t-6 -54.5q0 -20 5.5 -44t23.5 -45t51.5 -35.5t88.5 -14.5q45 0 85.5 10t70.5 24.5t47.5 29t17.5 23.5q0 20 -33.5 37.5t-93.5 17.5h-1l20 111h45q126 0 190.5 12.5t64.5 29.5q0 10 -11.5 31t-41.5 48t-82.5 58.5t-134.5 61.5v108l382 218 l8 -109zM198 212q-23 -5 -69.5 -12t-102.5 -7v58q8 0 15.5 0.5t13.5 1.5q-5 6 -8.5 15.5t-3.5 20.5q0 15 6 30t17 27.5t25.5 20t31.5 7.5q15 0 28 -6.5t21 -15.5l-9 -56q-9 8 -18.5 12t-22.5 4q-20 0 -30.5 -10t-10.5 -16q0 -7 10 -16.5t34 -9.5q16 0 37.5 3.5t35.5 7.5v-59 z" />
<glyph unicode="&#xfedc;&#xfe8a;" horiz-adv-x="894" d="M910 108v-105l-16 -3q-41 0 -72 6t-56 18.5t-45 32.5t-39 48q-8 -20 -22.5 -39.5t-35.5 -31.5q-19 -11 -48 -19q11 -17 11 -36q0 -23 -6 -56t-33 -68q-15 -18 -39.5 -37t-58.5 -35t-77 -26t-94 -10q-73 0 -120 21t-75 54t-39 73t-11 78t6 71.5t14 58.5q8 30 19 54h90 q-11 -26 -20 -53q-9 -25 -15 -52.5t-6 -54.5q0 -20 5.5 -44t23.5 -45t51.5 -35.5t88.5 -14.5q45 0 85.5 10t70.5 24.5t47.5 29t17.5 23.5q0 20 -33.5 37.5t-93.5 17.5h-1l20 111h31q39 0 72 3.5t57.5 9t38.5 12t14 13.5q0 5 -10 25.5t-34 58.5q-13 20 -28.5 41.5t-29 40 t-24 32.5t-12.5 18t0 21.5t6.5 37.5t10.5 36.5t11 18.5l331 201l9 -109l-275 -161q19 -24 41.5 -55.5t45.5 -63.5q33 -46 57 -80t49 -56.5t55 -33t74 -10.5zM198 212q-23 -5 -69.5 -12t-102.5 -7v58q8 0 15.5 0.5t13.5 1.5q-5 6 -8.5 15.5t-3.5 20.5q0 15 6 30t17 27.5 t25.5 20t31.5 7.5q15 0 28 -6.5t21 -15.5l-9 -56q-9 8 -18.5 12t-22.5 4q-20 0 -30.5 -10t-10.5 -16q0 -7 10 -16.5t34 -9.5q16 0 37.5 3.5t35.5 7.5v-59z" />
<glyph unicode="&#xfedf;&#xfe8a;" horiz-adv-x="727" d="M670 686v-478q0 -71 -20.5 -110.5t-48.5 -60.5q-12 -10 -28 -17q17 -20 17 -41q0 -23 -6.5 -56t-33.5 -68q-15 -18 -40 -37t-59 -35t-77.5 -26t-94.5 -10q-73 0 -120 21t-75 54t-39 73t-11 78t6 71.5t14 58.5q8 30 19 54h90q-11 -26 -20 -53q-9 -25 -15 -52.5t-6 -54.5 q0 -20 5.5 -44t23.5 -45t51.5 -35.5t88.5 -14.5q45 0 85.5 10t70.5 24.5t47.5 29t17.5 23.5q0 20 -36 37.5t-95 17.5h-1l28 111h59q57 0 81 14.5t24 31.5v521zM198 212q-23 -5 -69.5 -12t-102.5 -7v58q8 0 15.5 0.5t13.5 1.5q-5 6 -8.5 15.5t-3.5 20.5q0 15 6 30t17 27.5 t25.5 20t31.5 7.5q15 0 28 -6.5t21 -15.5l-9 -56q-9 8 -18.5 12t-22.5 4q-20 0 -30.5 -10t-10.5 -16q0 -7 10 -16.5t34 -9.5q16 0 37.5 3.5t35.5 7.5v-59z" />
<glyph unicode="&#xfee0;&#xfe8a;" horiz-adv-x="774" d="M789 108v-105l-16 -3q-54 0 -85.5 19.5t-49.5 57.5q-8 -13 -17.5 -22.5t-19.5 -17.5q-12 -10 -28 -17q17 -20 17 -41q0 -23 -6.5 -56t-33.5 -68q-15 -18 -40 -37t-59 -35t-77.5 -26t-94.5 -10q-73 0 -120 21t-75 54t-39 73t-11 78t6 71.5t14 58.5q8 30 19 54h90 q-11 -26 -20 -53q-9 -25 -15 -52.5t-6 -54.5q0 -20 5.5 -44t23.5 -45t51.5 -35.5t88.5 -14.5q45 0 85.5 10t70.5 24.5t47.5 29t17.5 23.5q0 20 -36 37.5t-95 17.5h-1l28 111h59q57 0 81 14.5t24 31.5v521l98 8v-444q0 -29 2 -53t12 -41.5t31 -27t58 -9.5zM198 212 q-23 -5 -69.5 -12t-102.5 -7v58q8 0 15.5 0.5t13.5 1.5q-5 6 -8.5 15.5t-3.5 20.5q0 15 6 30t17 27.5t25.5 20t31.5 7.5q15 0 28 -6.5t21 -15.5l-9 -56q-9 8 -18.5 12t-22.5 4q-20 0 -30.5 -10t-10.5 -16q0 -7 10 -16.5t34 -9.5q16 0 37.5 3.5t35.5 7.5v-59z" />
<glyph unicode="&#xfee7;&#xfe8a;" horiz-adv-x="708" d="M588 407q-11 9 -23 20q-10 10 -21 21.5t-20 24.5q9 14 20.5 26t20.5 21q12 11 23 20q11 -9 23 -20q11 -10 22 -21.5t22 -25.5q-11 -13 -22.5 -25t-21.5 -21q-12 -11 -23 -20zM639 376q4 -22 8.5 -48.5t8 -54.5t6 -54t2.5 -47q0 -45 -16 -77.5t-38 -52.5 q-8 -7 -17.5 -12.5t-20.5 -10.5q14 -19 14 -40q0 -23 -6 -56t-33 -68q-15 -18 -39.5 -37t-58.5 -35t-77 -26t-94 -10q-73 0 -120 21t-75 54t-39 73t-11 78t6 71.5t14 58.5q8 30 19 54h90q-11 -26 -20 -53q-9 -25 -15 -52.5t-6 -54.5q0 -20 5.5 -44t23.5 -45t51.5 -35.5 t88.5 -14.5q45 0 85.5 10t70.5 24.5t47.5 29t17.5 23.5q0 20 -33.5 37.5t-93.5 17.5h-1l20 111h50q68 0 93 10.5t25 22.5q0 29 -6.5 85t-19.5 129zM198 212q-23 -5 -69.5 -12t-102.5 -7v58q8 0 15.5 0.5t13.5 1.5q-5 6 -8.5 15.5t-3.5 20.5q0 15 6 30t17 27.5t25.5 20 t31.5 7.5q15 0 28 -6.5t21 -15.5l-9 -56q-9 8 -18.5 12t-22.5 4q-20 0 -30.5 -10t-10.5 -16q0 -7 10 -16.5t34 -9.5q16 0 37.5 3.5t35.5 7.5v-59z" />
<glyph unicode="&#xfee8;&#xfe8a;" horiz-adv-x="740" d="M499 375q-11 9 -23 20q-10 10 -21 21.5t-20 24.5q9 14 20.5 26t20.5 21q12 11 23 20q11 -9 23 -20q11 -10 22 -21.5t22 -25.5q-11 -13 -22.5 -25t-21.5 -21q-12 -11 -23 -20zM198 220q-23 -5 -69.5 -12t-102.5 -7v58q8 0 15.5 0.5t13.5 1.5q-5 6 -8.5 15.5t-3.5 20.5 q0 15 6 30t17 27.5t25.5 20t31.5 7.5q15 0 28 -6.5t21 -15.5l-9 -56q-9 8 -18.5 12t-22.5 4q-20 0 -30.5 -10t-10.5 -16q0 -7 10 -16.5t34 -9.5q16 0 37.5 3.5t35.5 7.5v-59zM757 108v-105l-16 -3q-29 0 -50 6.5t-38 21.5t-32.5 40.5t-33.5 64.5q-20 41 -44 69t-68 28 q-24 0 -47.5 -7t-42 -17t-30.5 -21.5t-12 -21.5q0 -8 11 -16t28.5 -15.5t38 -14.5t39.5 -13q72 -23 105 -51.5t33 -73.5q0 -10 -1.5 -24.5t-6 -31t-13 -34.5t-22.5 -34q-15 -17 -40.5 -34.5t-60 -32.5t-78 -24.5t-93.5 -9.5q-73 0 -121 21t-76.5 54t-39.5 72.5t-11 77.5 t6 71.5t14 59.5q8 30 19 55h90q-11 -26 -20 -54q-9 -26 -15 -53.5t-6 -55.5q0 -19 5.5 -43t23 -45t51 -35.5t88.5 -14.5q44 0 84.5 9.5t71.5 23t50 28t19 23.5q0 14 -26 29.5t-71 30.5q-49 16 -79 28t-49 37q-17 22 -20 47t2 51q5 34 26.5 64t52.5 53t67 36.5t70 13.5 q36 0 62.5 -11.5t46 -30.5t33 -43.5t25.5 -49.5q14 -31 23.5 -49t18 -27.5t18.5 -12.5t25 -3z" />
<glyph unicode="&#xfef4;&#xfe8a;" horiz-adv-x="740" d="M198 220q-23 -5 -69.5 -12t-102.5 -7v58q8 0 15.5 0.5t13.5 1.5q-5 6 -8.5 15.5t-3.5 20.5q0 15 6 30t17 27.5t25.5 20t31.5 7.5q15 0 28 -6.5t21 -15.5l-9 -56q-9 8 -18.5 12t-22.5 4q-20 0 -30.5 -10t-10.5 -16q0 -7 10 -16.5t34 -9.5q16 0 37.5 3.5t35.5 7.5v-59z M757 108v-105l-16 -3q-29 0 -50 6.5t-38 21.5t-32.5 40.5t-33.5 64.5q-20 41 -44 69t-68 28q-24 0 -47.5 -7t-42 -17t-30.5 -21.5t-12 -21.5q0 -8 11 -16t28.5 -15.5t38 -14.5t39.5 -13q72 -23 105 -51.5t33 -73.5q0 -10 -1.5 -24.5t-6 -31t-13 -34.5t-22.5 -34 q-15 -17 -40.5 -34.5t-60 -32.5t-78 -24.5t-93.5 -9.5q-73 0 -121 21t-76.5 54t-39.5 72.5t-11 77.5t6 71.5t14 59.5q8 30 19 55h90q-11 -26 -20 -54q-9 -26 -15 -53.5t-6 -55.5q0 -19 5.5 -43t23 -45t51 -35.5t88.5 -14.5q44 0 84.5 9.5t71.5 23t50 28t19 23.5 q0 14 -26 29.5t-71 30.5q-49 16 -79 28t-49 37q-17 22 -20 47t2 51q5 34 26.5 64t52.5 53t67 36.5t70 13.5q36 0 62.5 -11.5t46 -30.5t33 -43.5t25.5 -49.5q14 -31 23.5 -49t18 -27.5t18.5 -12.5t25 -3zM643 -212q10 -9 21 -19q9 -9 19 -19.5t19 -22.5q-9 -12 -19.5 -22.5 t-18.5 -19.5q-11 -9 -21 -18q-8 7 -17 15q-8 7 -16.5 16t-17.5 19q-9 -10 -18 -19l-16 -16q-9 -8 -17 -15l-20 18t-20 19.5t-19 22.5q9 12 19.5 23t19.5 19q10 10 20 19q8 -7 17 -15q8 -7 16.5 -16t17.5 -20q9 11 18 20l16 16q9 8 17 15z" />
<glyph unicode="&#x649;" horiz-adv-x="238" d="M169 376q5 -22 9 -48.5t8 -54.5t6 -54t2 -47q0 -45 -16 -77.5t-37 -52.5q-23 -20 -58 -31t-83 -11l-16 3v105l16 3q57 0 79.5 10.5t22.5 22.5q0 29 -7 85t-20 129z" />
<glyph unicode="&#x6aa;" horiz-adv-x="696" d="M400 313q74 0 123 -14.5t78 -39t40.5 -55.5t11.5 -64q0 -34 -14 -63t-35 -45q-11 -8 -27.5 -14t-41.5 -10t-61 -6t-87 -2h-387l-16 3v105l16 3h418q83 0 121.5 5t38.5 13q0 12 -7 28t-28 29.5t-59.5 23t-102.5 9.5h-108q-58 0 -97.5 1.5t-65.5 4.5t-40 7t-21 10 q-1 7 0 21.5t4.5 31.5t9 33t12.5 25q19 25 64 58.5t97.5 67t103.5 62.5t82 45l11 -110q-37 -17 -77 -37t-79 -41t-74 -41.5t-61 -39.5q20 -2 52.5 -3t77.5 -1h128z" />
<glyph unicode="&#x6aa;" horiz-adv-x="759" d="M775 108v-105l-16 -3q-48 0 -79.5 9t-57.5 40l-9 -9t-9 -8q-11 -8 -27.5 -14t-41.5 -10t-61 -6t-87 -2h-387l-16 3v105l16 3h418q83 0 121.5 5t38.5 13q0 12 -7 28t-28 29.5t-59.5 23t-102.5 9.5h-108q-58 0 -97.5 1.5t-65.5 4.5t-40 7t-21 10q-1 7 0 21.5t4.5 31.5t9 33 t12.5 25q19 25 64 58.5t97.5 67t103.5 62.5t82 45l11 -110q-37 -17 -77 -37t-79 -41t-74 -41.5t-61 -39.5q20 -2 52.5 -3t77.5 -1h128q74 0 123 -14.5t78 -39t40.5 -55.5t11.5 -64v-4q17 -13 39 -19t67 -6z" />
<glyph unicode="&#x6aa;" horiz-adv-x="926" d="M942 108v-105l-16 -3q-48 0 -79 9t-56 38q-8 -10 -16 -15q-11 -8 -27.5 -14t-41.5 -10t-60.5 -6t-86.5 -2h-281q-65 0 -109 1.5t-73 4.5t-47 7.5t-30 10.5l1 107q11 -3 27.5 -7t46 -7.5t73.5 -6t109 -2.5h313q83 0 121.5 5t38.5 13q0 13 -6.5 29t-27.5 30.5t-60 24 t-103 9.5h-108q-58 0 -97.5 1.5t-65.5 4.5t-40 7t-21 10q-1 7 0 22t4.5 32.5t9 34t12.5 25.5q20 25 65 58.5t97.5 66.5t103 62t81.5 45l11 -110q-36 -17 -76.5 -37t-79.5 -41t-73.5 -41.5t-60.5 -38.5q19 -2 52 -3t78 -1h128q74 0 122.5 -15t77.5 -39t41 -55.5t12 -64.5v-10 q16 -11 37.5 -16t63.5 -5z" />
<glyph unicode="&#x671;" horiz-adv-x="249" arabic-form="isolated" d="M178 809q17 0 30.5 -7.5t23.5 -20t15.5 -27.5t5.5 -30q0 -44 -29 -65.5t-80 -21.5q-33 0 -56.5 7.5t-43.5 7.5q-10 0 -19 -1.5t-16 -3.5t-14 -5v59q5 4 20 9.5t33 5.5h6.5t6.5 -1q10 15 22.5 32t27.5 30.5t32 22.5t35 9zM153 698q27 0 44 5.5t17 11.5t-12 20t-35 14 q-42 0 -78 -41q13 -4 28.5 -7t35.5 -3zM77 601l98 6v-607h-98v601z" />
<glyph unicode="&#x671;" horiz-adv-x="257" arabic-form="final" d="M241 723q0 -44 -29 -65.5t-80 -21.5q-33 0 -56.5 7.5t-43.5 7.5q-10 0 -19 -1.5t-16 -3.5t-14 -5v59q5 4 20 9.5t33 5.5h6.5t6.5 -1q10 15 22.5 32t27.5 30.5t32 22.5t35 9q17 0 30.5 -7.5t23.5 -20t15.5 -27.5t5.5 -30zM155 748q-42 0 -78 -41q13 -4 28.5 -7t35.5 -3 q27 0 44 5.5t17 11.5t-12 20t-35 14zM273 108v-105l-16 -3q-45 0 -81.5 9t-62.5 37.5t-40 80.5t-14 137v337l98 6v-399q0 -29 4.5 -47.5t16 -29.5t30.5 -15.5t49 -4.5z" />
<glyph unicode="&#x67e;" horiz-adv-x="800" arabic-form="final" d="M815 108v-105l-16 -3q-45 0 -90 9.5t-75 44.5q-2 -3 -8 -7q-42 -33 -122 -45t-189 -12q-97 0 -154.5 20t-87 50.5t-38 67t-8.5 69.5t6.5 62t14.5 51q9 26 20 47h90q-12 -21 -22 -44q-9 -22 -15.5 -45.5t-6.5 -47.5q0 -28 10.5 -50t36 -37.5t69.5 -23.5t110 -8 q112 0 177 13t71 35q2 10 4.5 33t5.5 48.5t5.5 47t3.5 28.5h93l-17 -172q21 -13 52.5 -18t63.5 -5zM423 -45q10 -8 21 -18q10 -9 20 -20t19 -23q-9 -12 -19.5 -23.5t-19.5 -19.5q-11 -10 -21 -19q-9 7 -18 16q-9 8 -18.5 18t-18.5 21q-9 -11 -18.5 -21t-17.5 -18 q-10 -9 -19 -16q-10 9 -21 19q-9 9 -19.5 20t-20.5 23q10 12 20.5 23t19.5 20q11 10 21 18q9 -7 19 -16l17.5 -17.5t18.5 -20.5q9 11 19 21t18 17q9 9 18 16zM369 -155q10 -9 21 -18q9 -9 19 -19.5t19 -21.5q-9 -13 -19 -24t-19 -20q-11 -10 -21 -18q-10 8 -20 18 q-10 9 -20 20t-19 24q9 11 19.5 21.5l19.5 19.5z" />
<glyph unicode="&#x67e;" horiz-adv-x="256" arabic-form="initial" d="M141 42q-23 -20 -58 -31t-83 -11l-16 3v105l16 3q57 0 79.5 10.5t22.5 22.5q0 29 -7 85t-20 129l94 18q5 -22 9 -48.5t8 -54.5t6 -54t2 -47q0 -45 -16 -77.5t-37 -52.5zM152 -29q10 -8 21 -18q10 -9 20 -20t19 -23q-9 -12 -19.5 -23.5t-19.5 -19.5q-11 -10 -21 -19 q-9 7 -18 16q-9 8 -18.5 18t-18.5 21q-9 -11 -18.5 -21t-17.5 -18q-10 -9 -19 -16q-10 9 -21 19q-9 9 -19.5 20t-20.5 23q10 12 20.5 23t19.5 20q11 10 21 18q9 -7 19 -16l17.5 -17.5t18.5 -20.5q9 11 19 21t18 17q9 9 18 16zM98 -139q10 -9 21 -18q9 -9 19 -19.5t19 -21.5 q-9 -13 -19 -24t-19 -20q-11 -10 -21 -18q-10 8 -20 18q-10 9 -20 20t-19 24q9 11 19.5 21.5l19.5 19.5z" />
<glyph unicode="&#x67e;" horiz-adv-x="315" arabic-form="medial" d="M332 108v-105l-16 -3q-23 0 -46.5 2t-45 8t-41 17t-34.5 29q-4 -5 -9 -10.5t-12 -10.5q-19 -15 -49 -25t-78 -10l-16 3v105l16 3q30 0 49.5 4t31.5 9.5t17 12t6 12.5q2 10 4.5 33t5.5 48.5t5 47t3 28.5h94l-17 -172q21 -13 52.5 -18t63.5 -5zM206 -29q10 -8 21 -18 q10 -9 20 -20t19 -23q-9 -12 -19.5 -23.5t-19.5 -19.5q-11 -10 -21 -19q-9 7 -18 16q-9 8 -18.5 18t-18.5 21q-9 -11 -18.5 -21t-17.5 -18q-10 -9 -19 -16q-10 9 -21 19q-9 9 -19.5 20t-20.5 23q10 12 20.5 23t19.5 20q11 10 21 18q9 -7 19 -16l17.5 -17.5t18.5 -20.5 q9 11 19 21t18 17q9 9 18 16zM152 -139q10 -9 21 -18q9 -9 19 -19.5t19 -21.5q-9 -13 -19 -24t-19 -20q-11 -10 -21 -18q-10 8 -20 18q-10 9 -20 20t-19 24q9 11 19.5 21.5l19.5 19.5z" />
<glyph unicode="&#x679;" horiz-adv-x="732" arabic-form="isolated" d="M479 374q0 -43 -31.5 -62.5t-95.5 -19.5q-45 0 -74 5.5t-40 10.5v61q7 -2 18 -5t27 -5q2 4 4.5 7.5t5.5 7.5v162l48 4v-73q0 -14 -3.5 -26t-8.5 -21q17 17 36 28.5t39 11.5q17 0 31 -8t23.5 -20t15 -27.5t5.5 -30.5zM394 401q-22 0 -43 -12.5t-39 -33.5q11 -1 23 -1.5 t26 -0.5t28 1t25 3t18.5 4.5t7.5 5.5q0 6 -11.5 20t-34.5 14zM663 376q5 -22 9 -49.5t8 -56t6 -55.5t2 -48q0 -45 -16 -74t-40 -47q-42 -33 -125 -44.5t-192 -11.5q-97 0 -154.5 20t-87 50.5t-38 67t-8.5 69.5t6.5 62t14.5 51q9 26 20 47h90q-12 -21 -22 -44 q-9 -22 -15.5 -45.5t-6.5 -47.5q0 -28 10.5 -50t36 -37.5t69.5 -23.5t110 -8q56 0 102.5 3.5t81 9.5t53.5 14.5t19 18.5q0 29 -7 83t-20 128z" />
<glyph unicode="&#x679;" horiz-adv-x="800" arabic-form="final" d="M487 374q0 -43 -31.5 -62.5t-95.5 -19.5q-45 0 -74 5.5t-40 10.5v61q7 -2 18 -5t27 -5q2 4 4.5 7.5t5.5 7.5v162l48 4v-73q0 -14 -3.5 -26t-8.5 -21q17 17 36 28.5t39 11.5q17 0 31 -8t23.5 -20t15 -27.5t5.5 -30.5zM402 401q-22 0 -43 -12.5t-39 -33.5q11 -1 23 -1.5 t26 -0.5t28 1t25 3t18.5 4.5t7.5 5.5q0 6 -11.5 20t-34.5 14zM815 108v-105l-16 -3q-45 0 -90 9.5t-75 44.5q-2 -3 -8 -7q-42 -33 -122 -45t-189 -12q-97 0 -154.5 20t-87 50.5t-38 67t-8.5 69.5t6.5 62t14.5 51q9 26 20 47h90q-12 -21 -22 -44q-9 -22 -15.5 -45.5 t-6.5 -47.5q0 -28 10.5 -50t36 -37.5t69.5 -23.5t110 -8q112 0 177 13t71 35q2 10 4.5 33t5.5 48.5t5.5 47t3.5 28.5h93l-17 -172q21 -13 52.5 -18t63.5 -5z" />
<glyph unicode="&#x679;" horiz-adv-x="256" arabic-form="initial" d="M156 588q17 0 31 -8t23.5 -20t15 -27.5t5.5 -30.5q0 -43 -31.5 -62.5t-95.5 -19.5q-45 0 -74 5.5t-40 10.5v61q7 -2 18 -5t27 -5q2 4 4.5 7.5t5.5 7.5v162l48 4v-73q0 -14 -3.5 -26t-8.5 -21q17 17 36 28.5t39 11.5zM113 481q14 0 28 1t25 3t18.5 4.5t7.5 5.5 q0 6 -11.5 20t-34.5 14q-22 0 -43 -12.5t-39 -33.5q11 -1 23 -1.5t26 -0.5zM169 376q5 -22 9 -48.5t8 -54.5t6 -54t2 -47q0 -45 -16 -77.5t-37 -52.5q-23 -20 -58 -31t-83 -11l-16 3v105l16 3q57 0 79.5 10.5t22.5 22.5q0 29 -7 85t-20 129z" />
<glyph unicode="&#x679;" horiz-adv-x="315" arabic-form="medial" d="M272 434q0 -43 -31.5 -62.5t-95.5 -19.5q-45 0 -74 5.5t-40 10.5v61q7 -2 18 -5t27 -5q2 4 4.5 7.5t5.5 7.5v162l48 4v-73q0 -14 -3.5 -26t-8.5 -21q17 17 36 28.5t39 11.5q17 0 31 -8t23.5 -20t15 -27.5t5.5 -30.5zM187 461q-22 0 -43 -12.5t-39 -33.5q11 -1 23 -1.5 t26 -0.5t28 1t25 3t18.5 4.5t7.5 5.5q0 6 -11.5 20t-34.5 14zM332 108v-105l-16 -3q-23 0 -46.5 2t-45 8t-41 17t-34.5 29q-4 -5 -9 -10.5t-12 -10.5q-19 -15 -49 -25t-78 -10l-16 3v105l16 3q30 0 49.5 4t31.5 9.5t17 12t6 12.5q2 10 4.5 33t5.5 48.5t5 47t3 28.5h94 l-17 -172q21 -13 52.5 -18t63.5 -5z" />
<glyph unicode="&#x6a4;" horiz-adv-x="760" arabic-form="isolated" d="M546 620q-10 9 -21 18q-9 9 -19 19.5t-19 22.5q9 13 19 24t19 20q11 10 21 18q10 -8 21 -18q9 -9 19.5 -20t19.5 -24q-9 -12 -19.5 -22.5l-19.5 -19.5q-11 -9 -21 -18zM492 509q-11 8 -22 18q-10 9 -20.5 20t-19.5 23q9 13 20 24.5t20 19.5q11 10 22 19q9 -7 18 -16 l18.5 -18.5t18.5 -21.5q9 12 18.5 22t18.5 18q9 9 18 16q10 -9 21 -19q10 -9 21 -20t21 -24q-10 -12 -21 -23t-21 -20q-11 -10 -21 -18q-9 7 -18 16q-9 8 -18.5 17.5t-18.5 20.5q-9 -11 -19 -21t-18 -17q-9 -9 -18 -16zM561 482q41 0 71.5 -25t50 -62t29 -79.5t9.5 -77.5 q0 -30 -4 -60t-14 -57t-26.5 -49t-40.5 -36q-44 -27 -127.5 -38t-187.5 -11q-97 0 -155.5 19t-89 49t-40 67t-9.5 73q0 34 6.5 63t14.5 51q9 26 20 48h90q-12 -22 -22 -45q-9 -21 -15.5 -45t-6.5 -48q0 -30 11.5 -52.5t38.5 -38t72 -23t111 -7.5q104 0 176 8t98 28 q9 7 15 21t8 29q-17 -9 -43.5 -17.5t-64.5 -8.5q-62 0 -101 31t-39 100q0 29 11.5 62.5t33.5 62.5t52.5 48.5t67.5 19.5zM458 287q0 -11 8 -18.5t20.5 -12t27.5 -6t28 -1.5q29 0 54.5 4.5t44.5 9.5q-4 19 -13 38t-21.5 34.5t-29 25.5t-36.5 10q-18 0 -33.5 -9t-26.5 -21.5 t-17 -27t-6 -26.5z" />
<glyph unicode="&#x6a4;" horiz-adv-x="806" arabic-form="final" d="M591 563q-10 9 -21 18q-9 9 -19 19.5t-19 22.5q9 13 19 24t19 20q11 10 21 18q10 -8 21 -18q9 -9 19.5 -20t19.5 -24q-9 -12 -19.5 -22.5l-19.5 -19.5q-11 -9 -21 -18zM537 452q-11 8 -22 18q-10 9 -20.5 20t-19.5 23q9 13 20 24.5t20 19.5q11 10 22 19q9 -7 18 -16 l18.5 -18.5t18.5 -21.5q9 12 18.5 22t18.5 18q9 9 18 16q10 -9 21 -19q10 -9 21 -20t21 -24q-10 -12 -21 -23t-21 -20q-11 -10 -21 -18q-9 7 -18 16q-9 8 -18.5 17.5t-18.5 20.5q-9 -11 -19 -21t-18 -17q-9 -9 -18 -16zM822 108v-105l-16 -3q-59 0 -112 8t-104 29 q-42 -18 -112 -34t-163 -16q-97 0 -154.5 20t-87 51t-38 67.5t-8.5 69.5q0 34 6.5 63t14.5 51q9 26 20 48h90q-12 -22 -22 -45q-9 -21 -15.5 -45t-6.5 -48q0 -28 10.5 -50.5t36 -38t69.5 -24t110 -8.5q37 0 73 3t65 8q-23 23 -36.5 53t-13.5 69q0 33 13.5 68t36.5 63.5 t55 47t69 18.5q36 0 64 -20t46.5 -50t28.5 -66t10 -68t-14 -58.5t-37 -48.5q29 -5 56 -5.5t50 -0.5zM581 317q-18 0 -34.5 -8.5t-28.5 -21t-19.5 -27.5t-7.5 -27q0 -23 30 -47.5t75 -41.5q33 14 52.5 34t19.5 37q0 14 -6.5 31.5t-17.5 33.5t-27 26.5t-36 10.5z" />
<glyph unicode="&#x6a4;" horiz-adv-x="390" arabic-form="initial" d="M180 622q-10 9 -21 18q-9 9 -19 19.5t-19 22.5q9 13 19 24t19 20q11 10 21 18q10 -8 21 -18q9 -9 19.5 -20t19.5 -24q-9 -12 -19.5 -22.5l-19.5 -19.5q-11 -9 -21 -18zM126 511q-11 8 -22 18q-10 9 -20.5 20t-19.5 23q9 13 20 24.5t20 19.5q11 10 22 19q9 -7 18 -16 l18.5 -18.5t18.5 -21.5q9 12 18.5 22t18.5 18q9 9 18 16q10 -9 21 -19q10 -9 21 -20t21 -24q-10 -12 -21 -23t-21 -20q-11 -10 -21 -18q-9 7 -18 16q-9 8 -18.5 17.5t-18.5 20.5q-9 -11 -19 -21t-18 -17q-9 -9 -18 -16zM191 485q41 0 71 -25t50 -62.5t29.5 -80t9.5 -77.5 q0 -31 -4.5 -61.5t-14.5 -57.5t-26.5 -48.5t-40.5 -35.5q-29 -19 -73.5 -28t-124.5 -9h-68l-16 3v105l16 3h92q124 0 160 25q10 7 15.5 21.5t7.5 29.5q-16 -8 -43 -17t-65 -9q-62 0 -101 30.5t-39 99.5q0 29 11.5 63t33 63t52 48.5t68.5 19.5zM88 289q0 -11 8 -18 t20.5 -11.5t27 -6.5t27.5 -2q29 0 54.5 4.5t45.5 9.5q-4 19 -13 38.5t-21.5 35t-29 25.5t-36.5 10q-18 0 -33.5 -9t-26.5 -21.5t-17 -27.5t-6 -27z" />
<glyph unicode="&#x6a4;" horiz-adv-x="423" arabic-form="medial" d="M205 564q-10 9 -21 18q-9 9 -19 19.5t-19 22.5q9 13 19 24t19 20q11 10 21 18q10 -8 21 -18q9 -9 19.5 -20t19.5 -24q-9 -12 -19.5 -22.5l-19.5 -19.5q-11 -9 -21 -18zM151 453q-11 8 -22 18q-10 9 -20.5 20t-19.5 23q9 13 20 24.5t20 19.5q11 10 22 19q9 -7 18 -16 l18.5 -18.5t18.5 -21.5q9 12 18.5 22t18.5 18q9 9 18 16q10 -9 21 -19q10 -9 21 -20t21 -24q-10 -12 -21 -23t-21 -20q-11 -10 -21 -18q-9 7 -18 16q-9 8 -18.5 17.5t-18.5 20.5q-9 -11 -19 -21t-18 -17q-9 -9 -18 -16zM439 108v-105l-16 -3q-63 0 -119 9t-109 33 q-34 -17 -81.5 -29.5t-113.5 -12.5l-16 3v105l16 3q20 0 43 1t47 3q-20 23 -32.5 51t-12.5 65q0 33 13.5 68t36.5 63.5t55 47t69 18.5q36 0 64 -20t46.5 -50t28.5 -66t10 -68t-13.5 -58t-36.5 -49q29 -4 55.5 -5t49.5 -1zM198 317q-18 0 -34.5 -8.5t-28.5 -21t-19.5 -27.5 t-7.5 -27q0 -23 30 -47.5t75 -41.5q33 14 52.5 34t19.5 37q0 14 -6.5 31.5t-17.5 33.5t-27 26.5t-36 10.5z" />
<glyph unicode="&#x686;" horiz-adv-x="605" arabic-form="isolated" d="M516 217q-81 -22 -155.5 -53t-131.5 -68.5t-91.5 -81.5t-34.5 -93q0 -10 8 -28t30 -36t62.5 -31t104.5 -13q49 0 93.5 7t79.5 15q40 10 76 22l-3 -108q-10 -5 -33.5 -12.5t-57 -15.5t-76 -13.5t-91.5 -5.5q-57 0 -106 14.5t-85.5 42t-57 68.5t-20.5 95q0 66 25.5 117 t68 90.5t99 68.5t119.5 51q-58 14 -106.5 30.5t-98.5 16.5q-18 0 -35 -3.5t-29 -6.5q-15 -5 -28 -11v99q15 7 31 13q16 5 34 9t38 4q33 0 70.5 -11t81 -24.5t94.5 -25t111 -11.5h74l-15 -111h-45zM463 39q-8 -11 -17.5 -21.5t-18.5 -18.5q-9 -9 -19 -17q-8 7 -17 15 q-8 7 -16.5 16t-17.5 20q-8 -11 -16.5 -20t-15.5 -16q-9 -8 -17 -15q-10 8 -19 17t-18.5 19t-18.5 21q9 11 18.5 21t18.5 18q9 9 19 16q8 -7 17 -14q7 -8 15.5 -16.5t16.5 -18.5q9 10 18 19l16 16q9 7 17 14q10 -7 19 -16q9 -8 18.5 -18t17.5 -21zM359 -5q9 -8 19 -17 q8 -8 17 -17.5t17 -20.5q-8 -11 -17 -21.5t-17 -17.5q-10 -9 -19 -17q-9 8 -19 17q-9 8 -18 18t-18 21q9 11 18.5 20.5l17.5 17.5q10 9 19 17z" />
<glyph unicode="&#x686;" horiz-adv-x="653" arabic-form="final" d="M669 108v-105l-16 -3h-3q-54 0 -89 16t-55.5 44t-27 65t-3.5 80q-74 -23 -141.5 -53t-118.5 -66t-81 -77.5t-30 -87.5q0 -10 8 -28t30 -36t62.5 -31t104.5 -13q49 0 93.5 7t79.5 15q40 10 76 22l-3 -108q-10 -5 -33.5 -12.5t-57 -15.5t-76 -13.5t-91.5 -5.5 q-57 0 -106 14.5t-85.5 42t-57 68.5t-20.5 95q0 66 25.5 117t68 90.5t99 68.5t119.5 51q-58 14 -106.5 30.5t-98.5 16.5q-18 0 -35 -3.5t-29 -6.5q-15 -5 -28 -11v99q15 7 31 13q16 5 34 9t38 4q33 0 70.5 -11t81 -24.5t94.5 -25t111 -11.5h81l-13 -111h-47q-1 -24 4.5 -44 t20 -33.5t39.5 -21t63 -7.5h2zM449 26q-8 -11 -17 -21t-17 -18q-10 -9 -19 -16q-8 6 -16 14l-15.5 15.5t-16.5 18.5q-8 -10 -16 -19t-15 -15q-8 -8 -16 -14q-9 7 -18 16q-9 8 -18 18t-18 21q9 11 18.5 20t17.5 17q9 8 18 15q8 -6 16 -14q7 -6 15 -14.5t16 -17.5 q8 9 16.5 17.5t15.5 14.5q8 8 16 14q9 -7 19 -15l17 -17t17 -20zM349 -17q9 -7 18 -16q8 -8 16.5 -17t16.5 -19q-8 -11 -16.5 -20.5t-16.5 -16.5q-9 -9 -18 -16q-9 7 -18 16q-8 7 -17 16.5t-17 20.5q8 10 17.5 19.5l16.5 16.5q9 9 18 16z" />
<glyph unicode="&#x686;" horiz-adv-x="622" arabic-form="initial" d="M597 273l-10 -103h-33h-45q-42 -8 -95 -34t-104 -55q-70 -40 -139 -60.5t-155 -20.5h-16l-16 3v105l16 3h14q83 0 146 11.5t117 35.5q17 7 38.5 16.5t45.5 19.5q-9 3 -18 7t-20 9q-45 20 -86.5 37t-79.5 17q-20 0 -39 -4t-34 -9q-17 -6 -32 -14v96q14 10 31 18 q17 7 37.5 12.5t47.5 5.5q46 0 89.5 -18.5t89.5 -38.5q49 -23 96.5 -31t107.5 -8h46zM513 93q10 -8 21 -18q10 -9 20 -20t19 -23q-9 -12 -19.5 -23.5t-19.5 -19.5q-11 -10 -21 -19q-9 7 -18 16q-9 8 -18.5 18t-18.5 21q-9 -11 -18.5 -21t-17.5 -18q-10 -9 -19 -16 q-10 9 -21 19q-9 9 -19.5 20t-20.5 23q10 12 20.5 23t19.5 20q11 10 21 18q9 -7 19 -16l17.5 -17.5t18.5 -20.5q9 11 19 21t18 17q9 9 18 16zM459 -17q10 -9 21 -18q9 -9 19 -19.5t19 -21.5q-9 -13 -19 -24t-19 -20q-11 -10 -21 -18q-10 8 -20 18q-10 9 -20 20t-19 24 q9 11 19.5 21.5l19.5 19.5z" />
<glyph unicode="&#x686;" horiz-adv-x="662" arabic-form="medial" d="M678 108v-105l-16 -3h-11q-44 0 -74.5 13t-49.5 35.5t-28.5 52.5t-12.5 64q-40 -12 -86 -35t-90 -49q-70 -40 -139 -60.5t-156 -20.5h-15l-16 3v105l16 3h14q81 0 145 11.5t118 35.5q17 7 38.5 16.5t45.5 19.5q-9 3 -18 7t-20 9q-45 20 -86.5 37t-79.5 17q-20 0 -39 -4 t-34 -9q-17 -6 -32 -14v96q14 10 31 18q17 7 37.5 12.5t47.5 5.5q46 0 89.5 -18.5t89.5 -38.5q49 -23 96.5 -31t107.5 -8h46l-10 -102h-33h-15q4 -12 11 -22.5t20 -19t33 -13.5t49 -5h10zM452 62q10 -8 21 -18q10 -9 20 -20t19 -23q-9 -12 -19.5 -23.5t-19.5 -19.5 q-11 -10 -21 -19q-9 7 -18 16q-9 8 -18.5 18t-18.5 21q-9 -11 -18.5 -21t-17.5 -18q-10 -9 -19 -16q-10 9 -21 19q-9 9 -19.5 20t-20.5 23q10 12 20.5 23t19.5 20q11 10 21 18q9 -7 19 -16l17.5 -17.5t18.5 -20.5q9 11 19 21t18 17q9 9 18 16zM398 -48q10 -9 21 -18 q9 -9 19 -19.5t19 -21.5q-9 -13 -19 -24t-19 -20q-11 -10 -21 -18q-10 8 -20 18q-10 9 -20 20t-19 24q9 11 19.5 21.5l19.5 19.5z" />
<glyph unicode="&#x688;" horiz-adv-x="409" arabic-form="isolated" d="M325 543q0 -43 -31.5 -62.5t-95.5 -19.5q-45 0 -74 5.5t-40 10.5v61q7 -2 18 -5t27 -5q2 4 4.5 7.5t5.5 7.5v162l48 4v-73q0 -14 -3.5 -26t-8.5 -21q17 17 36 28.5t39 11.5q17 0 31 -8t23.5 -20t15 -27.5t5.5 -30.5zM240 570q-22 0 -43 -12.5t-39 -33.5q11 -1 23 -1.5 t26 -0.5t28 1t25 3t18.5 4.5t7.5 5.5q0 6 -11.5 20t-34.5 14zM257 432q18 -22 39.5 -56.5t40.5 -74t31.5 -80.5t12.5 -77q0 -37 -17 -69t-46 -50q-23 -15 -61.5 -22.5t-86.5 -7.5q-51 0 -88 8t-53 18l-4 107q17 -6 54 -14t94 -8q52 0 85 8.5t33 17.5q0 18 -10 47.5t-28 67 t-42.5 79t-52.5 83.5z" />
<glyph unicode="&#x688;" horiz-adv-x="487" arabic-form="final" d="M354 546q0 -43 -31.5 -62.5t-95.5 -19.5q-45 0 -74 5.5t-40 10.5v61q7 -2 18 -5t27 -5q2 4 4.5 7.5t5.5 7.5v162l48 4v-73q0 -14 -3.5 -26t-8.5 -21q17 17 36 28.5t39 11.5q17 0 31 -8t23.5 -20t15 -27.5t5.5 -30.5zM269 573q-22 0 -43 -12.5t-39 -33.5q11 -1 23 -1.5 t26 -0.5t28 1t25 3t18.5 4.5t7.5 5.5q0 6 -11.5 20t-34.5 14zM503 108v-105l-16 -3q-51 0 -88.5 15.5t-62.5 58.5q-13 -31 -39 -49q-20 -13 -55 -21.5t-82 -8.5q-51 0 -86 8t-52 18l-5 107q17 -6 54 -14t94 -8q46 0 78.5 6.5t47.5 11.5q-11 31 -27.5 80.5t-31.5 97.5 q-18 56 -37 116l97 14l56 -178q15 -45 27 -72.5t26.5 -43.5t34.5 -21.5t51 -5.5z" />
<glyph unicode="&#x698;" horiz-adv-x="304" arabic-form="isolated" d="M147 486q-10 9 -21 18q-9 9 -19 19.5t-19 22.5q9 13 19 24t19 20q11 10 21 18q10 -8 21 -18q9 -9 19.5 -20t19.5 -24q-9 -12 -19.5 -22.5l-19.5 -19.5q-11 -9 -21 -18zM93 375q-11 8 -22 18q-10 9 -20.5 20t-19.5 23q9 13 20 24.5t20 19.5q11 10 22 19q9 -7 18 -16 l18.5 -18.5t18.5 -21.5q9 12 18.5 22t18.5 18q9 9 18 16q10 -9 21 -19q10 -9 21 -20t21 -24q-10 -12 -21 -23t-21 -20q-11 -10 -21 -18q-9 7 -18 16q-9 8 -18.5 17.5t-18.5 20.5q-9 -11 -19 -21t-18 -17q-9 -9 -18 -16zM207 330q11 -29 21 -58q8 -27 16 -56t13 -55 q4 -26 3.5 -61.5t-8.5 -73.5q-6 -30 -20 -68.5t-40.5 -72.5t-66 -57.5t-95.5 -23.5q-16 0 -28.5 2.5t-20.5 5.5q-10 4 -18 9l-7 105q2 -1 20.5 -6t47.5 -5q40 0 68 17t46 44t26 60t8 65q0 17 -15.5 66t-44.5 144z" />
<glyph unicode="&#x698;" horiz-adv-x="370" arabic-form="final" d="M168 459q-10 9 -21 18q-9 9 -19 19.5t-19 22.5q9 13 19 24t19 20q11 10 21 18q10 -8 21 -18q9 -9 19.5 -20t19.5 -24q-9 -12 -19.5 -22.5l-19.5 -19.5q-11 -9 -21 -18zM114 348q-11 8 -22 18q-10 9 -20.5 20t-19.5 23q9 13 20 24.5t20 19.5q11 10 22 19q9 -7 18 -16 l18.5 -18.5t18.5 -21.5q9 12 18.5 22t18.5 18q9 9 18 16q10 -9 21 -19q10 -9 21 -20t21 -24q-10 -12 -21 -23t-21 -20q-11 -10 -21 -18q-9 7 -18 16q-9 8 -18.5 17.5t-18.5 20.5q-9 -11 -19 -21t-18 -17q-9 -9 -18 -16zM385 108v-105l-16 -3q-41 0 -68 11.5t-46 31.5l-3 -17 q-6 -30 -20 -68.5t-40.5 -72.5t-66 -57.5t-95.5 -23.5q-16 0 -28.5 2.5t-20.5 5.5q-10 4 -18 9l-7 105q2 -1 20.5 -6t47.5 -5q40 0 68 17t46 44t26 60t8 65q0 14 -12 62.5t-26 119.5l93 15q4 -17 7 -34q4 -17 8 -35l8 -36q5 -17 13 -32t21.5 -26t34 -17.5t50.5 -6.5z" />
<glyph unicode="&#x691;" horiz-adv-x="304" arabic-form="isolated" d="M265 456q0 -43 -31.5 -62.5t-95.5 -19.5q-45 0 -74 5.5t-40 10.5v61q7 -2 18 -5t27 -5q2 4 4.5 7.5t5.5 7.5v162l48 4v-73q0 -14 -3.5 -26t-8.5 -21q17 17 36 28.5t39 11.5q17 0 31 -8t23.5 -20t15 -27.5t5.5 -30.5zM180 483q-22 0 -43 -12.5t-39 -33.5q11 -1 23 -1.5 t26 -0.5t28 1t25 3t18.5 4.5t7.5 5.5q0 6 -11.5 20t-34.5 14zM207 330q11 -29 21 -58q8 -27 16 -56t13 -55q4 -26 3.5 -61.5t-8.5 -73.5q-6 -30 -20 -68.5t-40.5 -72.5t-66 -57.5t-95.5 -23.5q-16 0 -28.5 2.5t-20.5 5.5q-10 4 -18 9l-7 105q2 -1 20.5 -6t47.5 -5 q40 0 68 17t46 44t26 60t8 65q0 17 -15.5 66t-44.5 144z" />
<glyph unicode="&#x691;" horiz-adv-x="370" arabic-form="final" d="M293 425q0 -43 -31.5 -62.5t-95.5 -19.5q-45 0 -74 5.5t-40 10.5v61q7 -2 18 -5t27 -5q2 4 4.5 7.5t5.5 7.5v162l48 4v-73q0 -14 -3.5 -26t-8.5 -21q17 17 36 28.5t39 11.5q17 0 31 -8t23.5 -20t15 -27.5t5.5 -30.5zM208 452q-22 0 -43 -12.5t-39 -33.5q11 -1 23 -1.5 t26 -0.5t28 1t25 3t18.5 4.5t7.5 5.5q0 6 -11.5 20t-34.5 14zM385 108v-105l-16 -3q-41 0 -68 11.5t-46 31.5l-3 -17q-6 -30 -20 -68.5t-40.5 -72.5t-66 -57.5t-95.5 -23.5q-16 0 -28.5 2.5t-20.5 5.5q-10 4 -18 9l-7 105q2 -1 20.5 -6t47.5 -5q40 0 68 17t46 44t26 60t8 65 q0 14 -12 62.5t-26 119.5l93 15q4 -17 7 -34q4 -17 8 -35l8 -36q5 -17 13 -32t21.5 -26t34 -17.5t50.5 -6.5z" />
<glyph unicode="&#x6af;" horiz-adv-x="819" arabic-form="final" d="M407 524l-4 60l348 196l5 -59zM835 108v-105l-16 -3q-41 0 -72.5 6t-56 18.5t-45 33t-39.5 49.5q-8 -20 -19 -36.5t-26 -28.5t-36 -21.5t-51 -15.5t-71.5 -9t-98.5 -3q-93 0 -148 17t-83.5 44t-37 61t-8.5 68q0 29 4.5 54t10.5 44q6 22 14 41h88q-9 -18 -15 -37 q-7 -18 -11.5 -37.5t-4.5 -39.5q0 -26 11 -45.5t36 -33t66 -20t101 -6.5q112 0 163 15t51 35h1q-2 8 -11.5 26.5t-30.5 51.5q-13 20 -29.5 42.5t-32 42.5t-26.5 35t-13 19t0 21t6 37t9.5 37t10.5 20l338 192l9 -109l-278 -155q20 -25 44.5 -58.5t47.5 -66.5q33 -47 57 -80.5 t48.5 -55t54 -31.5t73.5 -10z" />
<glyph unicode="&#x6af;" horiz-adv-x="404" arabic-form="initial" d="M1 506l-5 60l379 212l4 -59zM107 411q64 -27 110.5 -59t76.5 -65t44.5 -65t14.5 -59q0 -35 -14 -69t-45 -57q-14 -10 -31.5 -17t-42.5 -11.5t-59.5 -7t-82.5 -2.5h-78l-16 3v105l16 3h80q104 0 147.5 9.5t43.5 25.5q0 11 -11 33t-40.5 50.5t-81.5 60.5t-134 62v108 l382 213l8 -110z" />
<glyph unicode="&#x6af;" horiz-adv-x="470" arabic-form="medial" d="M59 521l-4 60l348 196l5 -59zM486 108v-105l-16 -3q-41 0 -72 6t-55.5 18.5t-45 33t-39.5 48.5q-9 -20 -23 -40t-35 -32q-32 -20 -70 -27t-83 -7h-47l-16 3v105l16 3h53q65 0 102.5 12t37.5 26q0 5 -9 24.5t-33 57.5q-13 20 -29.5 42.5t-32 42.5t-26.5 35t-13 19t0 21 t6.5 37t10 37t9.5 20l338 192l9 -109l-278 -155q20 -25 44.5 -58.5t47.5 -66.5q33 -47 57 -80.5t48.5 -55t54 -31.5t73.5 -10z" />
<glyph unicode="&#x6c1;" horiz-adv-x="385" arabic-form="isolated" d="M213 416q28 -21 54 -49t46 -60.5t32 -69t12 -73.5q0 -33 -10 -63.5t-31.5 -54t-55 -37.5t-80.5 -14q-40 0 -69 13t-47.5 34.5t-27 50.5t-8.5 61q0 33 9.5 66t26 65t39.5 61t50 53zM179 106q45 0 70 14t25 34q0 31 -25.5 72.5t-68.5 74.5q-20 -16 -36.5 -35t-28 -38.5 t-17.5 -37t-6 -29.5q0 -29 26 -42t61 -13z" />
<glyph unicode="&#x6c1;" horiz-adv-x="432" arabic-form="final" d="M281 58q-26 23 -44.5 37.5t-42.5 14.5q-20 0 -45.5 -11t-50.5 -26t-45 -30t-30 -23l-7 89q22 21 46.5 39.5t49.5 33t49.5 23t46.5 8.5q35 0 57.5 -16t49.5 -39q32 -26 57 -36.5t60 -10.5l16 -3v-105l-16 -3q-51 0 -85 15.5t-66 42.5z" />
<glyph unicode="&#x6c1;" horiz-adv-x="238" arabic-form="initial" d="M169 376q5 -22 9 -48.5t8 -54.5t6 -54t2 -47q0 -45 -16 -77.5t-37 -52.5q-23 -20 -58 -31t-83 -11l-16 3v105l16 3q57 0 79.5 10.5t22.5 22.5q0 29 -7 85t-20 129zM133 -225q-40 5 -64.5 24.5t-24.5 51.5q0 19 7.5 45.5t37.5 63.5h57q-11 -20 -23 -43t-12 -32 q0 -8 16.5 -16.5t40.5 -17.5z" />
<glyph unicode="&#x6c1;" horiz-adv-x="421" arabic-form="medial" d="M438 108v-105l-16 -3h-39q-20 0 -32 -4.5t-19 -12t-9 -16.5t-2 -18q0 -15 5 -33t12 -35t15 -32t13 -25l-107 -105q-22 19 -50.5 49t-53.5 67.5t-42.5 81t-17.5 88.5v11t1 12q-8 -6 -12 -8q-14 -11 -34 -15.5t-50 -4.5l-16 3v105l16 3q82 0 119 23q5 11 13 26t21 32h81 q-17 -26 -31 -55q-13 -26 -22 -56t-9 -62q0 -29 9.5 -55.5t24 -50t30.5 -41.5t28 -28q-6 17 -13 47t-7 63q0 29 8 57t24.5 50.5t42.5 36t62 13.5h41zM70 -206q0 -8 16.5 -16.5t40.5 -16.5l-35 -76q-40 4 -64.5 23.5t-24.5 51.5q0 19 7.5 45.5t37.5 63.5h57 q-11 -20 -23 -42.5t-12 -32.5z" />
<glyph unicode="&#x6be;" horiz-adv-x="527" arabic-form="final" d="M543 108v-105l-16 -3h-87q16 -15 25.5 -34t9.5 -44q0 -26 -9.5 -49t-29 -41t-48 -28.5t-67.5 -10.5q-37 0 -72 13t-63.5 39.5t-49 65t-28.5 89.5q-21 0 -37.5 2.5t-27.5 4.5q-14 3 -24 6v106q10 -2 23 -4q12 -1 27.5 -2.5t35.5 -1.5q6 65 23 115t41 84t52.5 52t58.5 18 t55 -18.5t42.5 -46t27 -58.5t9.5 -57q0 -29 -13.5 -57.5t-38.5 -53.5q12 8 31.5 15t50.5 7h83zM263 269q-35 0 -61.5 -42.5t-33.5 -115.5q46 0 77.5 7.5t50.5 18.5t27 23.5t8 22.5q0 11 -5.5 25.5t-15 28t-22 23t-25.5 9.5zM325 -100q31 0 48.5 9t17.5 18q0 18 -11 34 t-31 29t-47 21.5t-60 10.5q-16 -2 -33 -5.5t-39 -6.5q14 -45 52.5 -77.5t102.5 -32.5z" />
<glyph unicode="&#x6be;" horiz-adv-x="500" arabic-form="initial" d="M141 446q108 -50 171.5 -99.5t96.5 -95.5t43 -87.5t10 -76.5q0 -17 -7.5 -36t-20.5 -34.5t-28.5 -25.5t-32.5 -10q-16 0 -39.5 4.5t-50 12.5t-53.5 19t-50 23q-38 -18 -83.5 -29t-96.5 -11l-16 3v105l16 3q45 0 79 3q-18 20 -26 44.5t-8 58.5q0 33 17.5 67.5t45.5 59.5 l-11 5zM181 295q-16 0 -30.5 -9t-25 -21.5t-17 -25.5t-6.5 -21t9 -18t23 -20t31.5 -19.5t34.5 -18.5q23 12 38 28.5t15 32.5q0 11 -5 26.5t-14.5 30t-23 25t-29.5 10.5zM278 110q32 -11 63 -18.5t55 -10.5q-5 37 -20 69.5t-49 64.5q-2 -25 -14 -53.5t-35 -51.5z" />
<glyph unicode="&#x6be;" horiz-adv-x="458" arabic-form="medial" d="M474 108v-105l-16 -3h-72q16 -15 25.5 -34t9.5 -44q0 -26 -9.5 -49t-29 -41t-48 -28.5t-67.5 -10.5q-38 0 -73 13.5t-63.5 40t-49 66t-28.5 90.5q-14 -2 -28 -2.5t-25 -0.5l-16 3v105l16 3h51q6 65 23 115t40.5 84t52 52t58.5 18q31 0 56 -18.5t42.5 -46t27 -58.5 t9.5 -57q0 -29 -14 -58t-39 -54q12 8 31.5 15.5t51.5 7.5h68zM208 269q-35 0 -61 -42.5t-34 -115.5q47 0 78 7.5t50 18.5t27 23.5t8 22.5q0 11 -5.5 25.5t-15 28t-21.5 23t-26 9.5zM271 -100q31 0 48.5 9t17.5 18q0 18 -11 34t-31 29t-47.5 21.5t-60.5 10.5 q-15 -2 -32.5 -5.5t-38.5 -6.5q14 -45 52.5 -77.5t102.5 -32.5z" />
<glyph unicode="&#x6d2;" horiz-adv-x="574" arabic-form="final" d="M529 -255q-25 1 -50 1.5t-54.5 1t-66.5 0.5h-87q-85 0 -134.5 11.5t-75 32t-33 49.5t-8.5 64q0 31 15 67t49.5 67t91.5 51.5t142 20.5h256l16 -3v-105l-16 -3h-281q-56 0 -94 -10t-61.5 -24t-34 -29.5t-10.5 -26.5q0 -17 15 -27t42.5 -15.5t65.5 -7t83 -1.5 q89 0 143.5 -0.5t86.5 -2.5v-111z" />
<glyph unicode="&#x6d3;" horiz-adv-x="574" arabic-form="final" d="M251 149q-23 -5 -69.5 -12t-102.5 -7v58q8 0 15.5 0.5t13.5 1.5q-5 6 -8.5 15.5t-3.5 20.5q0 15 6 30t17 27.5t25.5 20t31.5 7.5q15 0 28 -6.5t21 -15.5l-9 -56q-9 8 -18.5 12t-22.5 4q-20 0 -30.5 -10t-10.5 -16q0 -7 10 -16.5t34 -9.5q16 0 37.5 3.5t35.5 7.5v-59z M590 108v-105l-16 -3h-281q-56 0 -94 -10t-61.5 -24t-34 -29.5t-10.5 -26.5q0 -17 15 -27t42.5 -15.5t65.5 -7t83 -1.5q89 0 143.5 -0.5t86.5 -2.5v-111q-25 1 -50 1.5t-54.5 1t-66.5 0.5h-87q-85 0 -134.5 11.5t-75 32t-33 49.5t-8.5 64q0 31 15 67t49.5 67t91.5 51.5 t142 20.5h256z" />
<glyph unicode="&#x649;" horiz-adv-x="315" arabic-form="medial" d="M332 108v-105l-16 -3q-23 0 -46.5 2t-45 8t-41 17t-34.5 29q-4 -5 -9 -10.5t-12 -10.5q-19 -15 -49 -25t-78 -10l-16 3v105l16 3q30 0 49.5 4t31.5 9.5t17 12t6 12.5q2 10 4.5 33t5.5 48.5t5 47t3 28.5h94l-17 -172q21 -13 52.5 -18t63.5 -5z" />
<glyph unicode="&#x6cc;" horiz-adv-x="605" arabic-form="final" d="M620 108v-105l-16 -3h-28q4 -9 4 -21q0 -23 -6 -56t-33 -68q-15 -18 -39.5 -37t-58.5 -35t-77 -26t-94 -10q-73 0 -120 21t-75 54t-39 73t-11 78t6 71.5t14 58.5q8 30 19 54h90q-11 -26 -20 -53q-9 -25 -15 -52.5t-6 -54.5q0 -20 5.5 -44t23.5 -45t51.5 -35.5t88.5 -14.5 q45 0 85.5 10t70.5 24.5t47.5 29t17.5 23.5q0 20 -33.5 37.5t-93.5 17.5h-1l20 111h207z" />
<glyph unicode="&#x6cc;" horiz-adv-x="251" arabic-form="initial" d="M141 42q-23 -20 -58 -31t-83 -11l-16 3v105l16 3q57 0 79.5 10.5t22.5 22.5q0 29 -7 85t-20 129l94 18q5 -22 9 -48.5t8 -54.5t6 -54t2 -47q0 -45 -16 -77.5t-37 -52.5zM144 -45q10 -9 21 -19q9 -9 19 -19.5t19 -22.5q-9 -12 -19.5 -22.5t-18.5 -19.5q-11 -9 -21 -18 q-8 7 -17 15q-8 7 -16.5 16t-17.5 19q-9 -10 -18 -19l-16 -16q-9 -8 -17 -15l-20 18t-20 19.5t-19 22.5q9 12 19.5 23t19.5 19q10 10 20 19q8 -7 17 -15q8 -7 16.5 -16t17.5 -20q9 11 18 20l16 16q9 8 17 15z" />
<glyph unicode="&#x6cc;" horiz-adv-x="315" arabic-form="medial" d="M332 108v-105l-16 -3q-23 0 -46.5 2t-45 8t-41 17t-34.5 29q-4 -5 -9 -10.5t-12 -10.5q-19 -15 -49 -25t-78 -10l-16 3v105l16 3q30 0 49.5 4t31.5 9.5t17 12t6 12.5q2 10 4.5 33t5.5 48.5t5 47t3 28.5h94l-17 -172q21 -13 52.5 -18t63.5 -5zM196 -51q10 -9 21 -19 q9 -9 19 -19.5t19 -22.5q-9 -12 -19.5 -22.5t-18.5 -19.5q-11 -9 -21 -18q-8 7 -17 15q-8 7 -16.5 16t-17.5 19q-9 -10 -18 -19l-16 -16q-9 -8 -17 -15l-20 18t-20 19.5t-19 22.5q9 12 19.5 23t19.5 19q10 10 20 19q8 -7 17 -15q8 -7 16.5 -16t17.5 -20q9 11 18 20l16 16 q9 8 17 15z" />
<glyph unicode="&#xfc5d;" arabic-form="isolated" d="M49 721l-3 50l184 20l3 -51zM233 721l3 -51l-184 -19l-3 50zM241 649q3 -26 4.5 -41t1.5 -23q0 -21 -15.5 -38t-32.5 -17q-24 0 -50 16q-6 -11 -16.5 -18.5t-29.5 -7.5q-30 0 -43 17.5t-13 46.5q0 10 1.5 17.5t3.5 13.5q1 6 4 10h39q-2 -4 -3 -9q-2 -4 -3 -9.5t-1 -11.5 q0 -13 5.5 -18.5t13.5 -5.5q9 0 12.5 3t4.5 7l7 52l39 1l-4 -40q17 -9 39 -13l-6 63z" />
<glyph unicode="&#xfc5e;" arabic-form="isolated" d="M65 740q-5 0 -11 -1t-11 -2q-6 -1 -13 -2v51q12 6 23 8.5t19 2.5q18 0 25.5 -11t7.5 -34q0 -16 7 -28.5t31 -12.5q11 0 23 3q-18 7 -28 17.5t-10 30.5q0 10 4.5 22t12.5 22t19.5 16.5t25.5 6.5q28 0 39.5 -22t11.5 -45q0 -24 -9 -43t-23.5 -32.5t-33 -21t-38.5 -7.5 t-34 7t-22.5 17.5t-12 23t-3.5 24.5v10zM159 763q0 -6 9.5 -10.5t33.5 -11.5q2 6 2 12q0 10 -6 18.5t-17 8.5t-16.5 -6t-5.5 -11zM241 649q3 -26 4.5 -41t1.5 -23q0 -21 -15.5 -38t-32.5 -17q-24 0 -50 16q-6 -11 -16.5 -18.5t-29.5 -7.5q-30 0 -43 17.5t-13 46.5 q0 10 1.5 17.5t3.5 13.5q1 6 4 10h39q-2 -4 -3 -9q-2 -4 -3 -9.5t-1 -11.5q0 -13 5.5 -18.5t13.5 -5.5q9 0 12.5 3t4.5 7l7 52l39 1l-4 -40q17 -9 39 -13l-6 63z" />
<glyph unicode="&#xfc5f;" arabic-form="isolated" d="M103 520q-30 0 -43 17.5t-13 46.5q0 10 1.5 17.5t3.5 13.5q1 6 4 10h39q-2 -4 -3 -9q-2 -4 -3 -9.5t-1 -11.5q0 -13 5.5 -18.5t13.5 -5.5q9 0 12.5 3t4.5 7l7 52l39 1l-4 -40q17 -9 39 -13l-6 63l42 5q3 -26 4.5 -41t1.5 -23q0 -21 -15.5 -38t-32.5 -17q-24 0 -50 16 q-6 -11 -16.5 -18.5t-29.5 -7.5zM60 439l-3 50l184 20l3 -51zM244 439l3 -51l-184 -19l-3 50z" />
<glyph unicode="&#xfc60;" arabic-form="isolated" d="M52 651l-3 50l184 20l3 -51zM241 649q3 -26 4.5 -41t1.5 -23q0 -21 -15.5 -38t-32.5 -17q-24 0 -50 16q-6 -11 -16.5 -18.5t-29.5 -7.5q-30 0 -43 17.5t-13 46.5q0 10 1.5 17.5t3.5 13.5q1 6 4 10h39q-2 -4 -3 -9q-2 -4 -3 -9.5t-1 -11.5q0 -13 5.5 -18.5t13.5 -5.5 q9 0 12.5 3t4.5 7l7 52l39 1l-4 -40q17 -9 39 -13l-6 63z" />
<glyph unicode="&#xfc61;" arabic-form="isolated" d="M55 699q55 1 85 9q-15 7 -23 16.5t-8 28.5q0 10 4.5 22t12.5 22t19.5 16.5t25.5 6.5q28 0 39.5 -22t11.5 -46q0 -52 -41.5 -76t-120.5 -26zM162 771q-11 0 -16.5 -6t-5.5 -11q0 -6 9 -11t33 -11q3 5 3 12q0 10 -6 18.5t-17 8.5zM241 649q3 -26 4.5 -41t1.5 -23 q0 -21 -15.5 -38t-32.5 -17q-24 0 -50 16q-6 -11 -16.5 -18.5t-29.5 -7.5q-30 0 -43 17.5t-13 46.5q0 10 1.5 17.5t3.5 13.5q1 6 4 10h39q-2 -4 -3 -9q-2 -4 -3 -9.5t-1 -11.5q0 -13 5.5 -18.5t13.5 -5.5q9 0 12.5 3t4.5 7l7 52l39 1l-4 -40q17 -9 39 -13l-6 63z" />
<glyph unicode="&#xfc62;" arabic-form="isolated" d="M103 520q-30 0 -43 17.5t-13 46.5q0 10 1.5 17.5t3.5 13.5q1 6 4 10h39q-2 -4 -3 -9q-2 -4 -3 -9.5t-1 -11.5q0 -13 5.5 -18.5t13.5 -5.5q9 0 12.5 3t4.5 7l7 52l39 1l-4 -40q17 -9 39 -13l-6 63l42 5q3 -26 4.5 -41t1.5 -23q0 -21 -15.5 -38t-32.5 -17q-24 0 -50 16 q-6 -11 -16.5 -18.5t-29.5 -7.5zM241 509l3 -51l-184 -19l-3 50z" />
<glyph unicode="&#xfc63;" arabic-form="isolated" d="M170 656h-39v106l41 2zM241 649q3 -26 4.5 -41t1.5 -23q0 -21 -15.5 -38t-32.5 -17q-24 0 -50 16q-6 -11 -16.5 -18.5t-29.5 -7.5q-30 0 -43 17.5t-13 46.5q0 10 1.5 17.5t3.5 13.5q1 6 4 10h39q-2 -4 -3 -9q-2 -4 -3 -9.5t-1 -11.5q0 -13 5.5 -18.5t13.5 -5.5 q9 0 12.5 3t4.5 7l7 52l39 1l-4 -40q17 -9 39 -13l-6 63z" />
<glyph unicode="&#xfdf2;" horiz-adv-x="1158" arabic-form="isolated" d="M579 873h-45v119l47 2zM510 722q-30 0 -43 17.5t-13 46.5q0 10 1.5 17.5t3.5 13.5q1 6 4 10h39q-2 -4 -3 -9q-2 -4 -3 -9.5t-1 -11.5q0 -13 5.5 -18.5t13.5 -5.5q9 0 12.5 3t4.5 7l7 52l39 1l-4 -40q17 -9 39 -13l-6 63l42 5q3 -26 4.5 -41t1.5 -23q0 -21 -15.5 -38 t-32.5 -17q-24 0 -50 16q-6 -11 -16.5 -18.5t-29.5 -7.5zM773 680l98 6v-481q0 -67 -18.5 -107.5t-48.5 -63.5q-19 -15 -46.5 -24.5t-70.5 -9.5q-49 0 -77 19.5t-44 55.5q-15 -24 -32 -38t-43 -25.5t-74 -11.5q-71 0 -106.5 24t-51.5 68q-14 -8 -40.5 -17.5t-67.5 -9.5 q-38 0 -68 13.5t-49 39.5q-19 29 -21.5 69t17.5 72q15 26 39 48t51.5 41t58 34.5t59.5 28.5v69l95 6v-270q0 -25 1 -44.5t8.5 -33t25 -20.5t49.5 -7q28 0 45 4t26.5 10.5t12.5 15t3 16.5v524l98 5v-452q0 -27 1.5 -50t9 -39t23.5 -25t46 -9q53 0 72 15t19 31v523zM1104 686 v-686h-98v680zM158 172q28 0 49 4.5t35 9.5q-1 11 -1 22t-1 22q-1 13 -1.5 35t-0.5 48q-79 -33 -121 -65t-42 -46q0 -11 24 -20.5t59 -9.5z" />
<glyph unicode="&#xfdfc;" horiz-adv-x="1023" arabic-form="isolated" d="M779 0q-43 0 -76 11t-55.5 41t-34.5 82t-12 134v127q-9 -8 -18 -14.5t-18 -14.5q-14 -11 -28.5 -22t-28.5 -22v-281q0 -87 -56 -146q-32 -35 -84.5 -56t-112.5 -21q-69 0 -113.5 22t-69.5 56t-34.5 73.5t-9.5 75.5q0 38 6 71t14 58q8 28 19 52h89q-12 -25 -21 -51 q-9 -24 -15 -51t-6 -55q0 -19 4.5 -43t19.5 -45.5t44.5 -36.5t79.5 -15q35 0 63 8t47.5 19t30 23.5t10.5 21.5v254q-38 -24 -73.5 -38t-67.5 -14q-31 0 -51 7t-32 18v103q10 -7 33 -12t55 -5t65 11.5t71 34.5v320l95 6v-260q5 5 11 9t12 9q18 14 35.5 27t34.5 27v182l95 6 v-120q30 19 58.5 30.5t55.5 11.5q17 0 30.5 -3t23.5 -7q12 -4 21 -10v-106q-14 5 -36 10.5t-48 5.5q-24 0 -50 -9.5t-55 -26.5v-257q0 -29 4.5 -47t16 -28.5t30 -14.5t46.5 -4q53 0 74.5 10.5t21.5 22.5q0 29 -6.5 83.5t-19.5 127.5l94 18q4 -22 8.5 -48.5t8 -53.5 t5.5 -52.5t2 -46.5q0 -45 -16 -77.5t-37 -52.5q-23 -20 -56 -31t-78 -11h-15zM893 -40q10 -9 21 -19q10 -9 20.5 -20.5t20.5 -23.5q-10 -12 -21 -23.5t-20 -20.5q-11 -10 -21 -19q-8 7 -17 15t-18 17t-18 20q-9 -11 -18.5 -20t-16.5 -17q-10 -8 -18 -15q-11 9 -21 19 q-10 9 -20.5 20.5t-19.5 23.5q9 12 19.5 23.5t20.5 20.5q10 10 21 19q8 -7 18 -16q8 -7 17 -16t18 -20q9 11 18.5 20t17.5 16q9 9 17 16z" />
<glyph unicode="&#x622;" horiz-adv-x="249" arabic-form="final" d="M-26 706q5 4 20.5 10t36.5 6q24 0 48 -6.5t62 -6.5q49 0 95 15v-67q-13 -5 -29 -8q-14 -4 -31 -6.5t-36 -2.5q-35 0 -60 7t-49 7q-11 0 -21.5 -2t-18.5 -4q-9 -3 -17 -6v64zM149 208q0 -29 4.5 -47.5t16 -29.5t30.5 -15.5t49 -4.5l16 -3v-105l-16 -3q-45 0 -81.5 9 t-62.5 37.5t-40 80.5t-14 137v337l98 6v-399z" />
<glyph unicode="&#x623;" horiz-adv-x="255" arabic-form="final" d="M191 644q-23 -5 -69.5 -12t-102.5 -7v58q8 0 15.5 0.5t13.5 1.5q-5 6 -8.5 15.5t-3.5 20.5q0 15 6 30t17 27.5t25.5 20t31.5 7.5q15 0 28 -6.5t21 -15.5l-9 -56q-9 8 -18.5 12t-22.5 4q-20 0 -30.5 -10t-10.5 -16q0 -7 10 -16.5t34 -9.5q16 0 37.5 3.5t35.5 7.5v-59z M270 108v-105l-16 -3q-45 0 -81.5 9t-62.5 37.5t-40 80.5t-14 137v337l98 6v-399q0 -29 4.5 -47.5t16 -29.5t30.5 -15.5t49 -4.5z" />
<glyph unicode="&#x624;" horiz-adv-x="416" arabic-form="final" d="M282 411q-23 -5 -69.5 -12t-102.5 -7v58q8 0 15.5 0.5t13.5 1.5q-5 6 -8.5 15.5t-3.5 20.5q0 15 6 30t17 27.5t25.5 20t31.5 7.5q15 0 28 -6.5t21 -15.5l-9 -56q-9 8 -18.5 12t-22.5 4q-20 0 -30.5 -10t-10.5 -16q0 -7 10 -16.5t34 -9.5q16 0 37.5 3.5t35.5 7.5v-59z M430 107v-104l-16 -3h-54q-9 -39 -26 -74.5t-43.5 -62.5t-63 -43t-83.5 -16q-27 0 -48 3.5t-36 8.5q-17 5 -30 12l-3 98q4 -1 34.5 -9.5t81.5 -8.5q60 0 94 27t48 65h-107q-68 0 -108 34.5t-40 109.5q0 33 12 69t34.5 66.5t54 50.5t70.5 20t69.5 -22t52 -56.5t33.5 -77 t14 -83.5h44zM291 107q-4 23 -13 46t-23 42.5t-32.5 31.5t-41.5 12q-20 0 -36.5 -9.5t-28 -23.5t-18 -30t-6.5 -30q0 -11 8 -18.5t20.5 -12t27.5 -6.5t29 -2h114z" />
<glyph unicode="&#x625;" horiz-adv-x="251" arabic-form="final" d="M265 108v-105l-16 -3h-20q-43 0 -76.5 11t-56 41t-34 82t-11.5 134v412l98 6v-481q0 -29 4.5 -47t16 -28.5t30.5 -14.5t49 -4zM99 -111q0 -7 10 -16.5t34 -9.5q16 0 37.5 3.5t35.5 7.5v-59q-23 -5 -69.5 -12t-102.5 -7v58q8 0 15.5 0.5t13.5 1.5q-5 6 -8.5 15.5 t-3.5 20.5q0 15 6 30t17 27.5t25.5 20t31.5 7.5q15 0 28 -6.5t21 -15.5l-9 -56q-9 8 -18.5 12t-22.5 4q-20 0 -30.5 -10t-10.5 -16z" />
<glyph unicode="&#x626;" horiz-adv-x="605" arabic-form="final" d="M191 214q-23 -5 -69.5 -12t-102.5 -7v58q8 0 15.5 0.5t13.5 1.5q-5 6 -8.5 15.5t-3.5 20.5q0 15 6 30t17 27.5t25.5 20t31.5 7.5q15 0 28 -6.5t21 -15.5l-9 -56q-9 8 -18.5 12t-22.5 4q-20 0 -30.5 -10t-10.5 -16q0 -7 10 -16.5t34 -9.5q16 0 37.5 3.5t35.5 7.5v-59z M620 108v-105l-16 -3h-28q4 -9 4 -21q0 -23 -6 -56t-33 -68q-15 -18 -39.5 -37t-58.5 -35t-77 -26t-94 -10q-73 0 -120 21t-75 54t-39 73t-11 78t6 71.5t14 58.5q8 30 19 54h90q-11 -26 -20 -53q-9 -25 -15 -52.5t-6 -54.5q0 -20 5.5 -44t23.5 -45t51.5 -35.5t88.5 -14.5 q45 0 85.5 10t70.5 24.5t47.5 29t17.5 23.5q0 20 -33.5 37.5t-93.5 17.5h-1l20 111h207z" />
<glyph unicode="&#x626;" horiz-adv-x="238" arabic-form="initial" d="M128 468q16 0 37.5 3.5t35.5 7.5v-59q-23 -5 -69.5 -12t-102.5 -7v58q8 0 15.5 0.5t13.5 1.5q-5 6 -8.5 15.5t-3.5 20.5q0 15 6 30t17 27.5t25.5 20t31.5 7.5q15 0 28 -6.5t21 -15.5l-9 -56q-9 8 -18.5 12t-22.5 4q-20 0 -30.5 -10t-10.5 -16q0 -7 10 -16.5t34 -9.5z M169 376q5 -22 9 -48.5t8 -54.5t6 -54t2 -47q0 -45 -16 -77.5t-37 -52.5q-23 -20 -58 -31t-83 -11l-16 3v105l16 3q57 0 79.5 10.5t22.5 22.5q0 29 -7 85t-20 129z" />
<glyph unicode="&#x626;" horiz-adv-x="315" arabic-form="medial" d="M250 365q-23 -5 -69.5 -12t-102.5 -7v58q8 0 15.5 0.5t13.5 1.5q-5 6 -8.5 15.5t-3.5 20.5q0 15 6 30t17 27.5t25.5 20t31.5 7.5q15 0 28 -6.5t21 -15.5l-9 -56q-9 8 -18.5 12t-22.5 4q-20 0 -30.5 -10t-10.5 -16q0 -7 10 -16.5t34 -9.5q16 0 37.5 3.5t35.5 7.5v-59z M332 108v-105l-16 -3q-23 0 -46.5 2t-45 8t-41 17t-34.5 29q-4 -5 -9 -10.5t-12 -10.5q-19 -15 -49 -25t-78 -10l-16 3v105l16 3q30 0 49.5 4t31.5 9.5t17 12t6 12.5q2 10 4.5 33t5.5 48.5t5 47t3 28.5h94l-17 -172q21 -13 52.5 -18t63.5 -5z" />
<glyph unicode="&#x627;" horiz-adv-x="250" arabic-form="final" d="M150 205q0 -29 4.5 -47t16 -28.5t30.5 -14.5t49 -4l16 -3v-105l-16 -3h-20q-43 0 -76.5 11t-56 41t-34 82t-11.5 134v412l98 6v-481z" />
<glyph unicode="&#x628;" horiz-adv-x="800" arabic-form="final" d="M816 108v-105l-16 -3q-45 0 -90 9.5t-75 44.5q-2 -3 -8 -7q-42 -33 -122 -45t-189 -12q-97 0 -154.5 20t-87 50.5t-38 67t-8.5 69.5t6.5 62t14.5 51q9 26 20 47h90q-12 -21 -22 -44q-9 -22 -15.5 -45.5t-6.5 -47.5q0 -28 10.5 -50t36 -37.5t69.5 -23.5t110 -8 q112 0 177 13t71 35q2 10 4.5 33t5.5 48.5t5.5 47t3.5 28.5h93l-17 -172q21 -13 52.5 -18t63.5 -5zM353 -60q11 -9 23 -20q11 -10 22 -21.5t22 -25.5q-11 -13 -22.5 -25t-21.5 -21q-12 -11 -23 -20q-11 9 -23 20q-10 10 -21 21.5t-20 24.5q9 14 20.5 26t20.5 21q12 11 23 20 z" />
<glyph unicode="&#x628;" horiz-adv-x="238" arabic-form="initial" d="M169 376q5 -22 9 -48.5t8 -54.5t6 -54t2 -47q0 -45 -16 -77.5t-37 -52.5q-23 -20 -58 -31t-83 -11l-16 3v105l16 3q57 0 79.5 10.5t22.5 22.5q0 29 -7 85t-20 129zM24 -105q9 14 20.5 26t20.5 21q12 11 23 20q11 -9 23 -20q11 -10 22 -21.5t22 -25.5q-11 -13 -22.5 -25 t-21.5 -21q-12 -11 -23 -20q-11 9 -23 20q-10 10 -21 21.5t-20 24.5z" />
<glyph unicode="&#x628;" horiz-adv-x="315" arabic-form="medial" d="M332 108v-105l-16 -3q-23 0 -46.5 2t-45 8t-41 17t-34.5 29q-4 -5 -9 -10.5t-12 -10.5q-19 -15 -49 -25t-78 -10l-16 3v105l16 3q30 0 49.5 4t31.5 9.5t17 12t6 12.5q2 10 4.5 33t5.5 48.5t5 47t3 28.5h94l-17 -172q21 -13 52.5 -18t63.5 -5zM147 -27q11 -9 23 -20 q11 -10 22 -21.5t22 -25.5q-11 -13 -22.5 -25t-21.5 -21q-12 -11 -23 -20q-11 9 -23 20q-10 10 -21 21.5t-20 24.5q9 14 20.5 26t20.5 21q12 11 23 20z" />
<glyph unicode="&#x629;" horiz-adv-x="443" arabic-form="final" d="M173 508q-11 9 -21 19q-10 9 -20.5 20.5t-19.5 23.5q9 12 19.5 23.5t20.5 20.5q10 10 21 19q8 -7 18 -15l17 -17t18 -20q9 11 18.5 20t17.5 17q9 8 17 15q10 -9 21 -19q10 -9 20.5 -20.5t20.5 -23.5q-10 -12 -21 -23.5t-20 -20.5q-11 -10 -21 -19q-8 7 -17 16 q-9 7 -18 16t-18 20q-9 -11 -18.5 -20t-16.5 -16q-10 -9 -18 -16zM465 108v-105l-16 -3q-72 0 -111.5 25t-59.5 70q-11 -8 -39 -19t-73 -11q-38 0 -68 13.5t-49 39.5q-19 29 -21.5 69t17.5 72q15 26 39 48t51.5 41t58 34.5t59.5 28.5v59l95 6v-260q0 -25 3.5 -44.5t14.5 -33 t31 -20.5t52 -7zM173 172q29 0 50 4.5t35 10.5q-2 10 -2 21t-1 22q-1 13 -1.5 35t-0.5 48q-79 -33 -121 -65t-42 -46q0 -11 24 -20.5t59 -9.5z" />
<glyph unicode="&#x62a;" horiz-adv-x="800" arabic-form="final" d="M324 328q-11 9 -21 19q-10 9 -20.5 20.5t-19.5 23.5q9 12 19.5 23.5t20.5 20.5q10 10 21 19q8 -7 18 -15l17 -17t18 -20q9 11 18.5 20t17.5 17q9 8 17 15q10 -9 21 -19q10 -9 20.5 -20.5t20.5 -23.5q-10 -12 -21 -23.5t-20 -20.5q-11 -10 -21 -19q-8 7 -17 16 q-9 7 -18 16t-18 20q-9 -11 -18.5 -20t-16.5 -16q-10 -9 -18 -16zM815 108v-105l-16 -3q-45 0 -90 9.5t-75 44.5q-2 -3 -8 -7q-42 -33 -122 -45t-189 -12q-97 0 -154.5 20t-87 50.5t-38 67t-8.5 69.5t6.5 62t14.5 51q9 26 20 47h90q-12 -21 -22 -44q-9 -22 -15.5 -45.5 t-6.5 -47.5q0 -28 10.5 -50t36 -37.5t69.5 -23.5t110 -8q112 0 177 13t71 35q2 10 4.5 33t5.5 48.5t5.5 47t3.5 28.5h93l-17 -172q21 -13 52.5 -18t63.5 -5z" />
<glyph unicode="&#x62a;" horiz-adv-x="239" arabic-form="initial" d="M167 555q10 -9 21 -19q10 -9 20.5 -20.5t20.5 -23.5q-10 -12 -21 -23.5t-20 -20.5q-11 -10 -21 -19q-8 7 -17 16q-9 7 -18 16t-18 20q-9 -11 -18.5 -20t-16.5 -16q-10 -9 -18 -16q-11 9 -21 19q-10 9 -20.5 20.5t-19.5 23.5q9 12 19.5 23.5t20.5 20.5q10 10 21 19 q8 -7 18 -15l17 -17t18 -20q9 11 18.5 20t17.5 17q9 8 17 15zM169 376q5 -22 9 -48.5t8 -54.5t6 -54t2 -47q0 -45 -16 -77.5t-37 -52.5q-23 -20 -58 -31t-83 -11l-16 3v105l16 3q57 0 79.5 10.5t22.5 22.5q0 29 -7 85t-20 129z" />
<glyph unicode="&#x62a;" horiz-adv-x="315" arabic-form="medial" d="M112 364q-11 9 -21 19q-10 9 -20.5 20.5t-19.5 23.5q9 12 19.5 23.5t20.5 20.5q10 10 21 19q8 -7 18 -15l17 -17t18 -20q9 11 18.5 20t17.5 17q9 8 17 15q10 -9 21 -19q10 -9 20.5 -20.5t20.5 -23.5q-10 -12 -21 -23.5t-20 -20.5q-11 -10 -21 -19q-8 7 -17 16 q-9 7 -18 16t-18 20q-9 -11 -18.5 -20t-16.5 -16q-10 -9 -18 -16zM332 108v-105l-16 -3q-23 0 -46.5 2t-45 8t-41 17t-34.5 29q-4 -5 -9 -10.5t-12 -10.5q-19 -15 -49 -25t-78 -10l-16 3v105l16 3q30 0 49.5 4t31.5 9.5t17 12t6 12.5q2 10 4.5 33t5.5 48.5t5 47t3 28.5h94 l-17 -172q21 -13 52.5 -18t63.5 -5z" />
<glyph unicode="&#x62b;" horiz-adv-x="800" arabic-form="final" d="M371 414q-10 9 -21 18q-9 9 -19 19.5t-19 22.5q9 13 19 24t19 20q11 10 21 18q10 -8 21 -18q9 -9 19.5 -20t19.5 -24q-9 -12 -19.5 -22.5l-19.5 -19.5q-11 -9 -21 -18zM317 303q-11 8 -22 18q-10 9 -20.5 20t-19.5 23q9 13 20 24.5t20 19.5q11 10 22 19q9 -7 18 -16 l18.5 -18.5t18.5 -21.5q9 12 18.5 22t18.5 18q9 9 18 16q10 -9 21 -19q10 -9 21 -20t21 -24q-10 -12 -21 -23t-21 -20q-11 -10 -21 -18q-9 7 -18 16q-9 8 -18.5 17.5t-18.5 20.5q-9 -11 -19 -21t-18 -17q-9 -9 -18 -16zM815 108v-105l-16 -3q-45 0 -90 9.5t-75 44.5 q-2 -3 -8 -7q-42 -33 -122 -45t-189 -12q-97 0 -154.5 20t-87 50.5t-38 67t-8.5 69.5t6.5 62t14.5 51q9 26 20 47h90q-12 -21 -22 -44q-9 -22 -15.5 -45.5t-6.5 -47.5q0 -28 10.5 -50t36 -37.5t69.5 -23.5t110 -8q112 0 177 13t71 35q2 10 4.5 33t5.5 48.5t5.5 47t3.5 28.5 h93l-17 -172q21 -13 52.5 -18t63.5 -5z" />
<glyph unicode="&#x62b;" horiz-adv-x="239" arabic-form="initial" d="M112 530q-10 9 -21 18q-9 9 -19 19.5t-19 22.5q9 13 19 24t19 20q11 10 21 18q10 -8 21 -18q9 -9 19.5 -20t19.5 -24q-9 -12 -19.5 -22.5l-19.5 -19.5q-11 -9 -21 -18zM168 543q10 -9 21 -19q10 -9 21 -20t21 -24q-10 -12 -21 -23t-21 -20q-11 -10 -21 -18q-9 7 -18 16 q-9 8 -18.5 17.5t-18.5 20.5q-9 -11 -19 -21t-18 -17q-9 -9 -18 -16q-11 8 -22 18q-10 9 -20.5 20t-19.5 23q9 13 20 24.5t20 19.5q11 10 22 19q9 -7 18 -16l18.5 -18.5t18.5 -21.5q9 12 18.5 22t18.5 18q9 9 18 16zM169 376q5 -22 9 -48.5t8 -54.5t6 -54t2 -47 q0 -45 -16 -77.5t-37 -52.5q-23 -20 -58 -31t-83 -11l-16 3v105l16 3q57 0 79.5 10.5t22.5 22.5q0 29 -7 85t-20 129z" />
<glyph unicode="&#x62b;" horiz-adv-x="315" arabic-form="medial" d="M159 466q-10 9 -21 18q-9 9 -19 19.5t-19 22.5q9 13 19 24t19 20q11 10 21 18q10 -8 21 -18q9 -9 19.5 -20t19.5 -24q-9 -12 -19.5 -22.5l-19.5 -19.5q-11 -9 -21 -18zM105 355q-11 8 -22 18q-10 9 -20.5 20t-19.5 23q9 13 20 24.5t20 19.5q11 10 22 19q9 -7 18 -16 l18.5 -18.5t18.5 -21.5q9 12 18.5 22t18.5 18q9 9 18 16q10 -9 21 -19q10 -9 21 -20t21 -24q-10 -12 -21 -23t-21 -20q-11 -10 -21 -18q-9 7 -18 16q-9 8 -18.5 17.5t-18.5 20.5q-9 -11 -19 -21t-18 -17q-9 -9 -18 -16zM332 108v-105l-16 -3q-23 0 -46.5 2t-45 8t-41 17 t-34.5 29q-4 -5 -9 -10.5t-12 -10.5q-19 -15 -49 -25t-78 -10l-16 3v105l16 3q30 0 49.5 4t31.5 9.5t17 12t6 12.5q2 10 4.5 33t5.5 48.5t5 47t3 28.5h94l-17 -172q21 -13 52.5 -18t63.5 -5z" />
<glyph unicode="&#x62c;" horiz-adv-x="652" arabic-form="final" d="M668 108v-105l-16 -3h-3q-54 0 -89 16t-55.5 44t-27 65t-3.5 80q-74 -23 -141.5 -53t-118.5 -66t-81 -77.5t-30 -87.5q0 -10 8 -28t30 -36t62.5 -31t104.5 -13q49 0 93.5 7t79.5 15q40 10 76 22l-3 -108q-10 -5 -33.5 -12.5t-57 -15.5t-76 -13.5t-91.5 -5.5 q-57 0 -106 14.5t-85.5 42t-57 68.5t-20.5 95q0 66 25.5 117t68 90.5t99 68.5t119.5 51q-58 14 -106.5 30.5t-98.5 16.5q-18 0 -35 -3.5t-29 -6.5q-15 -5 -28 -11v99q15 7 31 13q16 5 34 9t38 4q33 0 70.5 -11t81 -24.5t94.5 -25t111 -11.5h81l-13 -111h-47q-1 -24 4.5 -44 t20 -33.5t39.5 -21t63 -7.5h2zM269 -10q9 13 19.5 24.5t20.5 20.5q10 10 21 19q11 -9 22 -19q10 -9 21 -20.5t21 -24.5q-10 -13 -21.5 -24.5t-20.5 -19.5q-11 -10 -22 -19q-11 9 -21 19q-10 9 -20.5 20t-19.5 24z" />
<glyph unicode="&#x62c;" horiz-adv-x="623" arabic-form="initial" d="M597 273l-10 -103h-33h-45q-42 -8 -95 -34t-104 -55q-70 -40 -139 -60.5t-155 -20.5h-16l-16 3v105l16 3h14q83 0 146 11.5t117 35.5q17 7 38.5 16.5t45.5 19.5q-9 3 -18 7t-20 9q-45 20 -86.5 37t-79.5 17q-20 0 -39 -4t-34 -9q-17 -6 -32 -14v96q14 10 31 18 q17 7 37.5 12.5t47.5 5.5q46 0 89.5 -18.5t89.5 -38.5q49 -23 96.5 -31t107.5 -8h46zM426 69q11 -9 23 -20q11 -10 22 -21.5t22 -25.5q-11 -13 -22.5 -25t-21.5 -21q-12 -11 -23 -20q-11 9 -23 20q-10 10 -21 21.5t-20 24.5q9 14 20.5 26t20.5 21q12 11 23 20z" />
<glyph unicode="&#x62c;" horiz-adv-x="662" arabic-form="medial" d="M678 108v-105l-16 -3h-11q-44 0 -74.5 13t-49.5 35.5t-28.5 52.5t-12.5 64q-40 -12 -86 -35t-90 -49q-70 -40 -139 -60.5t-156 -20.5h-15l-16 3v105l16 3h14q81 0 145 11.5t118 35.5q17 7 38.5 16.5t45.5 19.5q-9 3 -18 7t-20 9q-45 20 -86.5 37t-79.5 17q-20 0 -39 -4 t-34 -9q-17 -6 -32 -14v96q14 10 31 18q17 7 37.5 12.5t47.5 5.5q46 0 89.5 -18.5t89.5 -38.5q49 -23 96.5 -31t107.5 -8h46l-10 -102h-33h-15q4 -12 11 -22.5t20 -19t33 -13.5t49 -5h10zM395 43q11 -9 23 -20q11 -10 22 -21.5t22 -25.5q-11 -13 -22.5 -25t-21.5 -21 q-12 -11 -23 -20q-11 9 -23 20q-10 10 -21 21.5t-20 24.5q9 14 20.5 26t20.5 21q12 11 23 20z" />
<glyph unicode="&#x62d;" horiz-adv-x="652" arabic-form="final" d="M668 108v-105l-16 -3h-3q-54 0 -89 16t-55.5 44t-27 65t-3.5 80q-74 -23 -141.5 -53t-118.5 -66t-81 -77.5t-30 -87.5q0 -10 8 -28t30 -36t62.5 -31t104.5 -13q49 0 93.5 7t79.5 15q40 10 76 22l-3 -108q-10 -5 -33.5 -12.5t-57 -15.5t-76 -13.5t-91.5 -5.5 q-57 0 -106 14.5t-85.5 42t-57 68.5t-20.5 95q0 66 25.5 117t68 90.5t99 68.5t119.5 51q-58 14 -106.5 30.5t-98.5 16.5q-18 0 -35 -3.5t-29 -6.5q-15 -5 -28 -11v99q15 7 31 13q16 5 34 9t38 4q33 0 70.5 -11t81 -24.5t94.5 -25t111 -11.5h81l-13 -111h-47q-1 -24 4.5 -44 t20 -33.5t39.5 -21t63 -7.5h2z" />
<glyph unicode="&#x62d;" horiz-adv-x="623" arabic-form="initial" d="M597 273l-10 -103h-33h-45q-42 -8 -95 -34t-104 -55q-70 -40 -139 -60.5t-155 -20.5h-16l-16 3v105l16 3h14q83 0 146 11.5t117 35.5q17 7 38.5 16.5t45.5 19.5q-9 3 -18 7t-20 9q-45 20 -86.5 37t-79.5 17q-20 0 -39 -4t-34 -9q-17 -6 -32 -14v96q14 10 31 18 q17 7 37.5 12.5t47.5 5.5q46 0 89.5 -18.5t89.5 -38.5q49 -23 96.5 -31t107.5 -8h46z" />
<glyph unicode="&#x62d;" horiz-adv-x="662" arabic-form="medial" d="M678 108v-105l-16 -3h-11q-44 0 -74.5 13t-49.5 35.5t-28.5 52.5t-12.5 64q-40 -12 -86 -35t-90 -49q-70 -40 -139 -60.5t-156 -20.5h-15l-16 3v105l16 3h14q81 0 145 11.5t118 35.5q17 7 38.5 16.5t45.5 19.5q-9 3 -18 7t-20 9q-45 20 -86.5 37t-79.5 17q-20 0 -39 -4 t-34 -9q-17 -6 -32 -14v96q14 10 31 18q17 7 37.5 12.5t47.5 5.5q46 0 89.5 -18.5t89.5 -38.5q49 -23 96.5 -31t107.5 -8h46l-10 -102h-33h-15q4 -12 11 -22.5t20 -19t33 -13.5t49 -5h10z" />
<glyph unicode="&#x62e;" horiz-adv-x="652" arabic-form="final" d="M324 426q-11 9 -23 20q-10 10 -21 21.5t-20 24.5q9 14 20.5 26t20.5 21q12 11 23 20q11 -9 23 -20q11 -10 22 -21.5t22 -25.5q-11 -13 -22.5 -25t-21.5 -21q-12 -11 -23 -20zM668 108v-105l-16 -3h-3q-54 0 -89 16t-55.5 44t-27 65t-3.5 80q-74 -23 -141.5 -53 t-118.5 -66t-81 -77.5t-30 -87.5q0 -10 8 -28t30 -36t62.5 -31t104.5 -13q49 0 93.5 7t79.5 15q40 10 76 22l-3 -108q-10 -5 -33.5 -12.5t-57 -15.5t-76 -13.5t-91.5 -5.5q-57 0 -106 14.5t-85.5 42t-57 68.5t-20.5 95q0 66 25.5 117t68 90.5t99 68.5t119.5 51 q-58 14 -106.5 30.5t-98.5 16.5q-18 0 -35 -3.5t-29 -6.5q-15 -5 -28 -11v99q15 7 31 13q16 5 34 9t38 4q33 0 70.5 -11t81 -24.5t94.5 -25t111 -11.5h81l-13 -111h-47q-1 -24 4.5 -44t20 -33.5t39.5 -21t63 -7.5h2z" />
<glyph unicode="&#x62e;" horiz-adv-x="623" arabic-form="initial" d="M308 398q-11 9 -23 20q-10 10 -21 21.5t-20 24.5q9 14 20.5 26t20.5 21q12 11 23 20q11 -9 23 -20q11 -10 22 -21.5t22 -25.5q-11 -13 -22.5 -25t-21.5 -21q-12 -11 -23 -20zM597 273l-10 -103h-33h-45q-42 -8 -95 -34t-104 -55q-70 -40 -139 -60.5t-155 -20.5h-16l-16 3 v105l16 3h14q83 0 146 11.5t117 35.5q17 7 38.5 16.5t45.5 19.5q-9 3 -18 7t-20 9q-45 20 -86.5 37t-79.5 17q-20 0 -39 -4t-34 -9q-17 -6 -32 -14v96q14 10 31 18q17 7 37.5 12.5t47.5 5.5q46 0 89.5 -18.5t89.5 -38.5q49 -23 96.5 -31t107.5 -8h46z" />
<glyph unicode="&#x62e;" horiz-adv-x="662" arabic-form="medial" d="M308 398q-11 9 -23 20q-10 10 -21 21.5t-20 24.5q9 14 20.5 26t20.5 21q12 11 23 20q11 -9 23 -20q11 -10 22 -21.5t22 -25.5q-11 -13 -22.5 -25t-21.5 -21q-12 -11 -23 -20zM678 108v-105l-16 -3h-11q-44 0 -74.5 13t-49.5 35.5t-28.5 52.5t-12.5 64q-40 -12 -86 -35 t-90 -49q-70 -40 -139 -60.5t-156 -20.5h-15l-16 3v105l16 3h14q81 0 145 11.5t118 35.5q17 7 38.5 16.5t45.5 19.5q-9 3 -18 7t-20 9q-45 20 -86.5 37t-79.5 17q-20 0 -39 -4t-34 -9q-17 -6 -32 -14v96q14 10 31 18q17 7 37.5 12.5t47.5 5.5q46 0 89.5 -18.5t89.5 -38.5 q49 -23 96.5 -31t107.5 -8h46l-10 -102h-33h-15q4 -12 11 -22.5t20 -19t33 -13.5t49 -5h10z" />
<glyph unicode="&#x62f;" horiz-adv-x="487" arabic-form="final" d="M503 108v-105l-16 -3q-51 0 -88.5 15.5t-62.5 58.5q-13 -31 -39 -49q-20 -13 -55 -21.5t-82 -8.5q-51 0 -86 8t-52 18l-5 107q17 -6 54 -14t94 -8q46 0 78.5 6.5t47.5 11.5q-11 31 -27.5 80.5t-31.5 97.5q-18 56 -37 116l97 14l56 -178q15 -45 27 -72.5t26.5 -43.5 t34.5 -21.5t51 -5.5z" />
<glyph unicode="&#x630;" horiz-adv-x="487" arabic-form="final" d="M240 471q-11 9 -23 20q-10 10 -21 21.5t-20 24.5q9 14 20.5 26t20.5 21q12 11 23 20q11 -9 23 -20q11 -10 22 -21.5t22 -25.5q-11 -13 -22.5 -25t-21.5 -21q-12 -11 -23 -20zM503 108v-105l-16 -3q-51 0 -88.5 15.5t-62.5 58.5q-13 -31 -39 -49q-20 -13 -55 -21.5 t-82 -8.5q-51 0 -86 8t-52 18l-5 107q17 -6 54 -14t94 -8q46 0 78.5 6.5t47.5 11.5q-11 31 -27.5 80.5t-31.5 97.5q-18 56 -37 116l97 14l56 -178q15 -45 27 -72.5t26.5 -43.5t34.5 -21.5t51 -5.5z" />
<glyph unicode="&#x631;" horiz-adv-x="366" arabic-form="final" d="M381 108v-105l-16 -3q-41 0 -68 11.5t-46 31.5l-3 -17q-6 -30 -20 -68.5t-40.5 -72.5t-66 -57.5t-95.5 -23.5q-16 0 -28.5 2.5t-20.5 5.5q-10 4 -18 9l-7 105q2 -1 20.5 -6t47.5 -5q40 0 68 17t46 44t26 60t8 65q0 14 -12 62.5t-26 119.5l93 15q4 -17 7 -34q4 -17 8 -35 l8 -36q5 -17 13 -32t21.5 -26t34 -17.5t50.5 -6.5z" />
<glyph unicode="&#x632;" horiz-adv-x="366" arabic-form="final" d="M171 346q-11 9 -23 20q-10 10 -21 21.5t-20 24.5q9 14 20.5 26t20.5 21q12 11 23 20q11 -9 23 -20q11 -10 22 -21.5t22 -25.5q-11 -13 -22.5 -25t-21.5 -21q-12 -11 -23 -20zM381 108v-105l-16 -3q-41 0 -68 11.5t-46 31.5l-3 -17q-6 -30 -20 -68.5t-40.5 -72.5 t-66 -57.5t-95.5 -23.5q-16 0 -28.5 2.5t-20.5 5.5q-10 4 -18 9l-7 105q2 -1 20.5 -6t47.5 -5q40 0 68 17t46 44t26 60t8 65q0 14 -12 62.5t-26 119.5l93 15q4 -17 7 -34q4 -17 8 -35l8 -36q5 -17 13 -32t21.5 -26t34 -17.5t50.5 -6.5z" />
<glyph unicode="&#x633;" horiz-adv-x="1068" arabic-form="final" d="M1084 108v-105l-16 -3q-54 0 -89 12.5t-56 36.5q-17 -23 -44.5 -36t-80.5 -13q-42 0 -69 12t-44 35q-13 -19 -38 -33t-71 -14q-26 0 -47 8q-2 -32 -13.5 -64t-40.5 -61q-30 -32 -86.5 -55t-128.5 -23q-73 0 -118.5 22.5t-71 56t-34.5 74t-9 76.5q0 38 6 70.5t14 57.5 q8 28 19 52h90q-11 -25 -20 -51q-9 -24 -15 -51t-6 -55q0 -18 3.5 -42.5t18.5 -46.5t45.5 -37t84.5 -15q40 0 72 8.5t55 20.5t35.5 25t12.5 22q0 18 -5.5 59.5t-12.5 85t-13 79t-7 41.5l95 16q6 -30 13 -72.5t13 -84.5q18 -6 52 -6q31 0 45 6.5t18 17.5q3 11 6.5 33.5 t6.5 46t5.5 43t2.5 24.5h92q-5 -39 -9.5 -79t-10.5 -80q13 -7 31 -10t40 -3q20 0 38.5 2.5t33.5 7.5q0 2 -0.5 3t-0.5 3q-2 13 -4.5 42t-4.5 59q-2 35 -4 75l94 9q2 -26 3 -49q2 -22 3.5 -42t2.5 -32q2 -18 6 -32.5t15 -24t30.5 -14.5t51.5 -5z" />
<glyph unicode="&#x633;" horiz-adv-x="691" arabic-form="initial" d="M633 341q5 -57 9 -105q2 -29 3.5 -47t2.5 -35t2 -30.5t1 -20.5q0 -18 -9.5 -38.5t-23.5 -38.5t-30 -29.5t-30 -11.5t-37 4.5t-49.5 13.5t-53.5 22t-49 30q-13 -21 -38 -38t-76 -17q-42 0 -68 11.5t-43 40.5q-23 -35 -59 -43.5t-85 -8.5l-16 3v105l16 3q53 0 73.5 5 t23.5 16q2 6 5 23.5t6 37.5q4 22 8 48h90q-5 -31 -8.5 -60t-8.5 -58q17 -13 67 -13q31 0 44.5 6.5t17.5 17.5q3 11 6.5 32.5t6.5 45t5.5 42.5t2.5 24h92q-6 -61 -15 -127q29 -17 68.5 -32.5t72.5 -22.5l-19 235z" />
<glyph unicode="&#x633;" horiz-adv-x="748" arabic-form="medial" d="M764 108v-105l-16 -3q-55 0 -89.5 12.5t-55.5 37.5q-17 -23 -45 -36.5t-81 -13.5q-43 0 -69.5 12t-43.5 35q-14 -19 -38.5 -33t-70.5 -14q-42 0 -68 11.5t-43 40.5q-23 -35 -59 -43.5t-85 -8.5l-16 3v105l16 3q53 0 73.5 5t23.5 16q2 6 5 23.5t6 37.5q4 22 8 48h90 q-5 -31 -8.5 -60t-8.5 -58q17 -13 67 -13q31 0 44.5 6.5t17.5 17.5q3 11 6.5 32.5t6.5 45t5.5 42.5t2.5 24h92q-8 -76 -18 -152q25 -17 70 -17q46 0 73 12q-1 1 -1 4q-2 13 -4.5 42t-4.5 59q-2 35 -4 75l94 9q2 -26 3 -49q2 -22 3.5 -42t2.5 -32q2 -18 6 -32.5t15 -24 t30.5 -14.5t51.5 -5z" />
<glyph unicode="&#x634;" horiz-adv-x="1068" arabic-form="final" d="M702 440q-10 9 -21 18q-9 9 -19 19.5t-19 22.5q9 13 19 24t19 20q11 10 21 18q10 -8 21 -18q9 -9 19.5 -20t19.5 -24q-9 -12 -19.5 -22.5l-19.5 -19.5q-11 -9 -21 -18zM648 329q-11 8 -22 18q-10 9 -20.5 20t-19.5 23q9 13 20 24.5t20 19.5q11 10 22 19q9 -7 18 -16 l18.5 -18.5t18.5 -21.5q9 12 18.5 22t18.5 18q9 9 18 16q10 -9 21 -19q10 -9 21 -20t21 -24q-10 -12 -21 -23t-21 -20q-11 -10 -21 -18q-9 7 -18 16q-9 8 -18.5 17.5t-18.5 20.5q-9 -11 -19 -21t-18 -17q-9 -9 -18 -16zM1084 108v-105l-16 -3q-54 0 -89 12.5t-56 36.5 q-17 -23 -44.5 -36t-80.5 -13q-42 0 -69 12t-44 35q-13 -19 -38 -33t-71 -14q-26 0 -47 8q-2 -32 -13.5 -64t-40.5 -61q-30 -32 -86.5 -55t-128.5 -23q-73 0 -118.5 22.5t-71 56t-34.5 74t-9 76.5q0 38 6 70.5t14 57.5q8 28 19 52h90q-11 -25 -20 -51q-9 -24 -15 -51t-6 -55 q0 -18 3.5 -42.5t18.5 -46.5t45.5 -37t84.5 -15q40 0 72 8.5t55 20.5t35.5 25t12.5 22q0 18 -5.5 59.5t-12.5 85t-13 79t-7 41.5l95 16q6 -30 13 -72.5t13 -84.5q18 -6 52 -6q31 0 45 6.5t18 17.5q3 11 6.5 33.5t6.5 46t5.5 43t2.5 24.5h92q-5 -39 -9.5 -79t-10.5 -80 q13 -7 31 -10t40 -3q20 0 38.5 2.5t33.5 7.5q0 2 -0.5 3t-0.5 3q-2 13 -4.5 42t-4.5 59q-2 35 -4 75l94 9q2 -26 3 -49q2 -22 3.5 -42t2.5 -32q2 -18 6 -32.5t15 -24t30.5 -14.5t51.5 -5z" />
<glyph unicode="&#x634;" horiz-adv-x="691" arabic-form="initial" d="M379 438q-10 9 -21 18q-9 9 -19 19.5t-19 22.5q9 13 19 24t19 20q11 10 21 18q10 -8 21 -18q9 -9 19.5 -20t19.5 -24q-9 -12 -19.5 -22.5l-19.5 -19.5q-11 -9 -21 -18zM325 327q-11 8 -22 18q-10 9 -20.5 20t-19.5 23q9 13 20 24.5t20 19.5q11 10 22 19q9 -7 18 -16 l18.5 -18.5t18.5 -21.5q9 12 18.5 22t18.5 18q9 9 18 16q10 -9 21 -19q10 -9 21 -20t21 -24q-10 -12 -21 -23t-21 -20q-11 -10 -21 -18q-9 7 -18 16q-9 8 -18.5 17.5t-18.5 20.5q-9 -11 -19 -21t-18 -17q-9 -9 -18 -16zM633 341q5 -57 9 -105q2 -29 3.5 -47t2.5 -35t2 -30.5 t1 -20.5q0 -18 -9.5 -38.5t-23.5 -38.5t-30 -29.5t-30 -11.5t-37 4.5t-49.5 13.5t-53.5 22t-49 30q-13 -21 -38 -38t-76 -17q-42 0 -68 11.5t-43 40.5q-23 -35 -59 -43.5t-85 -8.5l-16 3v105l16 3q53 0 73.5 5t23.5 16q2 6 5 23.5t6 37.5q4 22 8 48h90q-5 -31 -8.5 -60 t-8.5 -58q17 -13 67 -13q31 0 44.5 6.5t17.5 17.5q3 11 6.5 32.5t6.5 45t5.5 42.5t2.5 24h92q-6 -61 -15 -127q29 -17 68.5 -32.5t72.5 -22.5l-19 235z" />
<glyph unicode="&#x634;" horiz-adv-x="748" arabic-form="medial" d="M379 438q-10 9 -21 18q-9 9 -19 19.5t-19 22.5q9 13 19 24t19 20q11 10 21 18q10 -8 21 -18q9 -9 19.5 -20t19.5 -24q-9 -12 -19.5 -22.5l-19.5 -19.5q-11 -9 -21 -18zM325 327q-11 8 -22 18q-10 9 -20.5 20t-19.5 23q9 13 20 24.5t20 19.5q11 10 22 19q9 -7 18 -16 l18.5 -18.5t18.5 -21.5q9 12 18.5 22t18.5 18q9 9 18 16q10 -9 21 -19q10 -9 21 -20t21 -24q-10 -12 -21 -23t-21 -20q-11 -10 -21 -18q-9 7 -18 16q-9 8 -18.5 17.5t-18.5 20.5q-9 -11 -19 -21t-18 -17q-9 -9 -18 -16zM764 108v-105l-16 -3q-55 0 -89.5 12.5t-55.5 37.5 q-17 -23 -45 -36.5t-81 -13.5q-43 0 -69.5 12t-43.5 35q-14 -19 -38.5 -33t-70.5 -14q-42 0 -68 11.5t-43 40.5q-23 -35 -59 -43.5t-85 -8.5l-16 3v105l16 3q53 0 73.5 5t23.5 16q2 6 5 23.5t6 37.5q4 22 8 48h90q-5 -31 -8.5 -60t-8.5 -58q17 -13 67 -13q31 0 44.5 6.5 t17.5 17.5q3 11 6.5 32.5t6.5 45t5.5 42.5t2.5 24h92q-8 -76 -18 -152q25 -17 70 -17q46 0 73 12q-1 1 -1 4q-2 13 -4.5 42t-4.5 59q-2 35 -4 75l94 9q2 -26 3 -49q2 -22 3.5 -42t2.5 -32q2 -18 6 -32.5t15 -24t30.5 -14.5t51.5 -5z" />
<glyph unicode="&#x635;" horiz-adv-x="1156" arabic-form="final" d="M1172 108v-105l-16 -3q-42 0 -82.5 10.5t-71.5 41.5q-50 -30 -121.5 -41t-148.5 -11h-13q-59 0 -106.5 7.5t-82.5 19.5q0 -5 -0.5 -9t-0.5 -9q-2 -32 -13.5 -64.5t-40.5 -61.5q-30 -32 -86.5 -55t-128.5 -23q-73 0 -118.5 22.5t-71 56t-34.5 74t-9 76.5q0 38 6 70.5 t14 57.5q8 28 19 52h90q-11 -25 -20 -51q-9 -24 -15 -51t-6 -55q0 -18 3.5 -42.5t18.5 -46.5t45.5 -37t84.5 -15q40 0 72 8.5t55 20.5t35.5 25t12.5 22q0 18 -5.5 59.5t-12.5 85t-13 79t-7 41.5l95 16q5 -25 10.5 -58.5t10.5 -68.5q16 -8 37 -14q24 38 58 84t76 86.5 t90 67.5t100 27q42 0 78 -20.5t62.5 -52t41 -69.5t14.5 -73q0 -32 -10 -56q16 -7 37 -11t52 -4zM740 109q48 0 93.5 4t81.5 11.5t58 19t22 25.5q0 11 -9.5 30.5t-27.5 38.5t-43 33.5t-57 14.5q-36 0 -70 -16t-65 -41t-57 -54.5t-46 -56.5q26 -5 53.5 -7t54.5 -2h12z" />
<glyph unicode="&#x635;" horiz-adv-x="776" arabic-form="initial" d="M543 397q42 0 78 -20.5t62.5 -52t41 -69.5t14.5 -73q0 -55 -29.5 -90t-78 -55.5t-110.5 -28.5t-127 -8h-13q-97 0 -162.5 18.5t-91.5 40.5q-23 -39 -57 -49t-70 -10l-16 3v105l16 3q37 0 54.5 5t20.5 16q2 6 5 23.5t6 37.5q4 22 8 48h90q-3 -23 -6 -44.5t-7 -43.5 q15 -11 48 -21q24 38 58 84t76 86.5t90 67.5t100 27zM402 109q48 0 93.5 4t81.5 11.5t58 19t22 25.5q0 11 -9.5 30.5t-27.5 38.5t-43 33.5t-57 14.5q-36 0 -70 -16t-65 -41t-57 -54.5t-46 -56.5q26 -5 53.5 -7t54.5 -2h12z" />
<glyph unicode="&#x635;" horiz-adv-x="826" arabic-form="medial" d="M842 108v-105l-16 -3q-42 0 -83.5 11.5t-73.5 44.5q-50 -32 -123 -44t-152 -12h-13q-97 0 -162.5 18.5t-91.5 40.5q-23 -39 -57 -49t-70 -10l-16 3v105l16 3q37 0 54.5 5t20.5 16q2 6 5 23.5t6 37.5q4 22 8 48h90q-3 -23 -6 -44.5t-7 -43.5q15 -11 48 -21q24 38 58 84 t76 86.5t90 67.5t100 27q42 0 78 -20.5t62.5 -52t41 -69.5t14.5 -73q0 -29 -9 -52q16 -8 38.5 -13.5t57.5 -5.5zM402 109q48 0 93.5 4t81.5 11.5t58 19t22 25.5q0 11 -9.5 30.5t-27.5 38.5t-43 33.5t-57 14.5q-36 0 -70 -16t-65 -41t-57 -54.5t-46 -56.5q26 -5 53.5 -7 t54.5 -2h12z" />
<glyph unicode="&#x636;" horiz-adv-x="1156" arabic-form="final" d="M869 441q-11 9 -23 20q-10 10 -21 21.5t-20 24.5q9 14 20.5 26t20.5 21q12 11 23 20q11 -9 23 -20q11 -10 22 -21.5t22 -25.5q-11 -13 -22.5 -25t-21.5 -21q-12 -11 -23 -20zM1172 108v-105l-16 -3q-42 0 -82.5 10.5t-71.5 41.5q-50 -30 -121.5 -41t-148.5 -11h-13 q-59 0 -106.5 7.5t-82.5 19.5q0 -5 -0.5 -9t-0.5 -9q-2 -32 -13.5 -64.5t-40.5 -61.5q-30 -32 -86.5 -55t-128.5 -23q-73 0 -118.5 22.5t-71 56t-34.5 74t-9 76.5q0 38 6 70.5t14 57.5q8 28 19 52h90q-11 -25 -20 -51q-9 -24 -15 -51t-6 -55q0 -18 3.5 -42.5t18.5 -46.5 t45.5 -37t84.5 -15q40 0 72 8.5t55 20.5t35.5 25t12.5 22q0 18 -5.5 59.5t-12.5 85t-13 79t-7 41.5l95 16q5 -25 10.5 -58.5t10.5 -68.5q16 -8 37 -14q24 38 58 84t76 86.5t90 67.5t100 27q42 0 78 -20.5t62.5 -52t41 -69.5t14.5 -73q0 -32 -10 -56q16 -7 37 -11t52 -4z M740 109q48 0 93.5 4t81.5 11.5t58 19t22 25.5q0 11 -9.5 30.5t-27.5 38.5t-43 33.5t-57 14.5q-36 0 -70 -16t-65 -41t-57 -54.5t-46 -56.5q26 -5 53.5 -7t54.5 -2h12z" />
<glyph unicode="&#x636;" horiz-adv-x="773" arabic-form="initial" d="M547 442q-11 9 -23 20q-10 10 -21 21.5t-20 24.5q9 14 20.5 26t20.5 21q12 11 23 20q11 -9 23 -20q11 -10 22 -21.5t22 -25.5q-11 -13 -22.5 -25t-21.5 -21q-12 -11 -23 -20zM543 397q42 0 78 -20.5t62.5 -52t41 -69.5t14.5 -73q0 -55 -29.5 -90t-78 -55.5t-110.5 -28.5 t-127 -8h-13q-97 0 -162.5 18.5t-91.5 40.5q-23 -39 -57 -49t-70 -10l-16 3v105l16 3q37 0 54.5 5t20.5 16q2 6 5 23.5t6 37.5q4 22 8 48h90q-3 -23 -6 -44.5t-7 -43.5q15 -11 48 -21q24 38 58 84t76 86.5t90 67.5t100 27zM402 109q48 0 93.5 4t81.5 11.5t58 19t22 25.5 q0 11 -9.5 30.5t-27.5 38.5t-43 33.5t-57 14.5q-36 0 -70 -16t-65 -41t-57 -54.5t-46 -56.5q26 -5 53.5 -7t54.5 -2h12z" />
<glyph unicode="&#x636;" horiz-adv-x="826" arabic-form="medial" d="M547 442q-11 9 -23 20q-10 10 -21 21.5t-20 24.5q9 14 20.5 26t20.5 21q12 11 23 20q11 -9 23 -20q11 -10 22 -21.5t22 -25.5q-11 -13 -22.5 -25t-21.5 -21q-12 -11 -23 -20zM842 108v-105l-16 -3q-42 0 -83.5 11.5t-73.5 44.5q-50 -32 -123 -44t-152 -12h-13 q-97 0 -162.5 18.5t-91.5 40.5q-23 -39 -57 -49t-70 -10l-16 3v105l16 3q37 0 54.5 5t20.5 16q2 6 5 23.5t6 37.5q4 22 8 48h90q-3 -23 -6 -44.5t-7 -43.5q15 -11 48 -21q24 38 58 84t76 86.5t90 67.5t100 27q42 0 78 -20.5t62.5 -52t41 -69.5t14.5 -73q0 -29 -9 -52 q16 -8 38.5 -13.5t57.5 -5.5zM402 109q48 0 93.5 4t81.5 11.5t58 19t22 25.5q0 11 -9.5 30.5t-27.5 38.5t-43 33.5t-57 14.5q-36 0 -70 -16t-65 -41t-57 -54.5t-46 -56.5q26 -5 53.5 -7t54.5 -2h12z" />
<glyph unicode="&#x637;" horiz-adv-x="727" arabic-form="final" d="M743 108v-105l-16 -3q-42 0 -82.5 10.5t-72.5 42.5q-50 -30 -121.5 -41.5t-149.5 -11.5h-18q-56 0 -98 4t-73 10.5t-52 15t-36 16.5l-2 106q14 -6 38 -14t61 -15q11 17 23.5 36.5t27.5 39.5v481l98 6v-295q0 -30 -8 -56.5t-19 -49.5q45 47 97.5 79.5t109.5 32.5 q42 0 78 -20.5t62.5 -52t41 -69.5t14.5 -73q0 -32 -10 -55q16 -7 37.5 -11.5t53.5 -4.5zM309 109q48 0 93.5 4t81.5 11.5t58 19t22 25.5q0 11 -9.5 30.5t-27.5 38.5t-43 33.5t-57 14.5q-36 0 -70.5 -16.5t-66 -42t-58 -56t-46.5 -57.5q23 -2 49 -3.5t56 -1.5h18z" />
<glyph unicode="&#x637;" horiz-adv-x="580" arabic-form="initial" d="M349 397q43 0 79 -20.5t62 -52t40.5 -69.5t14.5 -73q0 -55 -29.5 -90t-77.5 -55.5t-110 -28.5t-127 -8h-201l-16 4v104l16 3h12q13 20 27.5 42.5t31.5 45.5v481l98 6v-295q0 -30 -8.5 -57.5t-19.5 -50.5q46 48 98.5 81t109.5 33zM209 109q48 0 93.5 4t81.5 11.5t58 19 t22 25.5q0 11 -9.5 30.5t-27.5 38.5t-43.5 33.5t-57.5 14.5q-37 0 -72.5 -17.5t-67 -43.5t-58 -57.5t-45.5 -58.5h126z" />
<glyph unicode="&#x637;" horiz-adv-x="625" arabic-form="medial" d="M641 108v-105l-16 -3q-42 0 -82.5 10.5t-72.5 42.5q-49 -30 -120 -41.5t-149 -11.5h-201l-16 4v104l16 3h12q13 20 27.5 42.5t31.5 45.5v481l98 6v-295q0 -30 -8.5 -57.5t-19.5 -50.5q46 48 98.5 81t109.5 33q43 0 79 -20.5t62 -52t40.5 -69.5t14.5 -73q0 -32 -10 -55 q16 -8 37 -12t53 -4zM209 109q48 0 93.5 4t81.5 11.5t58 19t22 25.5q0 11 -9.5 30.5t-27.5 38.5t-43.5 33.5t-57.5 14.5q-37 0 -72.5 -17.5t-67 -43.5t-58 -57.5t-45.5 -58.5h126z" />
<glyph unicode="&#x638;" horiz-adv-x="727" arabic-form="final" d="M743 108v-105l-16 -3q-42 0 -82.5 10.5t-72.5 42.5q-50 -30 -121.5 -41.5t-149.5 -11.5h-18q-56 0 -98 4t-73 10.5t-52 15t-36 16.5l-2 106q14 -6 38 -14t61 -15q11 17 23.5 36.5t27.5 39.5v481l98 6v-295q0 -30 -8 -56.5t-19 -49.5q45 47 97.5 79.5t109.5 32.5 q42 0 78 -20.5t62.5 -52t41 -69.5t14.5 -73q0 -32 -10 -55q16 -7 37.5 -11.5t53.5 -4.5zM439 447q-11 9 -23 20q-10 10 -21 21.5t-20 24.5q9 14 20.5 26t20.5 21q12 11 23 20q11 -9 23 -20q11 -10 22 -21.5t22 -25.5q-11 -13 -22.5 -25t-21.5 -21q-12 -11 -23 -20zM309 109 q48 0 93.5 4t81.5 11.5t58 19t22 25.5q0 11 -9.5 30.5t-27.5 38.5t-43 33.5t-57 14.5q-36 0 -70.5 -16.5t-66 -42t-58 -56t-46.5 -57.5q23 -2 49 -3.5t56 -1.5h18z" />
<glyph unicode="&#x638;" horiz-adv-x="580" arabic-form="initial" d="M349 397q43 0 79 -20.5t62 -52t40.5 -69.5t14.5 -73q0 -55 -29.5 -90t-77.5 -55.5t-110 -28.5t-127 -8h-201l-16 4v104l16 3h12q13 20 27.5 42.5t31.5 45.5v481l98 6v-295q0 -30 -8.5 -57.5t-19.5 -50.5q46 48 98.5 81t109.5 33zM334 447q-11 9 -23 20q-10 10 -21 21.5 t-20 24.5q9 14 20.5 26t20.5 21q12 11 23 20q11 -9 23 -20q11 -10 22 -21.5t22 -25.5q-11 -13 -22.5 -25t-21.5 -21q-12 -11 -23 -20zM209 109q48 0 93.5 4t81.5 11.5t58 19t22 25.5q0 11 -9.5 30.5t-27.5 38.5t-43.5 33.5t-57.5 14.5q-37 0 -72.5 -17.5t-67 -43.5 t-58 -57.5t-45.5 -58.5h126z" />
<glyph unicode="&#x638;" horiz-adv-x="625" arabic-form="medial" d="M641 108v-105l-16 -3q-42 0 -82.5 10.5t-72.5 42.5q-49 -30 -120 -41.5t-149 -11.5h-201l-16 4v104l16 3h12q13 20 27.5 42.5t31.5 45.5v481l98 6v-295q0 -30 -8.5 -57.5t-19.5 -50.5q46 48 98.5 81t109.5 33q43 0 79 -20.5t62 -52t40.5 -69.5t14.5 -73q0 -32 -10 -55 q16 -8 37 -12t53 -4zM334 447q-11 9 -23 20q-10 10 -21 21.5t-20 24.5q9 14 20.5 26t20.5 21q12 11 23 20q11 -9 23 -20q11 -10 22 -21.5t22 -25.5q-11 -13 -22.5 -25t-21.5 -21q-12 -11 -23 -20zM209 109q48 0 93.5 4t81.5 11.5t58 19t22 25.5q0 11 -9.5 30.5t-27.5 38.5 t-43.5 33.5t-57.5 14.5q-37 0 -72.5 -17.5t-67 -43.5t-58 -57.5t-45.5 -58.5h126z" />
<glyph unicode="&#x639;" horiz-adv-x="557" arabic-form="final" d="M572 108v-105l-16 -3h-67q-69 0 -120 19.5t-93 50.5q-36 -16 -68 -33t-55 -36.5t-36.5 -40.5t-13.5 -45q0 -9 7.5 -26t29 -34t60 -29.5t100.5 -12.5q47 0 88.5 6t74.5 12q37 9 69 19l-4 -108q-1 0 -20 -6.5t-51 -14t-75.5 -13.5t-93.5 -6q-55 0 -103 12.5t-83 39 t-55 66.5t-20 96q0 48 18.5 85t44.5 64t55.5 45t51.5 29l-15 15q-31 31 -60.5 56.5t-64.5 53.5v99q12 6 37.5 13t58.5 13t70 10t71 4q70 0 124.5 -12.5t79.5 -28.5v-21.5t-1 -26t-2.5 -25.5t-3.5 -18q-8 -20 -39 -60t-91 -81q23 -9 49.5 -14t60.5 -5h85zM155 287 q20 -14 40 -31t42 -38q11 -11 22.5 -21t23.5 -20q45 22 82 49.5t58 58.5q-28 7 -63 11.5t-74 4.5q-38 0 -71 -4t-60 -10z" />
<glyph unicode="&#x639;" horiz-adv-x="456" arabic-form="initial" d="M429 69q-34 -17 -79 -30t-97 -21.5t-109.5 -13t-117.5 -4.5h-26l-16 3v105l16 3h35q31 0 58 3q-20 23 -29.5 51t-9.5 55q0 36 13 70.5t37.5 61.5t59 43t76.5 16t69.5 -15t39.5 -28l-12 -95q-15 8 -40.5 17.5t-58.5 9.5q-25 0 -45 -7.5t-34.5 -19.5t-22.5 -27t-8 -29 q0 -7 6.5 -20.5t20.5 -27t37 -23.5t56 -10q24 0 49 4.5t48.5 10.5t43.5 13t33 12z" />
<glyph unicode="&#x639;" horiz-adv-x="531" arabic-form="medial" d="M547 108v-105l-16 -3h-62q-40 0 -71 3t-56 9.5t-45.5 17t-40.5 25.5q-51 -26 -109.5 -40.5t-128.5 -14.5h-19l-15 3v105l15 3h54q38 0 69.5 3t58.5 8q-30 29 -66 64.5t-71 62.5v95q12 6 37.5 13t58 13t69.5 10t71 4q69 0 123.5 -12.5t79.5 -28.5v-21.5t-0.5 -25.5 t-2 -24.5t-3.5 -17.5q-8 -19 -37.5 -58.5t-85.5 -80.5q17 -2 38.5 -3t50.5 -1h88zM410 267q-29 8 -64 12.5t-75 4.5q-38 0 -71.5 -4t-60.5 -10q22 -20 44.5 -40.5t42.5 -40.5q13 -11 23 -20.5t20 -17.5q44 21 81.5 52.5t59.5 63.5z" />
<glyph unicode="&#x63a;" horiz-adv-x="557" arabic-form="final" d="M283 439q-11 9 -23 20q-10 10 -21 21.5t-20 24.5q9 14 20.5 26t20.5 21q12 11 23 20q11 -9 23 -20q11 -10 22 -21.5t22 -25.5q-11 -13 -22.5 -25t-21.5 -21q-12 -11 -23 -20zM572 108v-105l-16 -3h-67q-69 0 -120 19.5t-93 50.5q-36 -16 -68 -33t-55 -36.5t-36.5 -40.5 t-13.5 -45q0 -9 7.5 -26t29 -34t60 -29.5t100.5 -12.5q47 0 88.5 6t74.5 12q37 9 69 19l-4 -108q-1 0 -20 -6.5t-51 -14t-75.5 -13.5t-93.5 -6q-55 0 -103 12.5t-83 39t-55 66.5t-20 96q0 48 18.5 85t44.5 64t55.5 45t51.5 29l-15 15q-31 31 -60.5 56.5t-64.5 53.5v99 q12 6 37.5 13t58.5 13t70 10t71 4q70 0 124.5 -12.5t79.5 -28.5v-21.5t-1 -26t-2.5 -25.5t-3.5 -18q-8 -20 -39 -60t-91 -81q23 -9 49.5 -14t60.5 -5h85zM155 287q20 -14 40 -31t42 -38q11 -11 22.5 -21t23.5 -20q45 22 82 49.5t58 58.5q-28 7 -63 11.5t-74 4.5 q-38 0 -71 -4t-60 -10z" />
<glyph unicode="&#x63a;" horiz-adv-x="456" arabic-form="initial" d="M226 448q-11 9 -23 20q-10 10 -21 21.5t-20 24.5q9 14 20.5 26t20.5 21q12 11 23 20q11 -9 23 -20q11 -10 22 -21.5t22 -25.5q-11 -13 -22.5 -25t-21.5 -21q-12 -11 -23 -20zM429 69q-34 -17 -79 -30t-97 -21.5t-109.5 -13t-117.5 -4.5h-26l-16 3v105l16 3h35q31 0 58 3 q-20 23 -29.5 51t-9.5 55q0 36 13 70.5t37.5 61.5t59 43t76.5 16t69.5 -15t39.5 -28l-12 -95q-15 8 -40.5 17.5t-58.5 9.5q-25 0 -45 -7.5t-34.5 -19.5t-22.5 -27t-8 -29q0 -7 6.5 -20.5t20.5 -27t37 -23.5t56 -10q24 0 49 4.5t48.5 10.5t43.5 13t33 12z" />
<glyph unicode="&#x63a;" horiz-adv-x="531" arabic-form="medial" d="M271 421q-11 9 -23 20q-10 10 -21 21.5t-20 24.5q9 14 20.5 26t20.5 21q12 11 23 20q11 -9 23 -20q11 -10 22 -21.5t22 -25.5q-11 -13 -22.5 -25t-21.5 -21q-12 -11 -23 -20zM547 108v-105l-16 -3h-62q-40 0 -71 3t-56 9.5t-45.5 17t-40.5 25.5q-51 -26 -109.5 -40.5 t-128.5 -14.5h-19l-15 3v105l15 3h54q38 0 69.5 3t58.5 8q-30 29 -66 64.5t-71 62.5v95q12 6 37.5 13t58 13t69.5 10t71 4q69 0 123.5 -12.5t79.5 -28.5v-21.5t-0.5 -25.5t-2 -24.5t-3.5 -17.5q-8 -19 -37.5 -58.5t-85.5 -80.5q17 -2 38.5 -3t50.5 -1h88zM410 267 q-29 8 -64 12.5t-75 4.5q-38 0 -71.5 -4t-60.5 -10q22 -20 44.5 -40.5t42.5 -40.5q13 -11 23 -20.5t20 -17.5q44 21 81.5 52.5t59.5 63.5z" />
<glyph unicode="&#x641;" horiz-adv-x="806" arabic-form="final" d="M598 465q-11 9 -22 19q-10 10 -20.5 21t-19.5 24q9 13 20 25t20 21q11 11 22 20q11 -9 22 -20q11 -10 22 -21.5t21 -24.5q-10 -13 -21.5 -24.5t-21.5 -20.5q-11 -10 -22 -19zM822 108v-105l-16 -3q-59 0 -112 8t-104 29q-42 -18 -112 -34t-163 -16q-97 0 -154.5 20 t-87 51t-38 67.5t-8.5 69.5q0 34 6.5 63t14.5 51q9 26 20 48h90q-12 -22 -22 -45q-9 -21 -15.5 -45t-6.5 -48q0 -28 10.5 -50.5t36 -38t69.5 -24t110 -8.5q37 0 73 3t65 8q-23 23 -36.5 53t-13.5 69q0 33 13.5 68t36.5 63.5t55 47t69 18.5q36 0 64 -20t46.5 -50t28.5 -66 t10 -68t-14 -58.5t-37 -48.5q29 -5 56 -5.5t50 -0.5zM581 317q-18 0 -34.5 -8.5t-28.5 -21t-19.5 -27.5t-7.5 -27q0 -23 30 -47.5t75 -41.5q33 14 52.5 34t19.5 37q0 14 -6.5 31.5t-17.5 33.5t-27 26.5t-36 10.5z" />
<glyph unicode="&#x641;" horiz-adv-x="390" arabic-form="initial" d="M188 524q-11 9 -22 19q-10 10 -20.5 21t-19.5 24q9 13 20 25t20 21q11 11 22 20q11 -9 22 -20q11 -10 22 -21.5t21 -24.5q-10 -13 -21.5 -24.5t-21.5 -20.5q-11 -10 -22 -19zM191 485q41 0 71 -25t50 -62.5t29.5 -80t9.5 -77.5q0 -31 -4.5 -61.5t-14.5 -57.5t-26.5 -48.5 t-40.5 -35.5q-29 -19 -73.5 -28t-124.5 -9h-68l-16 3v105l16 3h92q124 0 160 25q10 7 15.5 21.5t7.5 29.5q-16 -8 -43 -17t-65 -9q-62 0 -101 30.5t-39 99.5q0 29 11.5 63t33 63t52 48.5t68.5 19.5zM88 289q0 -11 8 -18t20.5 -11.5t27 -6.5t27.5 -2q29 0 54.5 4.5t45.5 9.5 q-4 19 -13 38.5t-21.5 35t-29 25.5t-36.5 10q-18 0 -33.5 -9t-26.5 -21.5t-17 -27.5t-6 -27z" />
<glyph unicode="&#x641;" horiz-adv-x="423" arabic-form="medial" d="M212 463q-11 9 -23 20q-10 10 -21 21.5t-20 24.5q9 14 20.5 26t20.5 21q12 11 23 20q11 -9 23 -20q11 -10 22 -21.5t22 -25.5q-11 -13 -22.5 -25t-21.5 -21q-12 -11 -23 -20zM439 108v-105l-16 -3q-63 0 -119 9t-109 33q-34 -17 -81.5 -29.5t-113.5 -12.5l-16 3v105l16 3 q20 0 43 1t47 3q-20 23 -32.5 51t-12.5 65q0 33 13.5 68t36.5 63.5t55 47t69 18.5q36 0 64 -20t46.5 -50t28.5 -66t10 -68t-13.5 -58t-36.5 -49q29 -4 55.5 -5t49.5 -1zM198 317q-18 0 -34.5 -8.5t-28.5 -21t-19.5 -27.5t-7.5 -27q0 -23 30 -47.5t75 -41.5q33 14 52.5 34 t19.5 37q0 14 -6.5 31.5t-17.5 33.5t-27 26.5t-36 10.5z" />
<glyph unicode="&#x642;" horiz-adv-x="645" arabic-form="final" d="M363 392q-11 9 -21 19q-10 9 -20.5 20.5t-19.5 23.5q9 12 19.5 23.5t20.5 20.5q10 10 21 19q8 -7 18 -15l17 -17t18 -20q9 11 18.5 20t17.5 17q9 8 17 15q10 -9 21 -19q10 -9 20.5 -20.5t20.5 -23.5q-10 -12 -21 -23.5t-20 -20.5q-11 -10 -21 -19q-8 7 -17 16 q-9 7 -18 16t-18 20q-9 -11 -18.5 -20t-16.5 -16q-10 -9 -18 -16zM660 107v-104l-16 -3h-53q-8 -46 -23.5 -78.5t-38.5 -57.5q-15 -17 -39.5 -32.5t-57 -27.5t-71 -19.5t-81.5 -7.5q-74 0 -123 24t-78 60t-40.5 79t-11.5 82q0 40 6 74t14 60q9 29 20 54h90q-12 -25 -21 -53 q-9 -25 -15 -53.5t-6 -57.5q0 -22 6.5 -49.5t25.5 -52t53.5 -41t90.5 -16.5q43 0 79.5 8.5t64.5 20t46 24.5t22 22q5 9 8 18.5t5 19.5h-105q-71 0 -112 34.5t-41 109.5q0 33 12.5 69t35 66.5t54 50.5t69.5 20q39 0 69.5 -22t51.5 -56.5t33 -77t14 -83.5h47zM519 107 q-4 23 -12.5 46t-22.5 42.5t-32.5 31.5t-41.5 12q-20 0 -36.5 -9.5t-28 -23.5t-18 -30t-6.5 -30q0 -11 8 -18.5t21 -12t28.5 -6.5t31.5 -2h109z" />
<glyph unicode="&#x642;" horiz-adv-x="390" arabic-form="initial" d="M133 522q-11 9 -21 19q-10 9 -20.5 20.5t-19.5 23.5q9 12 19.5 23.5t20.5 20.5q10 10 21 19q8 -7 18 -15l17 -17t18 -20q9 11 18.5 20t17.5 17q9 8 17 15q10 -9 21 -19q10 -9 20.5 -20.5t20.5 -23.5q-10 -12 -21 -23.5t-20 -20.5q-11 -10 -21 -19q-8 7 -17 16 q-9 7 -18 16t-18 20q-9 -11 -18.5 -20t-16.5 -16q-10 -9 -18 -16zM191 485q41 0 71 -25t50 -62.5t29.5 -80t9.5 -77.5q0 -31 -4.5 -61.5t-14.5 -57.5t-26.5 -48.5t-40.5 -35.5q-29 -19 -73.5 -28t-124.5 -9h-68l-16 3v105l16 3h92q124 0 160 25q10 7 15.5 21.5t7.5 29.5 q-16 -8 -43 -17t-65 -9q-62 0 -101 30.5t-39 99.5q0 29 11.5 63t33 63t52 48.5t68.5 19.5zM88 289q0 -11 8 -18t20.5 -11.5t27 -6.5t27.5 -2q29 0 54.5 4.5t45.5 9.5q-4 19 -13 38.5t-21.5 35t-29 25.5t-36.5 10q-18 0 -33.5 -9t-26.5 -21.5t-17 -27.5t-6 -27z" />
<glyph unicode="&#x642;" horiz-adv-x="423" arabic-form="medial" d="M158 463q-11 9 -21 19q-10 9 -20.5 20.5t-19.5 23.5q9 12 19.5 23.5t20.5 20.5q10 10 21 19q8 -7 18 -15l17 -17t18 -20q9 11 18.5 20t17.5 17q9 8 17 15q10 -9 21 -19q10 -9 20.5 -20.5t20.5 -23.5q-10 -12 -21 -23.5t-20 -20.5q-11 -10 -21 -19q-8 7 -17 16 q-9 7 -18 16t-18 20q-9 -11 -18.5 -20t-16.5 -16q-10 -9 -18 -16zM439 108v-105l-16 -3q-63 0 -119 9t-109 33q-34 -17 -81.5 -29.5t-113.5 -12.5l-16 3v105l16 3q20 0 43 1t47 3q-20 23 -32.5 51t-12.5 65q0 33 13.5 68t36.5 63.5t55 47t69 18.5q36 0 64 -20t46.5 -50 t28.5 -66t10 -68t-13.5 -58t-36.5 -49q29 -4 55.5 -5t49.5 -1zM198 317q-18 0 -34.5 -8.5t-28.5 -21t-19.5 -27.5t-7.5 -27q0 -23 30 -47.5t75 -41.5q33 14 52.5 34t19.5 37q0 14 -6.5 31.5t-17.5 33.5t-27 26.5t-36 10.5z" />
<glyph unicode="&#x643;" horiz-adv-x="752" arabic-form="final" d="M768 108v-105l-16 -3q-49 0 -86.5 11t-63.5 43q-4 -5 -8 -8t-8 -5q-36 -24 -106.5 -37.5t-170.5 -13.5q-96 0 -152 21t-85 52.5t-37 68.5t-8 70q0 31 6 59t14 49q8 25 19 46h89q-11 -20 -20 -42q-9 -20 -15 -42.5t-6 -45.5q0 -27 9.5 -50t34 -39.5t66.5 -26t107 -9.5 q81 0 141 11t94 26q-12 51 -12 130v412l98 6v-483q0 -29 4.5 -47t16 -28t30.5 -13.5t49 -3.5zM259 323q69 1 100 3t31 6t-12.5 8t-32.5 8q-35 8 -48 23.5t-13 35.5q0 19 12 35.5t30.5 31t41 26.5t43.5 22l9 -63q-23 -10 -41 -19q-17 -8 -29.5 -15t-12.5 -11q0 -2 17.5 -6 t33.5 -8q25 -6 41.5 -18t16.5 -42q0 -17 -8.5 -35t-23.5 -27q-19 -12 -58 -15t-82 -4z" />
<glyph unicode="&#x643;" horiz-adv-x="404" arabic-form="initial" d="M107 412q64 -27 110.5 -59t76.5 -65t44.5 -65t14.5 -59q0 -35 -14 -69t-45 -57q-14 -10 -31.5 -17t-42.5 -11.5t-59.5 -7t-82.5 -2.5h-78l-16 3v105l16 3h80q104 0 147.5 9.5t43.5 25.5q0 11 -11 33t-40.5 50.5t-81.5 60.5t-134 62v108l382 213l8 -110z" />
<glyph unicode="&#x643;" horiz-adv-x="470" arabic-form="medial" d="M486 108v-105l-16 -3q-41 0 -72 6t-55.5 18.5t-45 33t-39.5 48.5q-9 -20 -23 -40t-35 -32q-32 -20 -70 -27t-83 -7h-47l-16 3v105l16 3h53q65 0 102.5 12t37.5 26q0 5 -9 24.5t-33 57.5q-13 20 -29.5 42.5t-32 42.5t-26.5 35t-13 19t0 21t6.5 37t10 37t9.5 20l338 192 l9 -109l-278 -155q20 -25 44.5 -58.5t47.5 -66.5q33 -47 57 -80.5t48.5 -55t54 -31.5t73.5 -10z" />
<glyph unicode="&#x644;" horiz-adv-x="608" arabic-form="final" d="M624 108v-105l-16 -3q-36 1 -59.5 8.5t-39.5 22.5q-2 -39 -17 -74t-41 -62q-32 -35 -84.5 -56t-112.5 -21q-69 0 -113.5 22t-69.5 56t-34.5 74t-9.5 76q0 38 6 71t14 57q8 29 19 53h90q-11 -25 -20 -52q-9 -24 -15 -51t-6 -55q0 -18 4 -42.5t19 -46t44 -36.5t79 -15 q35 0 63 8t47.5 19t30 23.5t10.5 21.5v679l98 6v-452q0 -28 2.5 -51t12.5 -39t29.5 -24.5t53.5 -8.5z" />
<glyph unicode="&#x644;" horiz-adv-x="257" arabic-form="initial" d="M-16 3v105l16 3q57 0 81 8t24 25v536l98 6v-478q0 -69 -20.5 -110t-48.5 -63q-17 -13 -48.5 -24t-85.5 -11z" />
<glyph unicode="&#x644;" horiz-adv-x="306" arabic-form="medial" d="M322 108v-105l-16 -3q-54 0 -85.5 19.5t-49.5 57.5q-16 -26 -37 -42q-17 -13 -48.5 -24t-85.5 -11l-16 3v105l16 3q57 0 81 8t24 25v536l98 6v-452q0 -27 3 -50t13 -39t30.5 -25t56.5 -9z" />
<glyph unicode="&#x645;" horiz-adv-x="581" arabic-form="final" d="M596 108v-105l-16 -3h-13q-42 0 -68.5 10t-49.5 36q-7 -6 -19.5 -15t-30.5 -17.5t-42.5 -14t-54.5 -5.5q-66 0 -104 31q-32 -7 -52.5 -14.5t-20.5 -15.5q0 -2 1.5 -15.5t4.5 -34.5t6.5 -47.5t7.5 -53.5q8 -63 19 -142h-104q-10 67 -17 126q-5 34 -7.5 56.5t-4.5 43.5 t-3.5 38.5t-1.5 27.5q0 48 18.5 75.5t50.5 42.5q12 5 26.5 10.5t28.5 7.5q-1 4 -1 8v9q0 34 13.5 70t36 65.5t53 48.5t64.5 19q48 0 78.5 -34t63.5 -97q18 -34 30 -55t24.5 -33t28 -16t39.5 -4zM301 103q31 0 56 6t43 14q-12 23 -23.5 44t-24 37t-26.5 25.5t-31 9.5 q-19 0 -34.5 -9.5t-26.5 -24t-17 -30t-6 -27.5q0 -7 3 -14.5t13 -14.5t27.5 -11.5t46.5 -4.5z" />
<glyph unicode="&#x645;" horiz-adv-x="469" arabic-form="initial" d="M280 350q36 0 64.5 -20t48.5 -50.5t30.5 -66t10.5 -67.5q0 -24 -7 -51t-26 -49.5t-51 -37t-82 -14.5q-33 0 -79.5 9.5t-86.5 38.5q-17 -21 -40.5 -31.5t-61.5 -10.5l-16 3v105l16 3q23 0 38 3.5t27 13.5t23 27.5t26 44.5q16 31 32.5 58t36.5 47.5t43.5 32.5t53.5 12z M266 103q40 0 62.5 9t22.5 21q0 13 -6.5 31t-18 34.5t-27.5 28.5t-36 12q-32 0 -57 -25t-46 -65l-9 -20q21 -12 51.5 -19t63.5 -7z" />
<glyph unicode="&#x645;" horiz-adv-x="527" arabic-form="medial" d="M543 108v-105l-16 -3h-13q-42 0 -68.5 10t-49.5 36q-7 -6 -19.5 -15t-30.5 -17.5t-42.5 -14t-54.5 -5.5q-92 0 -130 61q-16 -24 -45 -39.5t-74 -15.5l-16 3v105l16 3q27 0 55 7t41 23v6q0 34 13.5 70t36 65.5t53 48.5t64.5 19q48 0 78.5 -34t63.5 -97q18 -34 30 -55 t24.5 -33t28 -16t39.5 -4zM248 103q31 0 56 6t43 14q-12 23 -23.5 44t-24 37t-26.5 25.5t-31 9.5q-19 0 -34.5 -9.5t-26.5 -24t-17 -30t-6 -27.5q0 -7 3 -14.5t13 -14.5t27.5 -11.5t46.5 -4.5z" />
<glyph unicode="&#x646;" horiz-adv-x="641" arabic-form="final" d="M281 256q-11 9 -23 20q-10 10 -21 21.5t-20 24.5q9 14 20.5 26t20.5 21q12 11 23 20q11 -9 23 -20q11 -10 22 -21.5t22 -25.5q-11 -13 -22.5 -25t-21.5 -21q-12 -11 -23 -20zM656 108v-105l-16 -3q-38 0 -65.5 9t-46.5 29v-15q0 -38 -12 -75.5t-43 -67.5q-29 -31 -85 -53 t-128 -22q-73 0 -118.5 22.5t-71 56t-34.5 73.5t-9 76q0 38 6 71t14 58q8 28 19 52h90q-11 -25 -20 -51q-9 -24 -15 -51t-6 -55q0 -19 3.5 -43.5t18.5 -46t45.5 -36.5t84.5 -15q40 0 72 8.5t55 19.5t35.5 23t12.5 19q0 20 -4.5 59t-10.5 80t-12 76.5t-9 48.5l98 19 q2 -8 2.5 -16.5t2.5 -16.5v1q3 -30 9.5 -53.5t21 -39.5t38.5 -24.5t62 -8.5z" />
<glyph unicode="&#x646;" horiz-adv-x="238" arabic-form="initial" d="M54 476q9 14 20.5 26t20.5 21q12 11 23 20q11 -9 23 -20q11 -10 22 -21.5t22 -25.5q-11 -13 -22.5 -25t-21.5 -21q-12 -11 -23 -20q-11 9 -23 20q-10 10 -21 21.5t-20 24.5zM169 376q5 -22 9 -48.5t8 -54.5t6 -54t2 -47q0 -45 -16 -77.5t-37 -52.5q-23 -20 -58 -31 t-83 -11l-16 3v105l16 3q57 0 79.5 10.5t22.5 22.5q0 29 -7 85t-20 129z" />
<glyph unicode="&#x646;" horiz-adv-x="315" arabic-form="medial" d="M168 358q-11 9 -23 20q-10 10 -21 21.5t-20 24.5q9 14 20.5 26t20.5 21q12 11 23 20q11 -9 23 -20q11 -10 22 -21.5t22 -25.5q-11 -13 -22.5 -25t-21.5 -21q-12 -11 -23 -20zM332 108v-105l-16 -3q-23 0 -46.5 2t-45 8t-41 17t-34.5 29q-4 -5 -9 -10.5t-12 -10.5 q-19 -15 -49 -25t-78 -10l-16 3v105l16 3q30 0 49.5 4t31.5 9.5t17 12t6 12.5q2 10 4.5 33t5.5 48.5t5 47t3 28.5h94l-17 -172q21 -13 52.5 -18t63.5 -5z" />
<glyph unicode="&#x647;" horiz-adv-x="393" arabic-form="isolated" d="M212 416q28 -21 54 -49t46 -60.5t32 -69t12 -73.5q0 -33 -10 -63.5t-31.5 -54t-55 -37.5t-80.5 -14q-40 0 -69 13t-47.5 34.5t-27 50.5t-8.5 61q0 33 9.5 66t26 65t39.5 61t50 53zM178 106q45 0 70 14t25 34q0 31 -25.5 72.5t-68.5 74.5q-20 -16 -36.5 -35t-28 -38.5 t-17.5 -37t-6 -29.5q0 -29 26 -42t61 -13z" />
<glyph unicode="&#x647;" horiz-adv-x="448" arabic-form="final" d="M465 108v-105l-16 -3q-72 0 -111.5 25t-59.5 70q-11 -8 -39 -19t-73 -11q-38 0 -68 13.5t-49 39.5q-19 29 -21.5 69t17.5 72q15 26 39 48t51.5 41t58 34.5t59.5 28.5v59l95 6v-260q0 -25 3.5 -44.5t14.5 -33t31 -20.5t52 -7zM173 172q29 0 50 4.5t35 10.5q-2 10 -2 21 t-1 22q-1 13 -1.5 35t-0.5 48q-79 -33 -121 -65t-42 -46q0 -11 24 -20.5t59 -9.5z" />
<glyph unicode="&#x647;" horiz-adv-x="496" arabic-form="initial" d="M141 446q108 -50 171.5 -99.5t96.5 -95.5t43 -87.5t10 -76.5q0 -17 -7.5 -36t-20.5 -34.5t-28.5 -25.5t-32.5 -10q-16 0 -39.5 4.5t-50 12.5t-53.5 19t-50 23q-38 -18 -83.5 -29t-96.5 -11l-16 3v105l16 3q45 0 79 3q-18 20 -26 44.5t-8 58.5q0 33 17.5 67.5t45.5 59.5 l-11 5zM181 295q-16 0 -30.5 -9t-25 -21.5t-17 -25.5t-6.5 -21t9 -18t23 -20t31.5 -19.5t34.5 -18.5q23 12 38 28.5t15 32.5q0 11 -5 26.5t-14.5 30t-23 25t-29.5 10.5zM278 110q32 -11 63 -18.5t55 -10.5q-5 37 -20 69.5t-49 64.5q-2 -25 -14 -53.5t-35 -51.5z" />
<glyph unicode="&#x647;" horiz-adv-x="458" arabic-form="medial" d="M474 108v-105l-16 -3h-72q16 -15 25.5 -34t9.5 -44q0 -26 -9.5 -49t-29 -41t-48 -28.5t-67.5 -10.5q-38 0 -73 13.5t-63.5 40t-49 66t-28.5 90.5q-14 -2 -28 -2.5t-25 -0.5l-16 3v105l16 3h51q6 65 23 115t40.5 84t52 52t58.5 18q31 0 56 -18.5t42.5 -46t27 -58.5 t9.5 -57q0 -29 -14 -58t-39 -54q12 8 31.5 15.5t51.5 7.5h68zM208 269q-35 0 -61 -42.5t-34 -115.5q47 0 78 7.5t50 18.5t27 23.5t8 22.5q0 11 -5.5 25.5t-15 28t-21.5 23t-26 9.5zM271 -100q31 0 48.5 9t17.5 18q0 18 -11 34t-31 29t-47.5 21.5t-60.5 10.5 q-15 -2 -32.5 -5.5t-38.5 -6.5q14 -45 52.5 -77.5t102.5 -32.5z" />
<glyph unicode="&#x648;" horiz-adv-x="415" arabic-form="final" d="M430 107v-104l-16 -3h-54q-9 -39 -26 -74.5t-43.5 -62.5t-63 -43t-83.5 -16q-27 0 -48 3.5t-36 8.5q-17 5 -30 12l-3 98q4 -1 34.5 -9.5t81.5 -8.5q60 0 94 27t48 65h-107q-68 0 -108 34.5t-40 109.5q0 33 12 69t34.5 66.5t54 50.5t70.5 20t69.5 -22t52 -56.5t33.5 -77 t14 -83.5h44zM291 107q-4 23 -13 46t-23 42.5t-32.5 31.5t-41.5 12q-20 0 -36.5 -9.5t-28 -23.5t-18 -30t-6.5 -30q0 -11 8 -18.5t20.5 -12t27.5 -6.5t29 -2h114z" />
<glyph unicode="&#x649;" horiz-adv-x="605" arabic-form="final" d="M620 108v-105l-16 -3h-28q4 -9 4 -21q0 -23 -6 -56t-33 -68q-15 -18 -39.5 -37t-58.5 -35t-77 -26t-94 -10q-73 0 -120 21t-75 54t-39 73t-11 78t6 71.5t14 58.5q8 30 19 54h90q-11 -26 -20 -53q-9 -25 -15 -52.5t-6 -54.5q0 -20 5.5 -44t23.5 -45t51.5 -35.5t88.5 -14.5 q45 0 85.5 10t70.5 24.5t47.5 29t17.5 23.5q0 20 -33.5 37.5t-93.5 17.5h-1l20 111h207z" />
<glyph unicode="&#x64a;" horiz-adv-x="605" arabic-form="final" d="M620 108v-105l-16 -3h-28q4 -9 4 -21q0 -23 -6 -56t-33 -68q-15 -18 -39.5 -37t-58.5 -35t-77 -26t-94 -10q-73 0 -120 21t-75 54t-39 73t-11 78t6 71.5t14 58.5q8 30 19 54h90q-11 -26 -20 -53q-9 -25 -15 -52.5t-6 -54.5q0 -20 5.5 -44t23.5 -45t51.5 -35.5t88.5 -14.5 q45 0 85.5 10t70.5 24.5t47.5 29t17.5 23.5q0 20 -33.5 37.5t-93.5 17.5h-1l20 111h207zM358 -295q10 -9 21 -19q10 -9 20.5 -20.5t20.5 -23.5q-10 -12 -21 -23.5t-20 -20.5q-11 -10 -21 -19q-8 7 -17 15t-18 17t-18 20q-9 -11 -18.5 -20t-16.5 -17q-10 -8 -18 -15 q-11 9 -21 19q-10 9 -20.5 20.5t-19.5 23.5q9 12 19.5 23.5t20.5 20.5q10 10 21 19q8 -7 18 -16q8 -7 17 -16t18 -20q9 11 18.5 20t17.5 16q9 9 17 16z" />
<glyph unicode="&#x64a;" horiz-adv-x="251" arabic-form="initial" d="M141 42q-23 -20 -58 -31t-83 -11l-16 3v105l16 3q57 0 79.5 10.5t22.5 22.5q0 29 -7 85t-20 129l94 18q5 -22 9 -48.5t8 -54.5t6 -54t2 -47q0 -45 -16 -77.5t-37 -52.5zM144 -45q10 -9 21 -19q9 -9 19 -19.5t19 -22.5q-9 -12 -19.5 -22.5t-18.5 -19.5q-11 -9 -21 -18 q-8 7 -17 15q-8 7 -16.5 16t-17.5 19q-9 -10 -18 -19l-16 -16q-9 -8 -17 -15l-20 18t-20 19.5t-19 22.5q9 12 19.5 23t19.5 19q10 10 20 19q8 -7 17 -15q8 -7 16.5 -16t17.5 -20q9 11 18 20l16 16q9 8 17 15z" />
<glyph unicode="&#x64a;" horiz-adv-x="315" arabic-form="medial" d="M332 108v-105l-16 -3q-23 0 -46.5 2t-45 8t-41 17t-34.5 29q-4 -5 -9 -10.5t-12 -10.5q-19 -15 -49 -25t-78 -10l-16 3v105l16 3q30 0 49.5 4t31.5 9.5t17 12t6 12.5q2 10 4.5 33t5.5 48.5t5 47t3 28.5h94l-17 -172q21 -13 52.5 -18t63.5 -5zM196 -51q10 -9 21 -19 q9 -9 19 -19.5t19 -22.5q-9 -12 -19.5 -22.5t-18.5 -19.5q-11 -9 -21 -18q-8 7 -17 15q-8 7 -16.5 16t-17.5 19q-9 -10 -18 -19l-16 -16q-9 -8 -17 -15l-20 18t-20 19.5t-19 22.5q9 12 19.5 23t19.5 19q10 10 20 19q8 -7 17 -15q8 -7 16.5 -16t17.5 -20q9 11 18 20l16 16 q9 8 17 15z" />
<glyph unicode=" "  horiz-adv-x="247" />
<glyph unicode="&#x09;" horiz-adv-x="247" />
<glyph unicode="&#xa0;" horiz-adv-x="247" />
<glyph unicode="!" horiz-adv-x="292" d="M101 179q0 38 -1 93t-4 117t-7 126.5t-10 121.5l95 9q6 -55 10.5 -108.5t7 -109.5t4 -117.5t1.5 -131.5h-96zM80 45q10 12 21 24q11 11 22.5 23t24.5 23l28 -24q12 -12 23 -23.5t19 -22.5q-10 -15 -22 -28t-23 -22q-12 -11 -25 -20q-15 11 -27.5 23t-21.5 23 q-11 12 -19 24z" />
<glyph unicode="&#x22;" horiz-adv-x="380" d="M160 653l-16 -212h-85v212h101zM330 653l-16 -212h-86v212h102z" />
<glyph unicode="#" horiz-adv-x="628" d="M195 436l31 147h75l-31 -147h140l31 147h75l-31 -147h111l-12 -70h-114l-32 -153h116l-12 -70h-118l-30 -143h-75l30 143h-140l-30 -143h-75l30 143h-102l12 70h104l32 153h-106l12 70h109zM363 213l32 153h-140l-32 -153h140z" />
<glyph unicode="$" horiz-adv-x="476" d="M201 -5q-80 3 -152 33v100q27 -16 67 -28.5t85 -16.5v172l-8 3q-28 10 -55 23.5t-48 33t-33.5 46t-12.5 62.5q0 35 12 63.5t33.5 49.5t50 34.5t61.5 18.5v79h64v-76q47 -2 86 -11.5t65 -23.5v-98q-30 18 -69.5 31t-81.5 15v-165q32 -12 62.5 -25.5t55.5 -33t40 -47.5 t15 -68q0 -39 -13.5 -68.5t-37 -50.5t-55 -33t-67.5 -17v-83h-64v81zM201 499q-23 -7 -39 -21.5t-16 -37.5q0 -29 14 -45t41 -29v133zM265 84q32 6 51 24.5t19 47.5q0 26 -19.5 43t-50.5 31v-146z" />
<glyph unicode="%" horiz-adv-x="696" d="M31 437q0 73 37.5 114.5t94.5 41.5q56 0 93.5 -37.5t37.5 -115.5q0 -72 -37.5 -111t-93.5 -39q-57 0 -94.5 36t-37.5 111zM553 583v-20l-130 -193h-66l119 213h77zM220 436q0 57 -15.5 77.5t-44.5 20.5q-28 0 -41 -20.5t-13 -74.5q0 -48 16 -70.5t45 -22.5 q24 0 38.5 19.5t14.5 70.5zM401 139q0 73 37.5 114.5t94.5 41.5q56 0 93.5 -37.5t37.5 -115.5q0 -71 -37.5 -110.5t-93.5 -39.5q-57 0 -94.5 36.5t-37.5 110.5zM590 138q0 57 -16 78t-45 21q-53 0 -53 -96q0 -48 15.5 -70.5t44.5 -22.5q25 0 39.5 19.5t14.5 70.5zM150 0v20 l137 216h66l-125 -236h-78z" />
<glyph unicode="&#x26;" horiz-adv-x="719" d="M541 122q86 -59 160 -102v-20h-139q-21 11 -45 25.5t-51 31.5q-45 -31 -98 -49t-116 -18q-48 0 -87 12t-66.5 33t-42.5 50.5t-15 65.5q0 57 29 97.5t77 64.5q-24 29 -38 58t-14 58q0 34 14.5 63.5t40.5 52t62.5 35.5t79.5 13q41 0 74.5 -12t57.5 -32t37 -47t13 -56 q0 -31 -12.5 -56.5t-33.5 -45.5t-48.5 -35.5t-57.5 -26.5q24 -19 51 -39q23 -17 46.5 -34.5t46.5 -34.5q31 35 53.5 78t33.5 88h108q-17 -57 -47 -113.5t-73 -104.5zM262 332q50 20 77.5 45.5t27.5 58.5q0 32 -21.5 52.5t-59.5 20.5q-42 0 -63.5 -20t-21.5 -56q0 -23 17 -49 t44 -52zM200 259q-26 -18 -40 -41.5t-14 -44.5q0 -41 30 -69t90 -28q66 0 122 34q-29 20 -57.5 41.5t-55.5 44.5q-40 32 -75 63z" />
<glyph unicode="'" horiz-adv-x="211" d="M160 653l-16 -212h-85v212h101z" />
<glyph unicode="(" horiz-adv-x="286" d="M168 -157q-15 17 -40 56.5t-49 94.5t-41.5 122.5t-17.5 142.5t18 139.5t42 114.5t49 84.5t38 48.5h91q-14 -15 -39 -48.5t-50 -82.5t-43 -113.5t-18 -141.5q0 -79 19 -148t44.5 -123.5t51 -92t38.5 -54.5z" />
<glyph unicode=")" horiz-adv-x="286" d="M116 646q14 -14 38.5 -48.5t48.5 -84.5t41.5 -114.5t17.5 -139.5t-17.5 -142.5t-41.5 -122.5t-49 -94.5t-40 -56.5l-93 -1q14 17 39.5 54.5t50.5 92t44 123.5t19 148q0 77 -18 141.5t-42.5 113.5t-50 82.5t-39.5 48.5h92z" />
<glyph unicode="*" horiz-adv-x="382" d="M174 504l-18 119h70l-20 -119l95 76l34 -62l-112 -43l113 -41l-36 -63l-92 75l17 -116h-70l15 117l-89 -76l-35 62l107 41l-107 44l36 62z" />
<glyph unicode="+" horiz-adv-x="493" d="M209 332v173h75v-173h173v-72h-173v-173h-75v173h-173v72h173z" />
<glyph unicode="," horiz-adv-x="247" d="M19 -161q26 35 43.5 75t17.5 73q0 21 -7 37t-27 27q1 28 21.5 49.5t52.5 21.5q34 0 55.5 -20.5t21.5 -55.5q0 -57 -32.5 -119.5t-91.5 -111.5z" />
<glyph unicode="-" horiz-adv-x="348" d="M290 282v-78h-232v78h232z" />
<glyph unicode="." horiz-adv-x="234" d="M41 60q11 13 23 26q11 12 23.5 25t26.5 25l30 -26l25.5 -25.5t20.5 -24.5q-11 -17 -24 -30.5t-24 -23.5q-14 -12 -28 -21q-17 12 -30 25t-23 24q-11 13 -20 26z" />
<glyph unicode="/" horiz-adv-x="340" d="M312 674l-201 -767h-83l202 767h82z" />
<glyph unicode="0" horiz-adv-x="536" d="M48 283q0 71 13.5 128.5t41.5 98t69.5 62t98.5 21.5q63 0 104.5 -22.5t66.5 -62t35.5 -93.5t10.5 -116q0 -70 -14.5 -126.5t-42.5 -96.5t-70 -62t-98 -22q-58 0 -99 20t-67 58t-37.5 92t-11.5 121zM377 297q0 42 -5.5 80t-18.5 66.5t-34.5 45.5t-53.5 17q-31 0 -52 -17 t-33.5 -46.5t-18 -69t-5.5 -84.5q0 -97 25.5 -154.5t87.5 -57.5q32 0 53 16.5t33 46t17 69.5t5 88z" />
<glyph unicode="1" horiz-adv-x="332" d="M150 470l-130 -22v82l181 53h62v-583h-113v470z" />
<glyph unicode="2" horiz-adv-x="478" d="M41 72q52 42 101 86.5t86.5 88t60.5 86t23 80.5q0 21 -8.5 37.5t-23 28.5t-33.5 18t-39 6q-34 0 -71 -9t-83 -43v90q35 27 82 39.5t92 12.5q38 0 73 -10t61.5 -30t42 -51.5t15.5 -73.5q0 -39 -18 -82t-48.5 -86.5t-72.5 -85t-90 -78.5v-3h245v-93h-395v72z" />
<glyph unicode="3" horiz-adv-x="455" d="M49 113q41 -21 77.5 -27.5t73.5 -6.5q47 0 77 25.5t30 61.5q0 44 -43.5 66.5t-124.5 24.5v65q28 2 54 11t46 23t32 32t12 37q0 34 -23.5 55t-67.5 21q-30 0 -66 -11t-74 -40v92q31 24 72.5 37.5t86.5 13.5q85 0 130.5 -38.5t45.5 -101.5q0 -27 -10 -50.5t-25.5 -41 t-33.5 -29t-35 -15.5v-5q29 -3 53 -15.5t40.5 -31t25.5 -42.5t9 -51q0 -45 -18.5 -78.5t-49 -56t-70 -34t-81.5 -11.5q-51 0 -85.5 8.5t-57.5 19.5v93z" />
<glyph unicode="4" horiz-adv-x="494" d="M268 140h-241v82l247 361h105v-360h82v-83h-82v-140h-111v140zM268 448h-6l-149 -225h155v225z" />
<glyph unicode="5" horiz-adv-x="452" d="M304 174q0 52 -40.5 78t-118.5 26q-20 0 -41 -2t-41 -4l27 311h307v-87h-232l-12 -139q7 1 13.5 1h14.5q51 0 92.5 -10t71 -32t46 -56t16.5 -81q0 -48 -19.5 -83t-50.5 -58t-69.5 -34.5t-76.5 -11.5q-46 0 -81.5 8t-64.5 19v95q38 -19 75.5 -27.5t72.5 -8.5q48 0 79.5 27 t31.5 69z" />
<glyph unicode="6" horiz-adv-x="505" d="M310 507q-67 0 -104 -40.5t-47 -130.5q25 13 57.5 23.5t74.5 10.5q36 0 67.5 -10.5t55.5 -31.5t37.5 -53.5t13.5 -76.5q0 -42 -14.5 -79.5t-42 -65.5t-67 -44.5t-89.5 -16.5q-54 0 -92.5 19t-63.5 54t-37 85t-12 112q0 71 17 132t50 105t81.5 69t111.5 25q27 0 60.5 -4.5 t62.5 -15.5v-93q-36 17 -65 22t-55 5zM155 262q0 -93 24.5 -140t77.5 -47q45 0 72.5 29.5t27.5 83.5q0 51 -25.5 77.5t-71.5 26.5q-32 0 -58 -8t-47 -19v-3z" />
<glyph unicode="7" horiz-adv-x="418" d="M69 5l226 491h-265v87h369v-58l-229 -525h-98z" />
<glyph unicode="8" horiz-adv-x="507" d="M359 298q42 -21 72 -52.5t30 -84.5q0 -33 -16.5 -63.5t-46 -54.5t-69 -38t-85.5 -14q-98 0 -148 46t-50 118q0 42 26 82t67 64q-33 22 -55.5 52.5t-22.5 77.5q0 30 14 59.5t39 52t60.5 36.5t77.5 14q43 0 79 -10.5t62.5 -30t41.5 -46.5t15 -60q0 -47 -25.5 -85t-65.5 -63 zM293 326q29 26 42.5 54t13.5 52q0 32 -24.5 54.5t-72.5 22.5q-36 0 -62.5 -19.5t-26.5 -54.5q0 -21 11 -37t29 -28.5t41.5 -22.5t48.5 -21zM197 269q-23 -23 -37 -48.5t-14 -58.5q0 -22 8.5 -39t23 -28.5t33.5 -17.5t40 -6q20 0 38 5t32.5 15.5t23 26.5t8.5 38 q0 21 -13.5 36t-36 28t-50 24.5t-56.5 24.5z" />
<glyph unicode="9" horiz-adv-x="505" d="M195 78q66 0 103 40t48 131q-26 -14 -58.5 -24t-74.5 -10q-36 0 -67.5 10.5t-55.5 31.5t-37.5 53.5t-13.5 76.5q0 42 14.5 79.5t42.5 65.5t67.5 44.5t89.5 16.5q53 0 92 -19t64 -54t37 -84.5t12 -111.5q0 -72 -17 -132.5t-50.5 -105t-82 -69.5t-111.5 -25q-27 0 -60 4.5 t-62 15.5v93q35 -17 64.5 -22t55.5 -5zM350 323q0 94 -24.5 140.5t-78.5 46.5q-45 0 -72.5 -29.5t-27.5 -83.5q0 -51 26 -77.5t71 -26.5q32 0 58 7.5t48 18.5v4z" />
</font>
</defs>
</svg>
